<svg width="150" height="150" viewBox="0 0 150 150" fill="none" xmlns="http://www.w3.org/2000/svg">
<path d="M79.1754 15C81.0405 15.4187 82.9493 15.6031 84.8237 16.0094C104.85 20.3625 119.347 38.9218 118.863 59.5312C118.127 59.3968 118.467 59.8968 118.389 60.3343C115.233 78.6093 102.367 93.428 83.8506 96.9218C58.753 101.659 36.6994 85.1499 32.4857 60.3343C32.4109 59.8968 32.7477 59.3968 32.0117 59.5312C31.5314 38.9312 45.925 20.5281 65.8609 16.0531L71.4655 15H79.1691L79.1754 15ZM73.7579 23.5062C49.7737 24.7844 34.7657 49.4937 43.8135 71.7124C54.3429 97.5655 90.3597 100.328 104.719 76.3874C118.86 52.8093 101.394 22.0312 73.7548 23.5062H73.7579Z" fill="#FFDF6A"/>
<path d="M73.5726 107.578C70.8467 115.425 68.1895 123.309 65.4074 131.137C64.9427 132.447 64.5248 133.844 63.77 135H62.6036L52.5701 125.25C47.9011 125.462 43.2103 126.5 38.5601 126.437C38.3262 126.25 37.9644 125.975 37.8895 125.687C37.7398 125.116 38.9686 121.903 39.2493 121.05C41.7226 113.544 44.6294 106.097 47.19 98.6719C55.0964 103.941 64.0226 107.125 73.5695 107.578H73.5726Z" fill="#E83A56"/>
<path d="M103.688 98.6719C106.252 106.097 109.159 113.547 111.629 121.05C112.237 122.9 114.458 126.937 111.036 126.575L98.3112 125.25L88.2777 135H87.1112C86.3564 133.844 85.9385 132.447 85.4738 131.137C82.6918 123.309 80.0314 115.425 77.3086 107.578C86.8493 107.116 95.8005 103.959 103.688 98.6719Z" fill="#E83A56"/>
<path d="M32.0176 59.5312C32.7536 59.3968 32.4168 59.8937 32.4917 60.3343C36.7053 85.1499 58.7589 101.659 83.8565 96.9217C102.373 93.4249 115.239 78.6093 118.395 60.3343C118.47 59.8968 118.133 59.3968 118.869 59.5312C118.582 71.8061 111.936 86.028 102.061 93.2811C97.0151 96.9874 89.4393 100.319 83.1953 101.409C80.7158 101.844 77.834 101.684 75.6819 102.422C75.6164 102.444 75.2796 102.444 75.2141 102.422C73.4145 101.806 73.0745 102.137 71.3654 101.95C63.512 101.09 55.1472 97.9155 48.8346 93.2811C38.9384 86.0155 32.3108 71.8186 32.0269 59.5312H32.0176Z" fill="#FDCC40"/>
<path d="M75.2072 102.422C74.8173 104.181 74.1624 105.884 73.5729 107.578C64.026 107.125 55.0966 103.941 47.1934 98.6719C47.7984 96.9187 48.207 95.0375 48.8277 93.2812C55.1403 97.9156 63.5082 101.091 71.3584 101.95C73.0707 102.137 73.4076 101.806 75.2072 102.422Z" fill="#E61F3D"/>
<path d="M102.055 93.2812C102.676 95.0375 103.085 96.9187 103.69 98.6719C95.8019 103.959 86.8507 107.116 77.3101 107.578C76.7206 105.884 76.0656 104.181 75.6758 102.422C77.8278 101.687 80.7097 101.844 83.1892 101.409C89.4332 100.316 97.009 96.9875 102.055 93.2812Z" fill="#E61F3D"/>
<path d="M73.7563 23.5062C101.396 22.0312 118.861 52.8092 104.72 76.3873C90.3612 100.328 54.3444 97.5654 43.815 71.7123C34.7672 49.4936 49.7751 24.7874 73.7593 23.5062H73.7563ZM65.1669 47.3436C65.0109 47.6874 64.6023 47.7592 64.4869 48.6561C63.782 54.1592 70.9087 55.4467 73.1044 50.6249C73.2167 58.2749 72.961 65.9467 73.1044 73.5936C73.1356 75.1873 72.8018 77.4592 73.6065 78.8311C74.8853 81.0186 77.5363 81.7498 79.7196 80.353C82.2115 78.7561 81.6876 75.8936 81.7406 73.3592C81.9683 62.3905 81.5628 51.3936 81.75 40.4186C81.6502 38.4718 80.0533 36.378 78.1009 36.1124C75.3251 35.7343 72.1157 35.7249 70.3411 38.1249C68.7068 40.3374 66.3209 44.7999 65.1638 47.3405L65.1669 47.3436Z" fill="#F9B145"/>
<path d="M81.7448 73.3592C79.9171 77.5967 75.0673 77.8467 73.1055 73.5935C72.962 65.9467 73.2178 58.2748 73.1055 50.6248C73.0962 50.0561 73.302 46.8686 72.7562 46.8811C72.6283 46.8811 71.3652 48.3811 70.994 48.6217C69.0977 49.8654 66.3656 49.2186 65.168 47.3436C66.3251 44.803 68.711 40.3405 70.3453 38.128C72.1199 35.7248 75.3293 35.7373 78.1051 36.1155C80.0575 36.3811 81.6544 38.4748 81.7542 40.4217C81.567 51.3936 81.9725 62.3936 81.7448 73.3623V73.3592Z" fill="#FFDF69"/>
<path d="M73.105 73.5937C75.0668 77.8469 79.9135 77.5969 81.7443 73.3594C81.6913 75.8937 82.2153 78.7562 79.7233 80.3531C77.5401 81.7531 74.889 81.0187 73.6102 78.8312C72.8087 77.4594 73.1393 75.1875 73.1081 73.5937H73.105Z" fill="#FDCC3F"/>
<path d="M73.1058 50.6246C70.9101 55.4465 63.7834 54.159 64.4883 48.6559C64.6037 47.7621 65.0092 47.6871 65.1682 47.3434C66.3659 49.2184 69.098 49.8653 70.9943 48.6215C71.3654 48.3778 72.6285 46.8809 72.7564 46.8809C73.3022 46.8684 73.0995 50.0559 73.1058 50.6246Z" fill="#FDCC3F"/>
</svg>
