<svg width="150" height="150" viewBox="0 0 150 150" fill="none" xmlns="http://www.w3.org/2000/svg">
<path d="M70.5376 15C70.8213 15.3224 71.1768 15.3256 71.4699 15H79.4061C79.7023 15.3256 80.0516 15.3193 80.3384 15H81.0401C80.9091 15.7544 81.4174 15.3944 81.8539 15.4602C103.342 18.7189 119.558 37.8046 118.853 59.7546C118.114 59.62 118.46 60.1208 118.379 60.5559C113.932 85.2826 92.1413 101.642 67.0232 96.9024C48.5534 93.4152 35.7964 78.7307 32.491 60.5559C32.413 60.1208 32.7591 59.6169 32.017 59.7546C31.4027 37.5229 47.515 18.747 69.2497 15.4602C69.6863 15.3944 70.1945 15.7544 70.0636 15H70.5313H70.5376ZM41.3595 58.1143C41.2628 70.9268 47.8331 82.5967 59.0933 88.6978C82.1252 101.182 109.582 84.4249 109.517 58.3491C109.479 43.2608 99.5597 29.7752 85.0564 25.6119C63.2501 19.3512 41.5279 35.3911 41.3563 58.1143H41.3595Z" fill="#E0E0E0"/>
<path d="M71.4695 15C71.1732 15.3256 70.8209 15.3224 70.5371 15H71.4695Z" fill="white"/>
<path d="M80.3386 15C80.0517 15.3193 79.6994 15.3256 79.4062 15H80.3386Z" fill="white"/>
<path d="M73.5732 107.555C70.5235 116.386 67.4302 125.21 64.3493 134.032C64.0936 134.77 63.5697 135.171 62.7683 134.93L52.5714 125.223C47.9033 125.436 43.2133 126.472 38.5639 126.412C38.33 126.224 37.9683 125.952 37.8935 125.661C37.7438 125.091 38.9724 121.876 39.253 121.025C41.7259 113.521 44.6477 106.078 47.1923 98.6523C55.091 103.902 64.0312 107.126 73.567 107.555H73.5732Z" fill="#8DC36D"/>
<path d="M103.683 98.6494C106.227 106.078 109.152 113.519 111.622 121.022C112.23 122.872 114.45 126.907 111.029 126.547L98.3065 125.223L88.1096 134.93C87.3082 135.171 86.7844 134.771 86.5287 134.032C83.4446 125.21 80.3575 116.386 77.3047 107.555C86.853 107.139 95.7932 103.915 103.679 98.6525L103.683 98.6494Z" fill="#8DC36D"/>
<path d="M32.0234 59.7547C32.7625 59.6201 32.4164 60.121 32.4974 60.5561C35.8028 78.7309 48.5568 93.4153 67.0297 96.9025C92.1446 101.645 113.939 85.2827 118.385 60.5561C118.463 60.121 118.12 59.6201 118.859 59.7547C118.469 71.9318 111.871 86.0559 102.055 93.2619C94.7889 98.5961 84.7417 102.099 75.6799 102.165C75.524 102.165 75.3681 102.165 75.2121 102.165C66.2376 102.099 56.0345 98.5428 48.8374 93.2619C39.0677 86.0903 32.3665 71.8942 32.0328 59.7547H32.0234Z" fill="#CECFCF"/>
<path d="M102.049 93.2617C102.694 95.0116 103.081 96.8961 103.683 98.6522C95.7963 103.914 86.853 107.142 77.3078 107.555C76.706 105.811 75.9108 103.996 75.6738 102.164C84.7357 102.099 94.786 98.5927 102.049 93.2617Z" fill="#75B950"/>
<path d="M75.206 102.164C74.969 103.996 74.1738 105.808 73.572 107.555C64.033 107.123 55.0928 103.902 47.1973 98.6522C47.7991 96.8961 48.1858 95.0116 48.8313 93.2617C56.0283 98.5457 66.2315 102.102 75.206 102.164Z" fill="#75B950"/>
<path d="M109.518 58.3492C108.283 64.9668 105.925 71.096 101.575 76.2673C87.1374 93.4342 60.1422 92.2102 47.3758 73.7474C44.1421 69.0738 42.3397 63.699 41.3574 58.1144C41.5289 35.3912 63.2511 19.3513 85.0575 25.612C99.5608 29.7754 109.477 43.2641 109.518 58.3492ZM61.667 74.5174C61.6577 74.58 61.4488 74.7741 61.4238 75.084C61.1588 78.3803 62.1878 80.7782 65.7427 81.0849C72.2257 81.6484 79.6161 80.7343 86.1895 80.9722C89.1113 80.0644 90.4054 77.5038 88.9773 74.7491C88.5095 73.8476 87.1281 72.4044 86.0585 72.4044H71.7018C71.9325 71.7126 72.6342 71.0021 73.1081 70.4198C77.1058 65.5146 82.7344 60.0271 86.1302 54.9058C91.9677 46.1033 85.1292 34.9561 74.6829 36.1519C68.5928 36.8468 63.2605 42.4157 63.0516 48.617C62.8426 54.8182 70.6883 55.1531 71.6456 50.2072C71.9169 48.8079 71.577 48.0316 72.5313 46.6448C75.4126 42.4721 82.1201 45.5742 78.6962 50.4889C73.791 57.5322 62.799 66.0655 61.6608 74.5112L61.667 74.5174Z" fill="#9F9F9E"/>
<path d="M109.518 58.3491C109.583 84.4249 82.1262 101.182 59.0943 88.6978C47.8341 82.5936 41.2638 70.9268 41.3604 58.1143C42.3396 63.6988 44.1451 69.0736 47.3788 73.7472C60.1452 92.21 87.1404 93.434 101.578 76.2672C105.928 71.0927 108.286 64.9635 109.521 58.3491H109.518Z" fill="#898A8A"/>
<path d="M61.666 74.5172C62.8042 66.0715 73.7963 57.5351 78.7014 50.495C82.1253 45.5803 75.4178 42.475 72.5365 46.6509C71.5791 48.0376 71.919 48.814 71.6509 50.2132C70.6967 55.1592 62.8447 54.9463 63.0568 48.623C63.2688 42.2997 68.598 36.8529 74.6881 36.158C85.1345 34.9622 91.9698 46.1093 86.1355 54.9119C82.7396 60.0331 77.111 65.5206 73.1134 70.4259C72.6394 71.0081 71.9378 71.7187 71.707 72.4105H86.0637C87.1333 72.4105 88.5147 73.8536 88.9825 74.7551C87.888 75.6661 87.3828 76.4643 85.833 76.6302C79.4124 77.322 71.8286 76.1043 65.2802 76.6427C64.6035 76.6427 63.7865 76.2702 63.2314 75.8883C62.5547 75.4219 62.3739 74.6675 61.6754 74.5235L61.666 74.5172Z" fill="#E0E0E0"/>
<path d="M61.6667 74.5166C62.3652 74.6637 62.546 75.415 63.2227 75.8815C63.7778 76.2634 64.5948 76.6327 65.2715 76.6359C71.8199 76.0974 79.4037 77.3152 85.8243 76.6234C87.3741 76.4574 87.8824 75.6592 88.9738 74.7483C90.402 77.503 89.1079 80.0636 86.186 80.9714C79.6126 80.7304 72.2222 81.6476 65.7392 81.0841C62.1843 80.7742 61.1553 78.3795 61.4203 75.0832C61.4453 74.7733 61.6542 74.5792 61.6636 74.5166H61.6667Z" fill="#CECECE"/>
</svg>
