<svg width="150" height="150" viewBox="0 0 150 150" fill="none" xmlns="http://www.w3.org/2000/svg">
<path d="M79.1728 15.1293C101.812 16.8854 119.668 37.4329 118.848 60.0682C118.258 59.9368 118.355 60.3656 118.265 60.7601C116.347 69.1055 114.526 74.9279 109.039 81.7145C89.8359 105.458 52.3777 102.077 37.5897 75.4413C34.8459 70.5016 33.817 66.2037 32.6104 60.7601C32.5231 60.3656 32.6104 59.9368 32.0274 60.0682C31.2074 37.3984 48.9231 17.1609 71.4716 15.1293C73.5294 14.9446 77.0963 14.9696 79.1728 15.1293ZM41.3654 57.9615C40.9071 72.5927 50.401 86.3035 64.2911 91.0272C86.8615 98.7027 109.99 81.7645 109.516 57.9615C109.061 35.3011 87.4601 19.4836 65.6942 25.8319C51.2802 30.0359 41.8362 43.0268 41.3685 57.9615H41.3654Z" fill="#E49241"/>
<path d="M73.5729 107.583C70.5298 116.408 67.4213 125.217 64.3564 134.035C64.0914 134.767 63.577 135.171 62.7726 134.93L52.5771 125.235C47.9065 125.442 43.2172 126.462 38.5716 126.422C38.3378 126.234 37.9792 125.962 37.9013 125.674C37.7516 125.104 38.98 121.892 39.2607 121.041C41.7331 113.54 44.6234 106.137 47.1988 98.6934C55.0995 103.943 64.026 107.152 73.5698 107.587L73.5729 107.583Z" fill="#3F76B8"/>
<path d="M103.68 98.6877C106.258 106.132 109.145 113.538 111.618 121.035C112.182 122.747 114.352 126.757 111.262 126.56L98.3044 125.23L88.1089 134.924C87.3045 135.165 86.7901 134.762 86.525 134.029C83.4602 125.211 80.3516 116.402 77.3086 107.578C86.8586 107.155 95.7945 103.944 103.68 98.6846V98.6877Z" fill="#3F76B8"/>
<path d="M32.0312 60.0681C32.6174 59.9367 32.527 60.3655 32.6143 60.7599C33.8209 66.2036 34.8498 70.4984 37.5935 75.4412C52.3816 102.077 89.8398 105.458 109.043 81.7144C114.53 74.9309 116.351 69.1085 118.269 60.7599C118.359 60.3655 118.262 59.9367 118.852 60.0681C118.39 72.818 111.967 85.6085 101.816 93.306C94.6413 98.7465 84.6984 102.13 75.6753 102.199C75.5194 102.199 75.3635 102.199 75.2076 102.199C66.2437 102.13 56.2073 98.7152 49.0673 93.306C38.9062 85.6022 32.4927 72.8399 32.0312 60.0681Z" fill="#E08431"/>
<path d="M101.811 93.3066C102.818 94.9281 103.067 96.9253 103.679 98.6908C95.7904 103.953 86.8545 107.165 77.3076 107.584C76.7027 105.834 75.9233 104.028 75.6738 102.2C84.697 102.131 94.6399 98.744 101.814 93.3066H101.811Z" fill="#3C6AAE"/>
<path d="M75.2079 102.2C74.9585 104.028 74.179 105.834 73.5741 107.584C64.0303 107.149 55.1038 103.937 47.2031 98.6908C47.8142 96.9284 48.0637 94.9281 49.0707 93.3066C56.2076 98.719 66.244 102.131 75.211 102.2H75.2079Z" fill="#3C6AAE"/>
<path d="M109.513 57.9619C109.061 59.718 108.874 61.5367 108.412 63.296C99.5791 96.9251 50.6659 96.5463 42.3162 62.745C41.9233 61.1611 41.7986 59.5302 41.3652 57.965C41.8329 43.0302 51.277 30.0425 65.6909 25.8354C87.4568 19.4871 109.057 35.3015 109.513 57.965V57.9619ZM88.7414 66.6235C88.5481 63.4337 87.2542 61.086 85.4707 58.5441C93.9794 48.4207 85.0405 33.3638 72.0233 36.635C66.9038 37.9215 62.6822 42.7423 62.1615 48.045C61.4849 54.9537 69.2391 55.4795 70.5454 50.8373C71.0911 48.9027 70.5361 47.4878 72.3943 45.9039C76.5785 42.3384 82.4651 47.8384 79.4065 52.2334C77.2177 55.3762 73.8223 53.1881 71.936 56.3279C71.01 57.8711 70.8604 59.5865 71.936 61.1267C73.6664 63.6153 76.1795 62.3412 78.3183 63.8563C79.0697 64.3885 79.288 65.0552 79.8741 65.6907C79.8679 66.6141 80.2826 67.6628 80.0924 68.8366C79.5062 72.4929 74.4833 73.6073 71.9391 70.9559C70.3459 69.2937 71.1597 67.4562 70.1994 65.6781C68.5001 62.529 64.0166 62.6355 62.6011 65.9254C62.4982 65.9599 62.3891 66.0569 62.3673 66.1602C62.3361 66.3011 62.4016 66.492 62.3673 66.6298C61.4444 70.4519 63.842 75.5011 66.8227 77.9615C76.0766 85.6058 89.4647 78.5845 88.7414 66.6298V66.6235Z" fill="#CD7432"/>
<path d="M109.514 57.9621C109.991 81.7651 86.8596 98.7064 64.2893 91.0277C50.3992 86.3041 40.9052 72.5901 41.3636 57.9621C41.7969 59.5273 41.9217 61.1582 42.3145 62.7421C50.6673 96.5434 99.5805 96.9221 108.41 63.2931C108.872 61.5338 109.059 59.7151 109.511 57.959L109.514 57.9621Z" fill="#BD6830"/>
<path d="M88.7424 66.6236L86.1358 71.3817C79.1299 80.4033 65.6015 77.37 62.3714 66.6236C62.4057 66.489 62.3402 66.2981 62.3714 66.1541C62.4555 66.0915 62.5647 66.0132 62.6052 65.9193C64.0176 62.6325 68.5042 62.526 70.2035 65.672C71.1638 67.45 70.35 69.2844 71.9432 70.9497C74.4843 73.6011 79.5103 72.4867 80.0965 68.8305C80.2836 67.6566 79.872 66.6111 79.8782 65.6845C79.8907 63.7813 80.7169 62.5041 79.4106 60.6541C77.1314 57.4236 73.577 59.787 71.9432 56.3217C73.8296 53.182 77.2249 55.3701 79.4137 52.2273C82.4754 47.8323 76.5858 42.3323 72.4016 45.8977C70.5433 47.4817 71.0983 48.8966 70.5527 50.8311C69.2463 55.4734 61.4921 54.9475 62.1687 48.0389C62.6894 42.7361 66.911 37.9154 72.0305 36.6289C85.0477 33.3577 93.9866 48.4145 85.4779 58.538C87.2614 61.0798 88.5553 63.4276 88.7486 66.6174L88.7424 66.6236Z" fill="#E9A360"/>
<path d="M62.3714 66.623C65.6015 77.3695 79.1299 80.4027 86.1358 71.3811L88.7423 66.623C89.4657 78.5778 76.0775 85.5991 66.8237 77.9548C63.8461 75.4944 61.4453 70.4452 62.3682 66.623H62.3714Z" fill="#E69958"/>
<path d="M79.875 65.6841C79.2888 65.0518 79.0705 64.3819 78.3191 63.8497C76.1803 62.3378 73.6704 63.6087 71.9368 61.1201C70.8643 59.5768 71.0139 57.8614 71.9368 56.3213C73.5706 59.7866 77.125 57.4232 79.4042 60.6537C80.7105 62.5037 79.8843 63.784 79.8718 65.6841H79.875Z" fill="#E69958"/>
<path d="M62.3711 66.1537C62.3929 66.0504 62.502 65.9565 62.6049 65.9189C62.5644 66.0129 62.4553 66.0911 62.3711 66.1537Z" fill="#E69958"/>
</svg>
