<svg width="150" height="150" viewBox="0 0 150 150" fill="none" xmlns="http://www.w3.org/2000/svg">
<path d="M66.5473 54.7295C84.0433 54.699 102.413 54.0451 119.804 54.7295C121.451 54.7939 122.562 54.6177 123.951 55.7832C127.309 58.6021 125.134 63.7756 120.821 63.6062H34.3404C23.9831 63.7011 19.5075 77.2161 27.7675 83.4942C32.0975 86.784 41.0928 85.6422 46.5137 85.6727C71.2771 85.8048 96.0573 85.5744 120.821 85.6727C125.954 85.5846 127.57 93.4178 122.342 94.8035C109.501 94.7391 96.447 95.0644 83.5385 95.0576C74.4144 95.0542 65.2734 95.0339 56.1494 95.0576C48.2552 95.0779 39.2971 94.5121 31.5486 95.0576C26.3107 94.0344 21.4014 91.9101 17.8473 87.8377C7.17155 75.6 15.269 56.5387 31.0404 54.7363C42.8715 54.7194 54.7162 54.7566 66.5473 54.7363V54.7295Z" fill="#EFC267"/>
<path d="M119.81 54.7298C102.415 54.0454 84.0487 54.6993 66.5527 54.7298C69.1819 54.1877 71.7602 53.5643 74.1657 52.3242C91.1738 43.5763 87.4232 19.2229 68.9176 14.9438C68.4602 14.8387 67.9249 15.1911 68.074 14.4051C84.1368 14.4051 101.789 13.4937 117.651 14.4051C136.625 15.4994 145.203 38.047 130.33 50.1559C127.291 52.6292 123.574 53.8387 119.81 54.7264V54.7298Z" fill="#7054F7"/>
<path d="M31.5459 95.051C39.291 94.5055 48.2525 95.0713 56.1466 95.051L67.8118 106.716C67.7813 106.784 67.8423 106.899 67.8118 106.97C62.1198 120.102 71.1964 133.682 85.057 134.867V135.376C68.154 134.569 50.2413 136.453 33.45 135.376C19.0406 134.447 8.82223 121.027 14.7615 107.055C17.5363 100.523 24.4513 95.5524 31.5459 95.0543V95.051Z" fill="#7CB114"/>
<path d="M34.3413 63.8565H120.822V85.6655C96.0582 85.5672 71.2779 85.7976 46.5146 85.6655L27.7651 66.4823C27.5618 65.3473 33.2605 63.7007 34.3413 63.8531V63.8565Z" fill="#D9D9D9"/>
<path d="M68.0672 14.4047C67.9181 15.1874 68.4534 14.8384 68.9108 14.9434C87.4164 19.2226 91.167 43.576 74.1589 52.3239C71.7534 53.5606 69.1751 54.1874 66.546 54.7295C54.7149 54.7498 42.8702 54.7125 31.0391 54.7295C26.577 54.3602 21.3289 55.2275 16.9651 54.7295C11.9406 54.1569 11.2562 46.1306 17.8527 45.5986H65.0247C77.425 43.0982 77.3099 25.8869 64.6521 24.0336L17.8527 24.0438C11.8627 23.4407 11.2528 15.9328 17.026 14.4657C34.0375 14.3539 51.0591 14.4081 68.0672 14.4047Z" fill="#A08FF2"/>
<path d="M65.0255 45.5992L17.8535 45.3451V24.0409L64.6528 24.0308C77.3106 25.884 77.4258 43.0988 65.0255 45.5958V45.5992Z" fill="#E6E7E7"/>
<path d="M132.995 104.182V125.486L86.7178 125.479C83.1536 122.606 80.189 118.879 76.6959 115.847C76.6858 115.681 76.6959 115.508 76.6959 115.339C76.6858 109.725 80.5278 105.171 86.0233 104.25C101.378 103.325 117.763 105.239 132.995 104.179V104.182Z" fill="#D9D9D9"/>
<path d="M132.994 104.182C117.757 105.243 101.376 103.329 86.0214 104.253C80.526 105.172 76.6839 109.729 76.6941 115.343L67.8174 106.974C67.8479 106.903 67.7869 106.791 67.8174 106.72C68.39 105.477 70.2026 102.868 71.1208 101.784C74.3123 98.0127 78.7541 95.9494 83.5414 95.0549C96.4499 95.0617 109.504 94.7364 122.345 94.8008C125.509 94.8177 131.442 94.6619 134.369 95.0752C139.268 95.7698 139.57 103.725 132.997 104.182H132.994Z" fill="#A9E435"/>
<path d="M132.995 125.991C133.164 125.997 133.333 125.977 133.503 125.991C133.587 125.997 133.672 125.98 133.757 125.991C137.263 126.373 139.215 130.365 137.165 133.329C136.064 134.921 134.462 135.26 132.629 135.386C120.94 136.189 107.371 135.359 95.4616 135.375C95.5666 134.793 95.4108 134.542 95.0957 134.091C93.6252 131.984 89.9018 129.131 87.9739 127.007C87.6894 126.692 87.3404 126.489 87.3438 125.987C102.427 126.492 117.958 125.313 132.995 125.987V125.991Z" fill="#A9E435"/>
<path d="M76.6899 115.342C76.6899 115.512 76.6798 115.681 76.6899 115.85C77.0897 121.502 81.8669 125.554 87.342 125.994C87.3352 126.496 87.6842 126.699 87.9722 127.014C89.9 129.135 93.6235 131.991 95.0939 134.098C95.409 134.549 95.5614 134.8 95.4598 135.383C92.2513 135.386 89.0327 135.383 85.8242 135.383C85.9427 134.637 85.6344 134.925 85.0618 134.874C71.2013 133.689 62.1247 120.109 67.8166 106.977L76.6933 115.346L76.6899 115.342Z" fill="#A9E435"/>
<path d="M132.994 125.486V125.994C117.961 125.32 102.431 126.499 87.3435 125.994C81.8684 125.554 77.0912 121.502 76.6914 115.851C80.1845 118.88 83.1491 122.61 86.7133 125.483L132.991 125.49L132.994 125.486Z" fill="#E7E1D7"/>
<path d="M120.822 63.603H34.3418V63.8571H120.822V63.603Z" fill="#EDECED"/>
<path d="M65.0255 45.5993H17.8535V45.3452L65.0255 45.5993Z" fill="#F9F8F8"/>
<path d="M85.0645 134.867C85.637 134.915 85.9453 134.63 85.8268 135.376C85.5727 135.376 85.3186 135.376 85.0645 135.376V134.867Z" fill="#EFC268"/>
<path d="M133.758 125.991C133.673 125.981 133.589 125.998 133.504 125.991L133.629 125.744L133.755 125.991H133.758Z" fill="#E7E1D7"/>
<path d="M34.3424 63.603V63.8571C33.265 63.7047 27.5663 65.3513 27.7662 66.4863L46.5157 85.6695C41.0948 85.639 32.0995 86.7808 27.7695 83.4909C19.5094 77.2163 23.9851 63.7013 34.3424 63.603Z" fill="#E6E6E6"/>
<path d="M83.5415 95.0509C78.7541 95.9453 74.3124 98.0087 71.1208 101.78C70.2027 102.864 68.3867 105.476 67.8175 106.716L56.1523 95.0509C65.2764 95.0272 74.4174 95.0475 83.5415 95.0509Z" fill="#74A01C"/>
</svg>
