<svg width="150" height="150" viewBox="0 0 150 150" fill="none" xmlns="http://www.w3.org/2000/svg">
<path d="M124.418 60.0127C124.429 69.7688 124.41 79.5361 124.418 89.2922C120.272 87.4296 116.528 87.6904 112.147 87.6196C106.671 87.5302 101.173 87.6866 95.6934 87.6196V100.728C91.6256 110.402 95.3657 122.096 104.339 127.497L12.8877 127.072L12.2544 126.312C11.893 104.267 12.0123 82.1027 12.0458 60.0201H124.418V60.0127ZM65.0282 67.5412H46.6261V81.7637H65.0282V67.5412ZM89.5656 67.5412H71.1635V81.7637H89.5656V67.5412ZM114.103 67.5412H95.7009V81.7637H114.103V67.5412ZM40.7665 87.6159H22.3644V101.838H40.7665V87.6159ZM65.0282 87.6159H46.6261V101.838H65.0282V87.6159ZM89.5656 87.6159H71.1635V101.838H89.5656V87.6159ZM40.7665 107.694H22.3644V121.917H40.7665V107.694ZM65.0282 107.694H46.6261V121.917H65.0282V107.694ZM89.5656 107.694H71.1635V121.917H89.5656V107.694Z" fill="#E4DDFF"/>
<path d="M27.1053 30.4534C27.1053 32.9529 26.6472 36.909 27.8839 39.0174C30.2233 43.0033 36.3139 42.9437 38.3143 38.7343C39.1971 36.8755 38.8209 32.681 38.8172 30.4534H97.3724C97.3649 34.6739 96.6944 41.3233 102.517 41.9007C109.837 42.6234 109.405 35.5233 109.364 30.4534C113.32 30.8818 118.512 29.8685 122.312 30.4683C123.854 30.7104 124.301 31.9918 124.432 33.3701C125.18 41.3568 124.409 51.7425 124.42 60.0085H12.0484C12.0633 50.6286 11.9031 41.2302 12.2086 31.854C12.5625 30.9488 13.4788 30.5465 14.4101 30.4422C18.3513 29.9989 23.0785 30.7849 27.1016 30.4496L27.1053 30.4534Z" fill="#876EFF"/>
<path d="M124.42 89.2888C129.848 91.7288 134.664 97.566 136.21 103.292C141.277 122.033 121.019 137.529 104.346 127.49C95.3718 122.089 91.6355 110.395 95.7033 100.721C98.6201 93.7887 104.945 89.2702 112.153 87.6162C116.534 87.687 120.278 87.4262 124.424 89.2888H124.42ZM126.57 98.5495C125.97 98.7283 125.143 100.04 124.558 100.438L112.429 115.078C108.905 116.695 105.947 107.903 101.757 108.868C100.237 109.218 99.7973 111.051 100.375 112.362L110.604 122.208C111.2 122.655 111.997 122.543 112.641 122.26C117.51 116.557 122.621 110.999 127.356 105.188C128.615 103.642 131.245 101.205 129.449 99.1827C128.805 98.4563 127.467 98.2812 126.57 98.5495Z" fill="#A9E435"/>
<path d="M109.362 30.4543C109.407 35.5204 109.835 42.6243 102.515 41.9016C96.6928 41.3279 97.3633 34.6748 97.3707 30.4543C97.3782 25.8612 96.7673 19.007 103.364 18.9995C109.962 18.9921 109.321 25.9171 109.358 30.4543H109.362Z" fill="#A9E435"/>
<path d="M38.8163 30.4548C38.82 32.6824 39.1963 36.8769 38.3134 38.7357C36.313 42.9414 30.2224 43.0047 27.8831 39.0189C26.6463 36.9104 27.1045 32.9543 27.1045 30.4548C27.1045 25.9362 26.2775 19.1304 32.8151 19.0038C39.6172 18.8734 38.8051 25.8394 38.8126 30.4548H38.8163Z" fill="#A9E435"/>
<path d="M65.0213 67.5415H46.6191V81.764H65.0213V67.5415Z" fill="#9F8DE5"/>
<path d="M89.5603 67.5415H71.1582V81.764H89.5603V67.5415Z" fill="#9F8DE5"/>
<path d="M114.099 67.5415H95.6973V81.764H114.099V67.5415Z" fill="#9F8DE5"/>
<path d="M40.7654 87.6162H22.3633V101.839H40.7654V87.6162Z" fill="#9F8DE5"/>
<path d="M65.0213 87.6162H46.6191V101.839H65.0213V87.6162Z" fill="#9F8DE5"/>
<path d="M89.5603 87.6162H71.1582V101.839H89.5603V87.6162Z" fill="#9F8DE5"/>
<path d="M40.7654 107.694H22.3633V121.917H40.7654V107.694Z" fill="#9F8DE5"/>
<path d="M65.0213 107.694H46.6191V121.917H65.0213V107.694Z" fill="#9F8DE5"/>
<path d="M89.5603 107.694H71.1582V121.917H89.5603V107.694Z" fill="#9F8DE5"/>
<path d="M112.151 87.6165C104.943 89.2742 98.6142 93.7891 95.7012 100.722V87.6128C101.177 87.6798 106.675 87.5271 112.151 87.6128V87.6165Z" fill="#C7D7DF"/>
<path d="M126.57 98.549C127.468 98.2808 128.805 98.4559 129.45 99.1823C131.249 101.209 128.615 103.641 127.356 105.187C122.621 110.998 117.511 116.556 112.642 122.259C111.997 122.539 111.2 122.654 110.604 122.207L100.375 112.362C99.7939 111.051 100.237 109.218 101.757 108.868C105.951 107.903 108.906 116.69 112.429 115.077L124.558 100.438C125.143 100.039 125.97 98.7279 126.57 98.549Z" fill="#F3F9FD"/>
</svg>
