<svg width="25" height="25" viewBox="0 0 25 25" fill="none" xmlns="http://www.w3.org/2000/svg">
<path d="M17.1341 24.1664C15.6562 24.7536 14.0295 25.0041 12.4473 24.9999V16.2497L19.3147 9.4129C19.1268 9.09145 17.2524 7.16828 17.0965 7.19472L12.4473 11.7702V0.000279909C26.1891 -0.0846062 29.7139 19.1623 17.1341 24.1664Z" fill="#59A748"/>
<path d="M12.4454 0V11.8743L10.8451 13.3257L7.7196 10.3199C7.44825 10.6149 5.54457 12.3502 5.57797 12.5381L10.8451 17.8052L12.4454 16.3538V24.9997C10.955 24.9955 9.14597 24.7325 7.75857 24.1661C-4.76283 19.066 -1.35626 0.0848861 12.4454 0Z" fill="#71AF47"/>
<path d="M12.4414 16.2496V11.7701L17.0907 7.19463C17.2465 7.1668 19.121 9.09136 19.3088 9.41282L12.4414 16.2496Z" fill="#D6E7F7"/>
<path d="M12.446 11.8747V16.3542L10.8457 17.8056L5.57856 12.5385C5.54516 12.352 7.44884 10.6167 7.72019 10.3203L10.8457 13.3261L12.446 11.8747Z" fill="#EBF3F8"/>
</svg>
