<svg width="150" height="150" viewBox="0 0 150 150" fill="none" xmlns="http://www.w3.org/2000/svg">
<path d="M90.171 16.8601C90.0457 17.4195 90.4853 17.3802 90.7828 17.5953C108.242 30.2275 116.698 48.5042 114.418 70.1821C114.375 70.5881 114.216 71.2542 114.638 71.5105C113.232 72.3879 111.424 74.0586 110.189 75.2204C113.563 57.3591 105.379 39.7204 90.171 30.2144C70.5548 17.9545 44.716 23.6851 31.6442 42.5005C15.7772 65.3403 25.3673 97.4914 51.1219 107.615C56.9535 109.907 63.2266 111.138 69.5445 110.84C71.3462 110.756 73.2582 110.212 75.0954 110.335C74.6633 110.799 73.9205 111.923 73.3649 112.561C73.348 112.582 73.0637 112.5 72.8635 112.734C71.5744 114.232 71.4397 115.639 71.1404 117.506C63.7036 119.104 56.0723 119.124 48.6 117.68L40.2484 115.527C27.1428 108.049 17.2552 95.4522 13.6762 80.6628C12.984 77.8023 12.6771 74.8762 12.0728 72.0044C12.2412 69.0222 11.8446 65.8062 12.0728 62.8539C15.0101 24.7552 55.3595 1.32051 90.171 16.8601Z" fill="#7054F7"/>
<path d="M82.2612 137.783C80.7476 137.947 79.2416 138.224 77.7149 138.299L77.3183 138.524H73.8591C67.6833 136.288 69.5747 130.69 70.151 125.665L82.2612 137.783Z" fill="#787876"/>
<path d="M130.948 99.2051C119.509 111.042 107.642 122.47 96.1064 134.213C95.9642 134.479 95.4553 134.486 95.3599 134.567C94.8753 134.572 94.6733 134.234 94.3683 133.953C90.9296 130.789 87.7884 127.235 84.4863 123.933L119.58 88.0752C123.324 91.8207 127.159 95.5045 130.95 99.2032L130.948 99.2051Z" fill="#7CB114"/>
<path d="M122.793 69.2841C135.687 69.2037 143.172 83.6413 135.745 94.238C134.405 96.1481 132.546 97.5532 130.948 99.2052C127.158 95.5064 123.322 91.8226 119.579 88.0771L108.705 77.1961C108.973 76.9379 109.669 75.7068 110.189 75.2185C111.423 74.0567 113.231 72.3879 114.638 71.5086C117.019 70.0231 120.009 69.3009 122.793 69.2822V69.2841Z" fill="#DF6F6F"/>
<path d="M122.794 69.2844C120.008 69.3012 117.02 70.0234 114.638 71.5107C114.216 71.2563 114.376 70.5884 114.418 70.1824C116.698 48.5026 108.242 30.2278 90.7827 17.5956C90.4852 17.3805 90.0437 17.4197 90.1709 16.8604C99.1212 20.8547 106.631 26.8845 112.369 34.8339C119.533 44.7608 123.319 56.9777 122.794 69.2844Z" fill="#2E32C1"/>
<path d="M73.3647 112.56C73.359 113.048 73.6995 113.246 73.9783 113.553C77.2673 117.179 81.0259 120.473 84.4871 123.935C87.9482 127.396 90.9304 130.791 94.3691 133.955C94.674 134.236 94.878 134.574 95.3606 134.569C95.3232 134.6 95.2821 135.085 94.8649 135.426C92.9603 136.986 85.0708 137.478 82.2626 137.783L70.1523 125.665C70.2609 124.715 70.2777 123.609 70.3993 122.698C70.6275 120.997 70.8689 119.201 71.1402 117.504C71.4395 115.637 71.5742 114.228 72.8633 112.732C73.0653 112.498 73.3478 112.58 73.3647 112.56Z" fill="#FAF2BA"/>
<path d="M90.1705 30.2129C105.381 39.7188 113.562 57.3575 110.189 75.2188C109.669 75.7071 108.973 76.9382 108.705 77.1964C97.6634 87.8698 85.5682 99.0782 75.0931 110.333C73.2559 110.21 71.3438 110.753 69.5422 110.839C63.2242 111.136 56.9511 109.907 51.1196 107.613C46.8764 104.302 42.7399 100.685 39.6492 96.2158C26.2087 76.7885 30.5492 50.3548 49.4114 36.2914C61.0801 27.5899 76.4177 25.4907 90.1687 30.211L90.1705 30.2129ZM47.4133 87.3366C49.7538 89.6976 52.9568 89.634 55.5479 87.6864C61.0839 83.5256 66.2606 76.0196 71.761 71.5126C72.6347 70.42 73.2484 69.3555 73.3737 67.9336C74.3204 57.3313 72.6628 45.3109 73.3419 34.5608C72.7881 31.9303 70.6778 29.8574 67.9257 29.7171C64.7246 29.5543 62.1802 31.4813 61.5647 34.6038L61.4506 64.6577C57.3253 69.5276 51.7388 73.7371 47.6547 78.549C45.3404 81.2749 44.6875 84.5845 47.4133 87.3347V87.3366Z" fill="#E4EDF4"/>
<path d="M108.706 77.1978L119.58 88.0788L84.4858 123.936C81.0246 120.475 77.2679 117.179 73.977 113.555C73.6982 113.248 73.3577 113.05 73.3633 112.561C73.919 111.923 74.6599 110.801 75.0939 110.335C85.569 99.0796 97.6643 87.8711 108.706 77.1978Z" fill="#A9E435"/>
<path d="M90.1703 30.2128C76.4193 25.4926 61.0818 27.5917 49.4131 36.2932C30.5527 50.3566 26.2104 76.7903 39.6508 96.2176C42.7434 100.685 46.878 104.302 51.1212 107.615C25.3647 97.4898 15.7746 65.3387 31.6416 42.4989C44.7134 23.6816 70.5541 17.9529 90.1684 30.2128H90.1703Z" fill="#CFE0EE"/>
<path d="M71.1401 117.504C70.8688 119.199 70.6275 120.995 70.3992 122.698C59.6491 123.241 49.537 120.827 40.248 115.527L48.5997 117.68C56.072 119.125 63.7052 119.104 71.1401 117.506V117.504Z" fill="#2E32C1"/>
<path d="M67.9254 29.719C68.8028 30.6938 69.2986 31.9753 69.4184 33.2943C70.3594 43.5785 68.685 55.2753 69.4184 65.7092C69.308 66.9852 68.8159 68.2405 67.931 69.1666C62.2566 73.9149 57.0593 81.2469 51.3699 85.7314C50.0528 86.7698 48.9846 86.9157 47.413 87.3366C44.6871 84.5864 45.3401 81.2787 47.6544 78.551C51.7385 73.7391 57.325 69.5277 61.4503 64.6597L61.5644 34.6058C62.1799 31.4851 64.7243 29.5563 67.9254 29.719Z" fill="#A9E435"/>
<path d="M47.4141 87.3364C48.9856 86.9154 50.0539 86.7695 51.371 85.7312C57.0622 81.2466 62.2577 73.9146 67.9321 69.1663C68.8188 68.2403 69.309 66.9849 69.4194 65.709C68.686 55.275 70.3605 43.5783 69.4194 33.294C69.2997 31.975 68.8039 30.6935 67.9264 29.7188C70.6785 29.8591 72.787 31.932 73.3426 34.5625C72.6635 45.3126 74.3192 57.333 73.3745 67.9353C73.2472 69.3572 72.6355 70.4198 71.7618 71.5143C66.2614 76.0213 61.0846 83.5273 55.5487 87.6881C52.9575 89.6357 49.7545 89.6993 47.4141 87.3382V87.3364Z" fill="#7CB114"/>
</svg>
