<svg width="50" height="50" viewBox="0 0 50 50" fill="none" xmlns="http://www.w3.org/2000/svg">
<path d="M28.4104 26.3175C28.4127 27.1957 28.4092 28.0763 28.4104 28.9546C29.7278 28.9569 31.0487 28.9511 32.366 28.9546V47.4988H16.5458C16.5352 42.1976 16.5587 36.8917 16.5458 31.5905L21.9914 31.587C22.5069 28.5754 25.367 26.2987 28.4104 26.3175Z" fill="#DEDCE7"/>
<path d="M6 47.4993V28.9551H16.546C16.5472 29.8322 16.5437 30.7139 16.546 31.5922C16.559 36.8934 16.5355 42.1993 16.546 47.5005H6V47.4993ZM13.9101 34.2281H11.273V36.8652H13.9101V34.2281Z" fill="#3C3C3C"/>
<path d="M36.3236 28.9548C39.4151 29.0769 42.0945 30.9567 42.7696 34.0658C43.103 35.6016 43.0502 39.8954 42.914 41.565C42.7262 43.8698 41.0436 46.0913 38.9325 46.9871L37.203 47.4991H32.3691V28.9548C33.6724 28.9583 35.0285 28.9032 36.3236 28.9548Z" fill="#CCC8DF"/>
<path d="M36.3236 22.8902C35.0767 23.3857 33.7041 23.597 32.3691 23.5935V16.2106L38.1635 10.4421C38.005 10.1708 36.4234 8.54818 36.2919 8.57049L32.3691 12.431V2.50024C43.9637 2.42861 46.9378 18.668 36.3236 22.8902Z" fill="#59A748"/>
<path d="M32.3679 2.5V12.5189L31.0176 13.7435L28.3805 11.2074C28.1516 11.4563 26.5454 12.9204 26.5736 13.0789L31.0176 17.523L32.3679 16.2984V23.5933C31.1104 23.5897 29.584 23.3678 28.4134 22.89C17.8486 18.5868 20.7229 2.57162 32.3679 2.5Z" fill="#71AF47"/>
<path d="M32.3684 23.5939V28.955C31.0511 28.9515 29.7302 28.9573 28.4128 28.955C28.4128 28.0768 28.4151 27.1962 28.4128 26.3179C28.4104 25.1767 28.4151 24.0319 28.4128 22.8906C29.5846 23.3673 31.1109 23.5892 32.3673 23.5939H32.3684Z" fill="#3C3C3C"/>
<path d="M36.3236 22.8906V28.955C35.0274 28.9033 33.6724 28.9585 32.3691 28.955V23.5939C33.7041 23.5986 35.0767 23.3873 36.3236 22.8906Z" fill="#2E2E2E"/>
<path d="M13.9125 34.2275H11.2754V36.8646H13.9125V34.2275Z" fill="#DEDCE7"/>
<path d="M32.3652 16.2106V12.4311L36.288 8.57056C36.4195 8.54708 38.0011 10.1709 38.1596 10.4421L32.3652 16.2106Z" fill="#D6E7F7"/>
<path d="M32.3689 12.5195V16.299L31.0187 17.5237L26.5746 13.0796C26.5464 12.9222 28.1526 11.4581 28.3816 11.208L31.0187 13.7441L32.3689 12.5195Z" fill="#EBF3F8"/>
</svg>
