<svg width="150" height="150" viewBox="0 0 150 150" fill="none" xmlns="http://www.w3.org/2000/svg">
<path d="M132.613 13C133.821 13.5462 134.81 14.751 134.435 16.1389L126.958 32.9614C126.605 33.0546 126.566 32.7301 126.399 32.563C125.715 31.869 122.952 27.4738 122.634 27.4449C116.333 31.9365 110.303 36.8264 103.916 41.1862C102.47 41.9991 100.905 41.4786 99.6845 40.518L92.3399 33.9124L91.4275 33.726L57.1111 59.3131C55.842 59.9203 54.7079 59.9235 53.4292 59.3549L45.3007 53.289L44.5232 53.2023L19.4534 71.7114L15.2285 66.2914C15.0229 66.0344 14.8944 65.7131 15.1161 65.4303L43.2895 44.534C44.1634 44.126 45.2943 44.1517 46.2067 44.4537L54.7015 50.6416L55.6621 50.6641L90.1198 24.9903C91.4339 24.3895 92.4813 24.3381 93.776 25.0257C96.0122 26.2112 99.0676 29.8096 101.233 31.5188C101.628 31.8305 102.425 32.5758 102.859 32.4602L117.596 21.4241C117.786 21.1638 117.683 20.9743 117.583 20.714C117.076 19.4096 114.402 17.1189 113.969 15.8916C113.859 15.5831 113.763 15.5349 114.084 15.2811L128.365 13.4498L130.206 13.0032H132.613V13Z" fill="#DF6F6F"/>
<path d="M114.818 136.136C112.299 134.76 111.181 133.44 110.959 130.494V55.4418C111.068 54.2627 111.335 53.1286 111.971 52.123L114.577 49.7969C118.438 49.8451 123.502 49.6941 127.213 50.0282C129.404 50.2242 130.898 51.535 131.585 53.5912C132.26 79.5349 131.775 105.626 131.83 131.621C131.611 133.53 129.687 135.644 127.817 136.026C124.861 136.634 118.165 136.168 114.818 136.132V136.136Z" fill="#876EFF"/>
<path d="M76.8183 136.135C74.5886 135.242 73.0754 133.935 72.7284 131.448L72.7188 73.2375C72.9212 70.542 74.3059 68.9388 76.8183 68.0777C80.1211 68.0456 86.6625 67.5829 89.5797 68.1838C91.2857 68.534 92.6769 70.1179 93.3002 71.6793L93.3066 132.306C93.0303 133.652 91.7002 135.162 90.4504 135.705C88.3846 136.604 79.636 136.167 76.8183 136.142V136.135Z" fill="#A9E435"/>
<path d="M38.582 136.135C36.3876 135.239 34.7105 133.999 34.4824 131.454L34.4921 90.7991C34.5852 89.9798 35.1668 88.5404 35.6905 87.9107C36.4423 87.0079 37.5732 86.8794 38.341 86.1115C41.9587 86.073 46.4984 85.7999 50.0133 86.1019C52.892 86.3493 54.8615 88.1388 55.186 91.0304V131.213C55.0607 133.588 53.2647 135.679 50.9097 136.078C47.835 136.598 41.9555 136.168 38.582 136.135Z" fill="#F7DB61"/>
<path d="M114.577 49.7969L111.971 52.123C111.335 53.1254 111.068 54.2595 110.959 55.4418V130.494C111.177 133.437 112.295 134.76 114.814 136.136C109.985 136.084 103.99 137.35 103.502 130.735L103.541 54.7543C104.463 48.923 110.034 49.739 114.577 49.7969Z" fill="#5B4FD4"/>
<path d="M76.8199 68.0748C74.3107 68.9358 72.9259 70.5422 72.7203 73.2346L72.7299 131.445C73.0769 133.932 74.5902 135.242 76.8199 136.132C72.6143 136.091 66.5002 137.376 65.334 131.866L65.3854 72.1486C66.693 66.7768 72.5404 68.1133 76.8199 68.0716V68.0748Z" fill="#7CB114"/>
<path d="M38.3417 86.1116C37.5738 86.8795 36.4429 87.008 35.6911 87.9108C35.1674 88.5405 34.5859 89.9799 34.4927 90.7991L34.4831 131.454C34.7112 133.999 36.3883 135.239 38.5827 136.136C34.1008 136.094 27.8229 137.466 27.0293 131.454L27.0968 90.1373C28.5233 84.9582 34.1586 86.1566 38.3417 86.1116Z" fill="#F1C539"/>
</svg>
