<svg width="102" height="102" viewBox="0 0 102 102" fill="none" xmlns="http://www.w3.org/2000/svg">
<g clip-path="url(#clip0_307_13806)">
<path d="M18 84V12H62.1818L76.9091 25.5V84H18Z" fill="#F5F7FF"/>
<path d="M62.1819 25.5V12L76.9092 25.5H62.1819Z" fill="#E8E8F4"/>
<rect x="18" y="12" width="10.1958" height="72" fill="#E8E8F4"/>
<rect x="23.3552" y="20.5098" width="19.2793" height="2.12727" fill="#E2E2ED"/>
<rect x="23.355" y="29.019" width="19.2793" height="2.12727" fill="#E2E2ED"/>
<rect x="23.355" y="33.2729" width="19.2793" height="2.12727" fill="#E2E2ED"/>
<rect x="23.355" y="24.7642" width="2.14215" height="2.12727" fill="#E2E2ED"/>
<rect x="27.6392" y="24.7642" width="2.14215" height="2.12727" fill="#E2E2ED"/>
<rect x="31.9238" y="24.7642" width="10.7107" height="2.12727" fill="#E2E2ED"/>
</g>
<path d="M69.8557 33.5649C70.1813 33.4381 70.6335 33.3935 70.9893 33.3502C73.9032 33.0017 76.8617 32.862 79.7684 32.4961C79.8044 32.5609 79.7584 32.6589 79.7756 32.7021L78.0501 38.308C77.9622 38.1683 75.3796 36.7985 75.1391 36.7985C74.936 36.7985 74.7674 36.8489 74.596 36.9555L66.8381 41.4351C65.9321 40.9295 65.0261 40.2266 64.0352 39.9256L64.2094 39.7282C66.661 38.3743 69.039 36.8821 71.4747 35.505C71.7268 35.3625 72.2021 35.3466 72.3375 34.9678C71.4646 34.6178 70.6566 34.0661 69.8586 33.5649H69.8557Z" fill="#EE5E7F"/>
<path d="M75.1393 66.3413C75.1221 67.8019 75.2647 68.5768 74.0619 69.6311C71.959 71.4748 68.1146 71.639 65.5435 70.8699C65.5363 71.1205 65.5507 71.374 65.5435 71.6246L64.518 72.9181C62.0837 74.8367 58.7492 74.9822 55.8397 74.213C55.8296 74.4276 55.8512 74.6451 55.8397 74.8597C55.8382 74.8957 55.8426 74.9317 55.8397 74.9677C54.0003 78.7372 46.4354 78.8179 43.7592 76.2122L42.7927 74.8597C42.7999 74.3585 42.7726 73.85 42.7927 73.3502L44.1424 74.8568C46.6501 76.8561 51.7519 76.8604 54.3619 75.0556C55.1858 74.4852 55.9088 73.6671 55.8382 72.5954C58.2408 73.2105 61.0222 73.2537 63.2821 72.1158C64.3552 71.5757 65.0336 70.9376 65.4341 69.7925C65.4931 69.6211 65.5306 69.4352 65.5421 69.2538C68.7239 70.0949 73.7134 69.8659 75.1365 66.3427L75.1393 66.3413Z" fill="#FDBC21"/>
<path d="M84.7346 60.4102C82.8938 63.6035 78.3652 63.9204 75.1388 62.9985C75.1849 64.3611 73.8424 65.4745 72.6973 66.0017C70.4129 67.0532 67.849 66.8919 65.4349 66.4482C65.5343 67.8281 64.1588 68.8594 63.0281 69.378C60.5002 70.5389 56.699 70.4496 54.2979 69.015C53.4409 68.5022 52.8676 67.9304 52.4974 66.9884C52.4902 66.454 52.388 65.9456 52.3894 65.3708L53.3559 66.7234C55.3163 68.351 58.1207 68.8465 60.6082 68.4691C62.6262 68.1637 65.2679 67.1353 65.5473 64.835C67.5811 65.2369 69.7633 65.3881 71.7741 64.7544C73.298 64.2747 75.0927 63.1555 75.1402 61.381C78.3249 62.2913 83.0897 62.0378 84.7346 58.686C84.7303 59.2593 84.7447 59.8383 84.7346 60.4116V60.4102Z" fill="#FDBC20"/>
<path d="M84.7355 58.0399C83.4809 60.8904 79.5861 61.4608 76.8249 61.1526C76.2603 61.0892 75.7043 60.9092 75.1411 60.8429C74.5722 64.2652 69.8319 64.8544 67.0131 64.4957C66.7293 64.4597 65.7412 64.1543 65.6116 64.1932C65.3854 64.2595 65.4474 64.7593 65.3537 65.0186C64.5327 67.2785 60.5875 68.0549 58.4788 67.9641C56.2736 67.8691 53.3568 66.9688 52.4998 64.7247C52.5027 64.1947 52.3759 63.6891 52.3918 63.1072L53.1019 64.1759C55.5793 67.218 63.8485 67.1402 65.3811 63.3203C65.4719 63.0928 65.5208 62.8133 65.5467 62.5685C67.1398 62.9689 68.6796 63.1101 70.3144 62.8623C72.2906 62.5641 74.9495 61.5199 75.1411 59.2253L78.2149 59.6661C80.6563 59.5062 83.697 58.9401 84.7369 56.4224C84.7355 56.9596 84.7398 57.5012 84.7369 58.0399H84.7355Z" fill="#FDBC20"/>
<path d="M84.7354 60.8413C84.7095 61.9547 84.9241 62.5323 84.1938 63.4801C82.3501 65.8726 77.8143 66.1001 75.141 65.2618C75.1352 65.5125 75.1468 65.766 75.141 66.0166L74.4914 66.9298C72.2674 69.2186 68.4864 69.4461 65.5466 68.6035C65.4501 68.9939 65.3954 69.4231 65.2225 69.7904C64.5052 71.3014 61.7728 72.2477 60.2071 72.3759C59.5042 72.4335 56.1928 72.3543 55.7592 71.9222C55.7261 71.889 55.5144 71.3186 55.3487 71.0939C54.774 70.319 53.4129 69.5455 52.5011 69.2517C52.4636 68.7072 52.3988 68.1844 52.3931 67.6341L53.0427 68.5473C54.9872 71.0579 59.9781 71.2308 62.7091 70.1332C64.0616 69.5902 65.4703 68.5848 65.5481 66.9874C67.5848 67.5938 69.9744 67.6154 71.9938 66.9111C73.427 66.4113 75.0964 65.3281 75.1439 63.6457C78.2998 64.5172 83.2302 64.2536 84.7397 60.8427L84.7354 60.8413Z" fill="#FDBC21"/>
<path d="M65.5434 72.595C65.5045 73.3324 65.5635 73.6479 65.1818 74.3364C63.7299 76.9579 58.5215 77.3453 55.9476 76.4768C55.9404 76.6914 55.9533 76.9089 55.9476 77.1235C55.5889 77.2027 55.4982 77.7746 55.249 78.0972C52.9372 81.0903 45.1087 80.9665 43.1167 77.5556C42.9957 77.3497 43.0922 77.0472 42.7926 77.125C42.781 76.5877 42.7911 76.0447 42.7926 75.5074L43.4422 76.4206C45.9052 79.3734 53.1489 79.3806 55.3887 76.2967C55.7819 75.7552 55.7963 75.6198 55.8381 74.9673C55.841 74.9313 55.8367 74.8952 55.8381 74.8592C59.0041 75.6399 63.4231 75.5089 65.3259 72.4365L65.5419 72.595H65.5434Z" fill="#FDBC20"/>
<path d="M84.7349 51.3558C83.0698 54.8041 78.4044 54.8243 75.1419 54.1617C75.0022 55.7043 73.6007 56.7385 72.2554 57.2599C69.4899 58.3316 65.9134 58.1127 63.4432 56.4202L62.0935 54.9136C62.1022 54.2697 62.0705 53.6158 62.0935 52.9734C63.2444 55.906 67.3365 56.5772 70.1121 56.1941C72.1027 55.919 74.9576 54.8718 75.1391 52.5413C78.3727 53.2125 83.1159 53.1779 84.7349 49.7383C84.7349 50.2755 84.7349 50.8171 84.7349 51.3558Z" fill="#FDBC21"/>
<path d="M84.7348 53.6187C83.0712 56.9344 78.3251 57.2283 75.139 56.3136C75.0583 58.0075 73.5171 59.0374 72.0666 59.5502C69.3242 60.521 65.8226 60.302 63.3956 58.6226L62.092 57.1764C62.092 56.5311 62.0877 55.8815 62.092 55.2362C63.5252 58.7018 68.9237 59.0359 72.0062 57.9816C73.4235 57.4962 75.1231 56.3525 75.1375 54.6975C78.2905 55.6064 83.2526 55.3399 84.7334 51.8945C84.7334 52.4678 84.7348 53.0454 84.7334 53.6201L84.7348 53.6187Z" fill="#FDBC20"/>
<path d="M75.1385 36.7988V37.6616C75.0017 37.6443 74.862 37.6818 74.741 37.7452L67.6442 41.8646L67.5391 46.18L59.8806 50.5977L59.8057 54.3513L51.7597 58.9188L51.7251 62.9821L43.5481 67.6359V66.7732L50.9185 62.5759C51.028 62.5255 50.9776 62.4318 50.9877 62.3526C51.149 61.1456 50.7802 59.6764 51.0957 58.4708L58.9659 53.9422C59.0884 53.8933 59.0682 53.7881 59.0797 53.6844C59.1978 52.5926 58.9789 51.2862 59.074 50.1684L66.767 45.7551C66.8765 45.7047 66.8261 45.6111 66.8362 45.5319C67.0018 44.2917 66.7137 42.7145 66.8362 41.4354L74.5941 36.9558C74.7655 36.8492 74.9354 36.7988 75.1371 36.7988H75.1385Z" fill="#DF232D"/>
<path d="M84.7346 56.423C83.6946 58.9408 80.6525 59.5068 78.2125 59.6667L75.1388 59.226C74.9458 61.5205 72.2868 62.5648 70.3121 62.8629C68.6758 63.1092 67.1375 62.9695 65.5444 62.5691C65.5185 62.8139 65.4709 63.0934 65.3788 63.321C63.8462 67.1423 55.577 67.2186 53.0995 64.1765L52.3894 63.1078C52.5061 58.6786 58.8639 58.2177 62.0932 59.226C62.8768 59.4708 63.9211 59.9548 64.5188 60.5209C64.8588 60.8435 65.3154 61.7884 65.5098 61.9022C65.7936 62.0664 67.2599 62.3199 67.6474 62.3516C70.2472 62.5604 74.7801 61.7682 75.1402 58.5792C78.3667 59.4276 83.0047 59.1914 84.736 55.8843C84.736 56.0326 84.736 56.2458 84.736 56.423H84.7346ZM58.6205 59.4737C56.9957 59.5241 53.0563 60.4849 53.2752 62.6987C53.5273 65.2468 58.2042 65.7408 60.0969 65.5852C61.7951 65.4455 65.1929 64.2615 64.6067 62.0491C64.081 60.0671 60.336 59.4204 58.6205 59.4737Z" fill="#FECF6B"/>
<path d="M84.7346 55.8818C83.0032 59.1889 78.3667 59.4251 75.1388 58.5768C74.7801 61.7658 70.2458 62.558 67.6459 62.3491C67.2584 62.3174 65.7907 62.0639 65.5084 61.8997C65.3139 61.7874 64.8573 60.841 64.5174 60.5184C63.9211 59.9523 62.8754 59.4684 62.0918 59.2235V57.4979C63.2239 60.2692 67.0078 60.9361 69.6797 60.7186C71.7668 60.5486 74.9962 59.4223 75.1388 56.9578C78.322 57.8105 83.1862 57.5771 84.7346 54.1548C84.7331 54.7281 84.7375 55.3057 84.7346 55.8804V55.8818Z" fill="#FDBC20"/>
<path d="M52.4978 69.2516C53.4096 69.5469 54.7707 70.3204 55.3454 71.0939C55.5125 71.3186 55.7242 71.8904 55.7559 71.9221C56.1909 72.3542 59.5024 72.4334 60.2038 72.3758C61.7695 72.2476 64.5019 71.2998 65.2192 69.7903H65.4353C65.0363 70.9354 64.3564 71.5735 63.2834 72.1136C61.0234 73.2515 58.242 73.2083 55.8395 72.5933C55.91 73.6649 55.187 74.4831 54.3631 75.0535C51.7531 76.8583 46.6498 76.8539 44.1436 74.8547L42.7939 73.3481C42.8588 71.7564 43.059 71.0031 44.4403 70.0885C46.5836 68.6711 50.088 68.4724 52.4978 69.2502V69.2516ZM48.0542 69.6074C46.1832 69.7975 42.3172 71.4035 44.1393 73.7831C46.078 76.3138 53.0019 76.334 54.7448 73.6016C55.779 71.9797 54.1254 70.6963 52.7426 70.1403C51.2965 69.5599 49.6026 69.4504 48.0557 69.6074H48.0542Z" fill="#FECF6B"/>
<path d="M71.6891 49.0906C72.5288 49.3484 73.9303 50.1867 74.4892 50.8724C74.7024 51.1331 74.9184 51.6905 75.1431 51.8345C75.3793 51.9872 76.1975 52.137 76.5158 52.1874C79.3346 52.6339 83.3432 52.0247 84.7346 49.1972C84.7346 49.347 84.7346 49.5587 84.7346 49.7359C83.1156 53.1755 78.3724 53.2101 75.1388 52.5389C74.9573 54.868 72.101 55.9166 70.1119 56.1917C67.3362 56.5748 63.2441 55.9036 62.0933 52.971C62.1293 51.9541 62.1091 51.4471 62.8495 50.6534C64.7436 48.6239 69.1785 48.32 71.6891 49.0892V49.0906ZM67.7856 49.4464C65.9722 49.5861 62.3713 50.6592 63.0065 53.0833C63.1303 53.5587 63.947 54.2587 64.3662 54.5266C66.6161 55.9627 71.0366 55.9439 73.1885 54.3105C74.7902 53.0963 74.613 51.6142 72.9739 50.5555C71.5234 49.6178 69.4853 49.3167 67.7856 49.4464Z" fill="#FECF6B"/>
<path d="M56.2716 52.3232C57.1834 52.8259 58.1484 53.2941 58.9666 53.9408L51.0963 58.4693C50.8126 58.4996 49.0395 57.415 48.665 57.1759C48.5253 57.0866 48.3495 57.0837 48.3999 56.8532C50.9984 55.312 53.5925 53.7103 56.2702 52.3247L56.2716 52.3232Z" fill="#EE5E7F"/>
<path d="M64.0337 44.1282C64.6185 44.0893 66.1107 45.498 66.8367 45.5297C66.8266 45.6089 66.877 45.7011 66.7675 45.753L59.0745 50.1663L56.2715 48.6568C56.3089 48.4983 57.3575 47.9222 57.601 47.7753C59.7068 46.5034 61.8919 45.3353 64.0351 44.1282H64.0337Z" fill="#EE5E7F"/>
<path d="M48.1847 60.9487C48.8415 60.9501 50.2228 62.2998 50.9877 62.3502C50.9776 62.4294 51.028 62.5216 50.9185 62.5735L43.5481 66.7707L40.7451 65.2612C40.7826 65.1028 41.8312 64.5266 42.0746 64.3797C43.6849 63.4074 46.112 61.8317 47.7511 61.1043C47.888 61.0438 48.0277 60.9473 48.1847 60.9473V60.9487Z" fill="#EE5E7F"/>
<path d="M84.7352 42.9465C83.4893 46.039 79.3323 46.4884 76.4328 46.0736C76.3565 46.062 76.2298 45.9886 76.1088 45.9655C74.2492 45.6069 72.3148 44.7859 71.6882 42.8385C71.7415 41.7222 71.8438 41.1489 72.7152 40.361C73.5867 39.5731 75.8668 38.6311 76.9715 38.7406C77.4094 38.7838 77.6946 39.1741 78.1022 39.2807C78.1944 39.2778 78.2016 38.8558 78.265 38.7406C78.2938 38.6873 78.3025 38.6513 78.373 38.6325C78.6352 38.5648 79.593 38.7031 79.9214 38.755C81.8919 39.0647 84.7496 40.2314 84.8202 42.5734C84.8245 42.7131 84.7338 42.8529 84.7352 42.945V42.9465ZM77.058 39.4204C75.197 39.6106 71.102 41.218 72.9831 43.6465C74.9248 46.1542 81.9164 46.1902 83.6391 43.4132C84.0525 42.7463 83.9675 41.9382 83.4979 41.3261C82.1771 39.6062 79.0702 39.2145 77.058 39.419V39.4204Z" fill="#FECF6D"/>
<path d="M43.01 77.769C43.0633 78.7816 44.8595 79.8576 45.7079 80.1932C48.2833 81.2116 52.8378 81.0776 54.9277 79.0668L55.949 77.7705C55.9058 78.8378 55.9591 79.4788 55.2489 80.3588C52.9126 83.2569 45.5653 83.2122 43.3341 80.1961C42.7493 79.4053 42.8285 78.6866 42.7954 77.7705H43.0115L43.01 77.769Z" fill="#FDBC22"/>
<path d="M84.7347 46.9341C83.182 50.1 78.4921 50.5451 75.44 49.7068C74.3467 49.4072 72.9207 48.7662 72.2668 47.8127C72.0781 47.5376 72.0925 47.0637 71.6892 47.0421C71.6892 46.6114 71.6892 46.1779 71.6892 45.7486L71.9053 45.6406C72.5376 46.9225 73.5156 47.2913 74.7082 47.7969C75.2023 48.0057 75.5062 48.1051 75.8764 48.6222C75.9715 48.7547 76.1933 49.5426 76.4338 49.1235C76.539 48.942 76.5678 48.6669 76.755 48.4119C76.8256 48.3168 76.961 48.3471 76.9711 48.3356C77.0834 48.5142 77.3801 48.4436 77.5631 48.445C80.2523 48.4782 83.5983 48.0144 84.7347 45.2085C84.7362 45.7818 84.7333 46.3594 84.7347 46.9341Z" fill="#FDBC20"/>
<path d="M84.7346 58.6882C83.0897 62.0414 78.3249 62.2935 75.1402 61.3832C75.0927 63.1577 73.2965 64.2769 71.774 64.7566C69.7647 65.3903 67.5811 65.2391 65.5473 64.8372C65.2693 67.1375 62.6276 68.1645 60.6082 68.4713C58.1207 68.8487 55.3163 68.3532 53.3559 66.7256L52.3894 65.373C52.3894 65.1152 52.4974 64.7652 52.4974 64.7263C53.3559 66.9704 56.2727 67.8707 58.4764 67.9657C60.5852 68.0565 64.5304 67.2815 65.3514 65.0201C65.445 64.7609 65.3831 64.2625 65.6092 64.1948C65.7403 64.1559 66.7269 64.4613 67.0107 64.4973C69.8295 64.8559 74.5684 64.2668 75.1388 60.8445C75.702 60.9107 76.2594 61.0922 76.8226 61.1542C79.5852 61.461 83.4786 60.892 84.7332 58.0415C84.7332 58.2216 84.7346 58.4679 84.7332 58.6882H84.7346Z" fill="#FECF69"/>
<path d="M84.7347 47.4723C84.7347 48.0456 84.7347 48.6232 84.7347 49.1979C83.3433 52.0254 79.3348 52.6346 76.5159 52.1881C76.1976 52.1377 75.3809 51.9879 75.1432 51.8352C74.9185 51.6897 74.7025 51.1338 74.4893 50.873C73.929 50.1874 72.5275 49.3491 71.6892 49.0913V47.3657C72.9006 50.366 77.0647 51.0084 79.9239 50.5879C81.8237 50.3084 84.0146 49.3851 84.7347 47.4738V47.4723Z" fill="#FDBC21"/>
<path d="M84.7346 54.1564C83.1862 57.5787 78.322 57.8121 75.1388 56.9594C74.9962 59.4224 71.7668 60.5502 69.6797 60.7202C67.0078 60.9377 63.2239 60.2708 62.0918 57.4995V57.1754L63.3953 58.6216C65.8238 60.301 69.3239 60.52 72.0664 59.5492C73.5169 59.0364 75.0581 58.008 75.1388 56.3126C78.3234 57.2273 83.0709 56.932 84.7346 53.6177C84.7346 53.766 84.7346 53.9792 84.7346 54.1564Z" fill="#FECE68"/>
<path d="M84.7344 60.8432C83.2263 64.254 78.2959 64.5162 75.1386 63.6462C75.091 65.3286 73.4216 66.4117 71.9885 66.9115C69.9705 67.6159 67.5794 67.5957 65.5427 66.9879C65.465 68.5853 64.0563 69.5907 62.7038 70.1337C59.9728 71.2312 54.9819 71.0584 53.0374 68.5478L52.3878 67.6346C52.3849 67.3725 52.4958 67.021 52.4958 66.9879C52.866 67.9299 53.4392 68.5032 54.2963 69.0145C56.6974 70.4491 60.4985 70.5399 63.0264 69.3775C64.1571 68.8575 65.5327 67.8262 65.4333 66.4477C67.8474 66.8914 70.4098 67.0541 72.6957 66.0012C73.8408 65.474 75.1847 64.3606 75.1371 62.998C78.3621 63.9199 82.8921 63.603 84.7329 60.4097C84.7301 60.5263 84.7358 60.6905 84.7329 60.8403L84.7344 60.8432Z" fill="#FECF69"/>
<path d="M84.7346 51.8932C83.2539 55.34 78.2932 55.6065 75.1388 54.6962C75.1229 56.3511 73.4247 57.4948 72.0074 57.9802C68.925 59.0346 63.5264 58.7018 62.0933 55.2349C62.0933 55.1268 62.0933 55.0188 62.0933 54.9108L63.4429 56.4174C65.9146 58.1084 69.4896 58.3288 72.2551 57.2571C73.6005 56.7357 75.0019 55.7015 75.1417 54.1589C78.4041 54.8215 83.0681 54.8013 84.7346 51.353C84.7346 51.5057 84.7346 51.729 84.7346 51.8917V51.8932Z" fill="#FECE68"/>
<path d="M84.7348 44.6704C83.8893 46.5875 81.5933 47.5973 79.5998 47.7831C79.0193 47.8378 78.3928 47.737 77.8353 47.7975C77.8468 47.2559 77.2275 47.266 76.866 46.8799C76.6816 46.6841 76.4828 46.3441 76.4338 46.0719C79.3333 46.4882 83.4903 46.0373 84.7362 42.9448C84.7434 43.5181 84.7319 44.0957 84.7362 44.6704H84.7348Z" fill="#FDBC21"/>
<path d="M66.8381 41.4348C66.7157 42.7139 67.0038 44.2911 66.8381 45.5313C66.1122 45.4996 64.62 44.0909 64.0352 44.1298V39.9253C65.0261 40.2263 65.9321 40.9292 66.8381 41.4348Z" fill="#EE4C5A"/>
<path d="M48.4011 56.8531C48.3507 57.085 48.5249 57.0865 48.6661 57.1758C49.0406 57.4149 50.8137 58.4995 51.0975 58.4692C50.782 59.6748 51.1508 61.144 50.9894 62.351C50.2246 62.3006 48.8433 60.951 48.1865 60.9496L48.1821 56.9194C48.2066 56.7883 48.3665 56.8747 48.4025 56.8517L48.4011 56.8531Z" fill="#EE4C5A"/>
<path d="M59.0745 50.1667C58.9794 51.283 59.1998 52.5895 59.0802 53.6827C59.0687 53.7864 59.0889 53.8916 58.9664 53.9405C58.1469 53.2938 57.1832 52.8271 56.2715 52.323V48.6572L59.0745 50.1667Z" fill="#EE4C5A"/>
<path d="M84.7347 47.4742C84.0146 49.3856 81.8237 50.3075 79.9239 50.5883C77.0647 51.0104 72.8991 50.3665 71.6892 47.3662V47.0421C72.0925 47.0623 72.0781 47.5376 72.2668 47.8127C72.9207 48.7662 74.3467 49.4072 75.44 49.7068C78.4936 50.5451 83.1834 50.1 84.7347 46.9341C84.7347 47.0853 84.7347 47.2956 84.7347 47.4728V47.4742Z" fill="#FECE68"/>
<path d="M42.7939 74.8574L43.7604 76.2099C46.4352 78.8156 54.0015 78.7349 55.8409 74.9655C55.7991 75.6179 55.7847 75.7533 55.3915 76.2949C53.1517 79.3788 45.9066 79.3716 43.445 76.4188L42.7954 75.5056C42.7954 75.2895 42.7925 75.0735 42.7954 74.8589L42.7939 74.8574Z" fill="#FECE68"/>
<path d="M55.948 77.1225C55.9407 77.3371 55.9566 77.5546 55.948 77.7692L54.9267 79.0656C52.8367 81.0778 48.2822 81.2103 45.7068 80.192C44.8599 79.8578 43.0623 78.7804 43.009 77.7678C43.0047 77.6785 43.0292 77.5921 43.117 77.5517C45.1077 80.964 52.9376 81.0864 55.2494 78.0933C55.4986 77.7721 55.5893 77.1988 55.948 77.1196V77.1225Z" fill="#FECF69"/>
<path d="M76.1107 45.965C76.02 46.4576 75.5864 46.9862 75.1644 47.2339C75.0636 47.293 74.8749 47.2339 74.8158 47.2584C74.1547 47.0683 73.5497 46.724 72.9923 46.3323L71.6888 44.8861C71.6974 44.2077 71.6556 43.5149 71.6888 42.8379C72.3153 44.7853 74.2498 45.6049 76.1093 45.965H76.1107Z" fill="#FDBC22"/>
<path d="M65.543 71.624C65.5416 71.696 65.543 71.7681 65.543 71.8401C65.3802 71.8545 65.3802 72.1483 65.543 72.1642C65.5401 72.3082 65.5502 72.4522 65.543 72.5948L65.3269 72.4364C63.4256 75.5102 59.0051 75.6398 55.8391 74.8591C55.8507 74.6445 55.8305 74.427 55.8391 74.2124C58.7473 74.9816 62.0832 74.8361 64.5174 72.9175L65.543 71.624Z" fill="#FECE68"/>
<path d="M75.1387 66.0176C75.1358 66.1256 75.1387 66.2336 75.1387 66.3417C73.7156 69.8648 68.7247 70.0939 65.5443 69.2527C65.5328 69.4342 65.4953 69.6214 65.4363 69.7914H65.2202C65.3945 69.4255 65.4478 68.9948 65.5443 68.6045C68.4841 69.4471 72.2651 69.2195 74.4891 66.9308L75.1387 66.0176Z" fill="#FECE68"/>
<path d="M84.7344 45.2081C83.5993 48.014 80.2533 48.4778 77.5627 48.4446C77.3798 48.4418 77.0831 48.5138 76.9707 48.3352C76.9837 48.3222 76.939 48.1955 77.1018 48.0831C77.3683 47.9002 77.5123 47.831 77.8335 47.795C78.3909 47.7345 79.0189 47.8354 79.598 47.7806C81.5914 47.5934 83.8874 46.5837 84.7329 44.668C84.7329 44.8235 84.7329 45.0554 84.7329 45.2067L84.7344 45.2081Z" fill="#FECE68"/>
<path d="M78.0502 38.3069C78.0963 38.3803 78.0084 38.7015 78.2662 38.7375C78.2014 38.8528 78.1956 39.2762 78.1035 39.2777C77.6973 39.1696 77.4106 38.7807 76.9728 38.7375C76.5954 38.5013 75.5079 37.7048 75.1392 37.6587V36.7959C75.3797 36.7959 77.9637 38.1657 78.0502 38.3054V38.3069Z" fill="#EE4C5A"/>
<path d="M43.5486 66.7727V67.6355C43.2058 67.4151 40.8464 66.2441 40.7629 66.1087C40.724 66.0468 40.7197 65.3727 40.7456 65.2632L43.5486 66.7727Z" fill="#EE4C5A"/>
<path d="M69.8554 33.5632C70.6534 34.0644 71.4614 34.6161 72.3343 34.9661C72.2004 35.3449 71.725 35.3608 71.4715 35.5034C71.2497 35.3104 69.7114 34.6031 69.6566 34.5167C69.6192 34.4577 69.6091 33.7375 69.635 33.6309C69.6667 33.4984 69.7992 33.5848 69.8554 33.5632Z" fill="#EE4C5A"/>
<path d="M78.3739 38.6332C78.3033 38.6519 78.2961 38.6879 78.2659 38.7412C78.008 38.7038 78.0959 38.384 78.0498 38.3106L79.7754 32.7046C79.8705 32.9423 79.9598 33.082 79.856 33.3772L78.3739 38.6346V38.6332Z" fill="#DF232D"/>
<path d="M71.6892 44.8848L72.9928 46.3309C73.5516 46.7227 74.1551 47.0669 74.8163 47.2571C74.7875 47.27 74.485 47.7209 74.7082 47.7958C73.5156 47.2902 72.5376 46.9215 71.9053 45.6395C71.8318 45.4897 71.8736 45.2261 71.6892 45.1008C71.6892 45.0288 71.6892 44.9568 71.6892 44.8848Z" fill="#FECE68"/>
<path d="M42.7937 77.1248C43.0935 77.047 42.9969 77.3497 43.118 77.5558C43.0301 77.5961 43.0056 77.6826 43.0099 77.7719H42.7937C42.7865 77.5572 42.798 77.3396 42.7937 77.1248Z" fill="#FECE68"/>
<path d="M71.9057 45.6386L71.6895 45.7467C71.6895 45.5306 71.6866 45.3144 71.6895 45.0996C71.874 45.2264 71.8308 45.4888 71.9057 45.6386Z" fill="#FDBC23"/>
<path d="M65.5428 72.1615C65.3803 72.1471 65.3803 71.8537 65.5428 71.8379C65.5413 71.9458 65.5457 72.0536 65.5428 72.1615Z" fill="#FDBC22"/>
<path d="M58.6209 59.4718C60.3364 59.4185 64.0814 60.0638 64.6071 62.0472C65.1933 64.2596 61.7955 65.445 60.0973 65.5833C58.2046 65.7389 53.5291 65.2448 53.2756 62.6968C53.0567 60.4844 56.9961 59.5236 58.6209 59.4718ZM57.4297 61.1916C56.1016 61.4062 56.5582 62.5211 57.7264 62.547C57.9367 62.5513 58.8009 62.2719 58.8355 62.727C58.8701 63.1822 58.183 63.0814 57.9165 63.1879C57.12 63.5063 57.5521 64.1962 58.2046 64.3532C59.2806 64.6125 60.5366 63.8073 59.1841 63.0497C59.4678 62.2618 60.1779 62.8869 60.6648 62.9719C62.4091 63.2773 62.7764 61.6698 60.9615 61.6972C59.8005 61.7144 60.0137 62.6176 59.1552 62.4361C58.5748 62.3136 58.9032 62.0832 58.8643 61.7649C58.798 61.2305 57.8618 61.1224 57.4311 61.1916H57.4297Z" fill="#FEDD99"/>
<path d="M48.054 69.6083C49.6009 69.4513 51.2948 69.5608 52.741 70.1413C54.1237 70.6973 55.7773 71.9806 54.7431 73.6025C53.0002 76.3349 46.0763 76.3147 44.1376 73.784C42.3155 71.4045 46.1815 69.7985 48.0525 69.6083H48.054ZM47.1062 71.1942C47.0846 71.1928 46.6856 70.9018 46.7864 71.2446C46.9982 71.9691 47.6046 72.7786 47.763 73.5579C48.5394 73.4138 49.5145 73.4455 50.2333 73.1344C50.2822 73.1128 50.3744 73.1834 50.4565 73.0667C50.4911 73.0177 50.9246 72.0181 50.9419 71.9533C50.9765 71.8193 51.0312 71.7833 50.8843 71.6753C49.624 71.5039 48.3766 71.2936 47.1076 71.1942H47.1062ZM50.772 73.3504C50.6049 73.3144 48.7857 73.6155 48.4544 73.6774C48.2787 73.7105 48.2671 73.6068 48.2931 73.8891C49.5016 73.8402 50.6985 74.0922 51.9041 74.1052C52.0625 74.0706 51.8508 74.0029 51.8508 73.9972C51.8378 73.3173 51.6564 72.4516 51.3654 71.8409L50.7734 73.3504H50.772Z" fill="#FEDD99"/>
<path d="M67.7862 49.4456C69.4858 49.3145 71.524 49.617 72.9745 50.5547C74.6136 51.6148 74.7908 53.0955 73.1891 54.3097C71.0357 55.9431 66.6166 55.9618 64.3667 54.5258C63.9476 54.2579 63.1309 53.5578 63.007 53.0825C62.3733 50.6584 65.9728 49.5853 67.7862 49.4456ZM71.2575 52.6461C71.3483 52.5222 70.8484 51.9893 70.6842 52.0152C70.4207 52.057 69.4455 52.8996 69.1704 52.8449C69.1243 52.8362 68.5827 52.4113 68.5683 52.3638C68.4877 52.0973 69.1085 51.7531 68.721 51.6767C68.4819 51.6292 68.2716 51.9014 68.0959 51.8712C67.7473 51.8121 67.2878 51.0501 66.9926 51.0242C66.6973 50.9983 66.3257 51.4722 65.9742 51.4621C65.787 51.7199 67.2662 52.6518 67.2648 52.8089C67.2648 52.9068 66.6987 53.1185 67.1596 53.3548C67.3757 53.4657 67.4866 53.1358 67.73 53.1963C67.9591 53.2525 68.2442 53.8474 68.6404 53.9251C69.1978 54.0346 70.5993 52.7412 71.2561 52.6461H71.2575Z" fill="#FEDD99"/>
<path d="M77.0574 39.4181C79.0696 39.2135 82.1765 39.6053 83.4974 41.3251C83.9669 41.9358 84.0519 42.7453 83.6385 43.4122C81.9158 46.1893 74.9256 46.1533 72.9826 43.6456C71.1014 41.2157 75.1964 39.6082 77.0574 39.4195V39.4181ZM79.3491 41.6449C79.326 41.6218 79.3692 41.3366 79.2453 41.1566C78.7686 40.4724 77.8208 40.785 77.2274 40.857C76.922 40.8945 76.4294 40.5444 76.6498 41.2171C76.3199 41.0803 75.4917 41.1926 76.1111 41.4864L75.2497 42.0252C75.6703 42.6416 75.957 42.2326 76.2738 42.2268C76.4035 42.2239 78.4589 43.3777 78.541 43.4785C78.7686 43.7608 78.276 43.6326 78.3768 43.8573C78.9429 44.5343 79.3519 43.7709 79.7452 43.7162C79.9727 43.6845 80.2162 43.9221 80.3775 43.6974C80.4337 43.6182 80.3343 43.4252 80.3674 43.3733C80.5042 43.1587 80.7938 43.4324 81.017 43.3733C81.3267 43.2927 81.0026 43.0709 81.0012 42.9974C80.9925 42.7381 81.6868 42.5912 80.9104 41.9733C80.3372 41.5167 79.4096 41.7025 79.3534 41.6434L79.3491 41.6449Z" fill="#FEDD99"/>
<path d="M76.4334 46.0705C76.4824 46.3427 76.6812 46.6826 76.8655 46.8785C77.2271 47.2646 77.8464 47.2545 77.8349 47.7961C77.5137 47.8306 77.3697 47.9012 77.1032 48.0841C76.9404 48.1965 76.9851 48.3232 76.9721 48.3362C76.9606 48.3477 76.8252 48.3175 76.7561 48.4125C76.5688 48.6675 76.5386 48.9426 76.4349 49.1241C76.1943 49.5432 75.9711 48.7554 75.8774 48.6228C75.5073 48.1057 75.2033 48.0064 74.7093 47.7975C74.486 47.7226 74.7885 47.2718 74.8173 47.2588C74.8749 47.2329 75.0651 47.2934 75.1659 47.2343C75.5879 46.9866 76.0215 46.4579 76.1122 45.9653C76.2318 45.9884 76.36 46.0618 76.4363 46.0734L76.4334 46.0705Z" fill="#FEFCF8"/>
<path d="M57.4297 61.193C57.8603 61.1239 58.7966 61.2319 58.8628 61.7663C58.9017 62.0846 58.5733 62.3151 59.1538 62.4375C60.0123 62.619 59.7976 61.7159 60.96 61.6986C62.7749 61.6727 62.4076 63.2787 60.6633 62.9733C60.1779 62.8883 59.4678 62.2618 59.1826 63.0511C60.5366 63.8087 59.2791 64.6139 58.2031 64.3546C57.5506 64.1976 57.1171 63.5063 57.9151 63.1894C58.1815 63.0828 58.8672 63.1692 58.834 62.7284C58.8009 62.2877 57.9352 62.5527 57.7249 62.5484C56.5568 62.5225 56.1002 61.4091 57.4282 61.193H57.4297Z" fill="#FDBC23"/>
<path d="M47.1062 71.1946L50.2332 73.1348C49.5145 73.4459 48.5393 73.4128 47.763 73.5582C47.6045 72.779 46.9981 71.9695 46.7864 71.245C46.687 70.9036 47.086 71.1931 47.1062 71.1946Z" fill="#F8AA3F"/>
<path d="M47.1064 71.1924C48.3754 71.2918 49.6228 71.5035 50.8831 71.6735C51.03 71.7815 50.9753 71.8175 50.9407 71.9515C50.9249 72.0163 50.4913 73.0159 50.4553 73.0649C50.3732 73.1815 50.281 73.1124 50.232 73.1326L47.105 71.1924H47.1064Z" fill="#FDBC22"/>
<path d="M50.7724 73.3467C50.9626 73.3885 51.5459 73.9517 51.8513 73.9935C51.8513 73.9992 52.063 74.0669 51.9046 74.1015C50.699 74.0885 49.502 73.8365 48.2935 73.8854C48.2691 73.6031 48.2791 73.7068 48.4549 73.6737C48.7861 73.6118 50.6053 73.3107 50.7724 73.3467Z" fill="#F8AA3F"/>
<path d="M51.8517 74.0004C51.5476 73.9586 50.9639 73.3936 50.7722 73.3532L51.3646 71.8428C51.6557 72.4539 51.8373 73.3186 51.8503 74.0004H51.8517Z" fill="#FDBC23"/>
<path d="M71.2575 52.6464C70.6007 52.7401 69.1992 54.035 68.6418 53.9255C68.2456 53.8477 67.9605 53.2543 67.7314 53.1967C67.488 53.1362 67.3771 53.466 67.161 53.3551C66.6987 53.1175 67.2662 52.9072 67.2662 52.8092C67.2662 52.6536 65.7869 51.7203 65.9756 51.4625C66.3271 51.4725 66.6872 50.9972 66.994 51.0246C67.3008 51.0519 67.7487 51.8125 68.0973 51.8715C68.273 51.9018 68.4833 51.6295 68.7224 51.6771C69.1099 51.7548 68.4891 52.0977 68.5697 52.3641C68.5841 52.4117 69.1257 52.8351 69.1718 52.8452C69.4469 52.9 70.4206 52.0573 70.6857 52.0156C70.8499 51.9896 71.3497 52.5226 71.2589 52.6464H71.2575Z" fill="#FDBC23"/>
<path d="M79.3492 41.6439C79.4054 41.7029 80.3345 41.5171 80.9063 41.9737C81.6827 42.5916 80.9884 42.7386 80.997 42.9978C80.9999 43.0713 81.3226 43.2931 81.0129 43.3738C80.7911 43.4328 80.5016 43.1577 80.3633 43.3738C80.3301 43.4256 80.4295 43.6201 80.3734 43.6979C80.2135 43.9226 79.9686 43.6849 79.741 43.7166C79.3478 43.7713 78.9387 44.5362 78.3727 43.8577C78.2718 43.633 78.7645 43.7612 78.5369 43.4789C78.4562 43.3781 76.3993 42.2243 76.2697 42.2272C75.9543 42.2344 75.6662 42.6435 75.2456 42.0256L76.107 41.4869C75.4876 41.193 76.3158 41.0807 76.6457 41.2175C76.4253 40.5463 76.9179 40.8949 77.2232 40.8574C77.8167 40.7854 78.7645 40.4728 79.2412 41.157C79.3665 41.3371 79.3233 41.6208 79.3449 41.6453L79.3492 41.6439ZM78.3727 41.9708C78.6852 41.5114 77.4508 41.1599 77.1887 41.7044C77.4177 41.8772 78.171 42.2676 78.3727 41.9708ZM79.9758 42.4174C79.8116 42.1466 78.8336 42.1408 78.5902 42.4577C78.8149 42.619 79.3334 43.0482 79.597 43.0266C79.8735 43.0036 80.1242 42.6608 79.9758 42.4174Z" fill="#FDBC23"/>
<path d="M79.9768 42.4188C80.1253 42.6623 79.8745 43.0054 79.5978 43.0284C79.3211 43.0515 78.8152 42.6205 78.5903 42.4591C78.8339 42.1435 79.8125 42.1478 79.9768 42.4188Z" fill="#FEDD99"/>
<path d="M78.3737 41.9736C78.1719 42.2705 77.4167 41.8784 77.189 41.7069C77.4513 41.1621 78.6865 41.5152 78.3737 41.9736Z" fill="#FEDD99"/>
<defs>
<clipPath id="clip0_307_13806">
<rect width="58.9091" height="72" fill="white" transform="translate(18 12)"/>
</clipPath>
</defs>
</svg>
