<svg width="150" height="150" viewBox="0 0 150 150" fill="none" xmlns="http://www.w3.org/2000/svg">
<path d="M43.463 58.0347C42.1875 64.4531 43.3594 66.7969 39.8438 66.7969C35.1562 66.7969 32.3278 61.1613 28.1699 60.0086C22.6609 58.4797 21.8722 63.8753 20.9177 67.8553C16.6788 85.462 18.5151 94.2674 27.6804 110.01C35.4908 123.418 48.9476 134.124 64.6695 136.138C49.344 131.095 54.8165 131.091 57.207 115.927C57.8177 112.056 59.0756 106.369 64.3419 108.024C65.4137 108.359 66.8779 110.014 68.1196 110.6C74.6155 113.686 70.2957 124.033 73.7539 117.533C73.7863 117.472 73.8065 117.415 73.8308 117.355V16.9922C53.231 31.9577 49.2188 33.9844 43.467 58.0388L43.463 58.0347Z" fill="#876EFF"/>
<path d="M77.6828 101.645C77.9295 97.6044 76.1741 89.3329 80.4089 87.4198C84.9956 85.3529 87.6611 91.4119 89.6188 94.5587C99.2452 110.026 108.277 102.927 99.2331 120.599C94.8648 129.137 88.1141 134.48 78.6899 136.397C78.1317 136.511 77.5088 136.126 77.6868 137.045H78.5969L89.9262 134.901C113.139 129.877 127.692 108.78 128.853 85.7372C129.981 63.3253 113.847 73.3111 117.434 50.6525C117.964 47.2994 120.355 43.9059 116.892 41.3415C114.093 39.2666 108.884 41.2242 105.943 42.4983C104.022 43.3275 98.9014 46.8626 97.5262 46.81C96.0984 46.7534 95.4715 45.7058 94.889 44.5733C92.2721 39.4688 90.0839 30.4167 89.0323 24.7015C88.5348 21.9915 88.1869 15.3541 86.9007 13.5178C83.6164 8.82999 77.2297 14.5209 74.0546 16.8264C73.9778 16.883 73.905 16.9356 73.8281 16.9923V117.363C73.9252 117.1 73.9616 116.833 74.0546 116.635C76.2024 112.08 77.3754 106.697 77.6868 101.649L77.6828 101.645Z" fill="#7536FC"/>
<path d="M73.5277 67.4302C53.8442 67.4302 37.8867 83.1706 37.8867 102.586C37.8867 122.002 53.8442 137.743 73.5277 137.743C73.6252 137.743 73.7267 137.743 73.8242 137.743V67.4379C73.7267 67.4379 73.6252 67.4379 73.5277 67.4379V67.4302Z" fill="#F0FFD3"/>
<path d="M108.195 102.586C108.195 83.2647 92.8311 67.588 73.8203 67.4302V137.743C92.8311 137.585 108.195 121.908 108.195 102.586Z" fill="#DEF5B1"/>
</svg>
