<svg width="102" height="102" viewBox="0 0 102 102" fill="none" xmlns="http://www.w3.org/2000/svg">
<g clip-path="url(#clip0_307_13808)">
<path d="M18 84V12H62.1818L76.9091 25.5V84H18Z" fill="#F5F7FF"/>
<path d="M62.1819 25.5V12L76.9092 25.5H62.1819Z" fill="#E8E8F4"/>
<rect x="18" y="12" width="10.1958" height="72" fill="#E8E8F4"/>
<rect x="23.3552" y="20.5103" width="19.2793" height="2.12727" fill="#E2E2ED"/>
<rect x="23.355" y="29.019" width="19.2793" height="2.12727" fill="#E2E2ED"/>
<rect x="23.355" y="33.2729" width="19.2793" height="2.12727" fill="#E2E2ED"/>
<rect x="23.355" y="24.7642" width="2.14215" height="2.12727" fill="#E2E2ED"/>
<rect x="27.6394" y="24.7642" width="2.14215" height="2.12727" fill="#E2E2ED"/>
<rect x="31.9238" y="24.7642" width="10.7107" height="2.12727" fill="#E2E2ED"/>
</g>
<path d="M86.6218 80.6619C86.25 80.9196 85.7593 81.4802 85.3917 81.8526C85.0586 82.2193 84.6592 82.5237 84.7283 82.9343C84.7642 83.141 84.919 83.3279 85.0641 83.4808C85.6446 84.0783 86.2763 84.6856 87.0945 84.9221C88.1435 85.1868 89.5021 84.966 90.1683 84.1094C90.2512 83.9523 90.1738 83.805 90.0646 83.6861C89.7965 83.3973 89.2257 82.8295 88.6507 82.2405C88.2734 81.8568 87.8933 81.4703 87.5906 81.1631C87.1428 80.7398 87.0129 80.4368 86.6384 80.6534L86.6218 80.6633V80.6619Z" fill="#B8B4B3"/>
<path d="M86.9952 80.3975C86.8832 80.6566 87.2619 80.9327 87.5107 81.2314C87.8714 81.6264 88.2446 82.0342 88.6482 82.4745C89.1761 83.0465 89.6654 83.5987 89.9197 83.8549C90.1961 84.1607 90.4781 83.8691 90.655 83.5987C91.3737 82.575 91.4165 81.0898 90.7476 80.0209C90.4808 79.5296 90.1077 79.0978 89.7041 78.7155C89.5493 78.5683 89.36 78.4139 89.1554 78.38C88.7104 78.3007 88.3441 78.8359 87.9861 79.1997C87.6738 79.5735 87.1804 80.0266 86.9993 80.3819L86.9938 80.3975H86.9952Z" fill="#CFCCCC"/>
<path d="M71.441 64.741L76.7712 70.2012L74.6261 72.3987L69.2959 66.9385L71.441 64.741Z" fill="#919191"/>
<path d="M73.6847 62.845L79.0149 68.3052L76.8697 70.5027L71.5395 65.0425L73.6847 62.845Z" fill="#CFCDCD"/>
<path d="M58.6204 30.8739C48.7521 30.6247 39.9535 37.9289 38.2756 47.9047C38.0365 49.2384 37.8638 50.5466 37.8914 51.8874C37.9329 53.0002 38.0738 54.1031 38.2825 55.2047C40.693 70.4332 59.4814 77.5165 70.8673 67.4642C71.4851 66.9234 72.2397 66.3131 73.0469 66.9106C73.8844 67.4585 74.5257 68.662 75.5706 68.8744C76.3432 68.9961 77.0937 68.2542 77.2361 67.5322C77.3992 66.5949 76.5906 65.911 76.0157 65.2952C74.7165 64.0379 74.7635 63.0723 75.6245 61.5716C82.9262 48.0449 73.7683 31.5393 58.6452 30.8753H58.6204V30.8739ZM55.418 68.6138C49.0451 67.6483 43.489 62.6377 41.8042 56.2269C38.8326 45.5417 46.5324 34.5776 57.4055 34.2676C73.5555 33.4775 81.276 54.8946 68.6725 65.0106C65.0113 67.9357 59.9707 69.5766 55.4457 68.6181L55.4194 68.6138H55.418Z" fill="#CFCDCD"/>
<path d="M55.5586 34.4457C49.4911 36.0767 45.6143 41.8829 44.6385 48.0078C44.6123 48.1706 44.5017 48.4382 44.6952 48.5415C45.805 43.2081 49.7192 39.2311 54.8344 37.9441C55.4992 37.7771 55.7853 37.6978 56.4902 37.6256C71.435 36.1036 77.4983 56.1444 65.0427 63.6086C62.6848 65.0216 58.3809 66.1967 55.7659 65.2864C50.5001 64.6068 46.0511 60.2333 44.7989 55.0061C44.5943 55.4408 44.8583 56.2067 44.9716 56.6839C46.2432 62.0342 50.0523 67.2006 55.455 68.5725C60.5522 69.8665 67.0468 67.1567 70.509 63.2745C81.2245 51.2613 71.3603 32.1223 55.5586 34.4471V34.4457Z" fill="#FDFEFE"/>
<path d="M55.4553 68.5716C50.0526 67.2011 46.2435 62.0334 44.9719 56.683C44.8586 56.2059 44.5932 55.4414 44.7992 55.0053C44.5918 54.1402 44.4315 53.2483 44.3859 52.3563C44.3182 51.0438 44.4301 49.8192 44.6969 48.5407C44.502 48.4373 44.614 48.1697 44.6402 48.0069C45.616 41.8835 49.4928 36.0773 55.5603 34.4448C44.8337 36.022 38.4387 47.4406 42.3155 57.8157C44.397 63.3869 49.6283 67.8312 55.4566 68.5702L55.4553 68.5716Z" fill="#C3EEFE"/>
<path d="M56.4905 37.6246L54.8348 38.1541V41.6512H59.5423C59.5533 41.6512 59.6971 41.7984 59.6971 41.8098V44.3526C59.6971 44.7561 58.8858 45.784 58.5071 45.784H54.1105C54.1064 46.877 54.1161 47.9756 54.1105 49.0687C56.5569 49.0559 60.2126 48.777 62.5152 49.0956C65.0845 49.4523 66.1723 52.7314 64.3562 54.6371C63.7024 55.3237 62.8828 55.488 62.0245 55.7471L60.149 61.0323C59.2327 62.6534 57.0531 62.6874 56.0289 61.1441C55.7249 60.6854 54.1935 56.2752 54.1175 55.6848C53.8853 53.8796 54.0995 50.9942 54.1092 49.0701C53.0422 49.0757 51.9697 49.0658 50.9027 49.0701V50.9248C50.9027 51.0111 50.5792 51.6624 50.4908 51.7743C49.8343 52.5969 48.5323 52.342 47.5925 52.3562C47.8164 57.7533 50.5184 63.4576 55.7649 65.2854C58.3799 66.1958 62.6852 65.0206 65.0417 63.6077C77.4973 56.1435 71.4326 36.1026 56.4892 37.6246H56.4905ZM51.555 56.5116C52.1397 56.69 53.4292 60.2352 51.4942 59.6462C50.9704 59.4862 50.3982 57.4744 50.4922 56.9675C50.5862 56.4606 51.1514 56.387 51.5536 56.5102L51.555 56.5116Z" fill="#30BAEB"/>
<path d="M44.6969 48.5422C44.4302 49.8206 44.3182 51.0453 44.3859 52.3578C45.4529 52.3464 46.5254 52.3734 47.5924 52.3578C47.4708 49.4171 47.9932 46.3986 49.298 43.7709C50.4327 41.4829 52.4105 39.1128 54.8347 38.2619V37.9434C49.7195 39.2318 45.8067 43.2088 44.6955 48.5407L44.6969 48.5422Z" fill="#73CF93"/>
<path d="M44.386 52.3564C44.4316 53.2498 44.5933 54.1403 44.7993 55.0054C46.0501 60.2326 50.4991 64.606 55.7664 65.2856C50.5185 63.4578 47.8164 57.7535 47.5939 52.3564C46.5269 52.372 45.4544 52.3451 44.3874 52.3564H44.386Z" fill="#18A5D9"/>
<path d="M54.8347 37.9426V38.155L56.4905 37.6255C55.787 37.6977 55.4995 37.7756 54.8347 37.944V37.9426Z" fill="#18A5D9"/>
<path d="M54.1104 49.0698C54.1007 50.9939 53.8865 53.8793 54.1187 55.6845C54.1947 56.2763 55.7261 60.6866 56.0301 61.1439C57.0543 62.6871 59.2339 62.6545 60.1502 61.032L62.0258 55.7468C62.8827 55.4877 63.7023 55.3234 64.3574 54.6368C66.1721 52.7311 65.0858 49.4521 62.5164 49.0953C60.2138 48.7767 56.5581 49.0542 54.1118 49.0684L54.1104 49.0698Z" fill="#95E092"/>
<path d="M47.5924 52.3557C48.5322 52.3415 49.8342 52.5964 50.4907 51.7738C50.5791 51.6633 50.9025 51.0106 50.9025 50.9243V49.0696C51.9695 49.0653 53.0421 49.0752 54.109 49.0696C54.1146 47.9766 54.1049 46.8779 54.109 45.7849H58.5056C58.8843 45.7849 59.6956 44.7584 59.6956 44.3535V41.8107C59.6956 41.7994 59.5518 41.6521 59.5408 41.6521H54.8333V38.2612C52.409 39.1121 50.4312 41.4822 49.2965 43.7702C47.9932 46.3979 47.4694 49.4164 47.591 52.3571L47.5924 52.3557Z" fill="#95E092"/>
<path d="M51.5549 56.5118C51.1513 56.3886 50.5832 56.4863 50.4934 56.9691C50.398 57.476 50.9702 59.4878 51.4954 59.6478C53.4304 60.2368 52.1409 56.6916 51.5563 56.5132L51.5549 56.5118Z" fill="#94E093"/>
<path d="M73.7142 71.4873C77.2317 75.276 80.8777 79.2049 84.6357 82.8095C84.7269 82.8308 84.8209 82.7614 84.8859 82.6906C85.4871 82.011 86.1629 81.3413 86.7476 80.6603C86.1505 80.0416 78.09 71.6954 75.8247 69.3564C75.7653 69.3664 75.71 69.4471 75.6464 69.5037C75.0576 70.0998 74.4412 70.6831 73.84 71.2636C73.7806 71.3188 73.7184 71.3938 73.7115 71.4703V71.4887L73.7142 71.4873Z" fill="#292827"/>
<path d="M77.9756 67.1112C77.8982 67.1197 77.8194 67.2047 77.7627 67.2712C77.1823 67.9947 76.3848 68.5355 75.8347 69.276C75.8112 69.3256 75.7946 69.3454 75.8043 69.3779C75.8609 69.4388 76.1125 69.6979 76.5036 70.1014C78.7399 72.3328 86.3705 80.4567 86.8059 80.6549C86.893 80.6025 87.0284 80.5077 87.1114 80.4185C87.7098 79.7955 88.2723 79.1173 88.9164 78.5397C88.9869 78.476 89.0601 78.384 89.0408 78.2919C85.5247 74.4437 81.6783 70.7187 77.9922 67.1084H77.9742L77.9756 67.1112Z" fill="#464342"/>
<defs>
<clipPath id="clip0_307_13808">
<rect width="58.9091" height="72" fill="white" transform="translate(18 12)"/>
</clipPath>
</defs>
</svg>
