<svg width="51" height="50" viewBox="0 0 51 50" fill="none" xmlns="http://www.w3.org/2000/svg">
<path d="M29.4098 26.3185C29.4121 27.1967 29.4086 28.0772 29.4098 28.9554C30.7271 28.9578 32.0479 28.9519 33.3652 28.9554V47.4987H17.5458C17.5352 42.1978 17.5587 36.8922 17.5458 31.5912L22.9911 31.5877C23.5065 28.5762 26.3666 26.2997 29.4098 26.3185Z" fill="#DEDCE7"/>
<path d="M7 47.4984V28.9551H17.5455C17.5467 29.8321 17.5432 30.7138 17.5455 31.5921C17.5584 36.893 17.5349 42.1986 17.5455 47.4995H7V47.4984ZM14.9097 34.2278H12.2728V36.8648H14.9097V34.2278Z" fill="#3C3C3C"/>
<path d="M37.3215 28.9558C40.4081 29.0779 43.0932 30.9611 43.7671 34.0665C44.1006 35.6022 44.0477 39.8958 43.9115 41.5653C43.7237 43.87 42.0412 46.0914 39.9302 46.9872L38.2008 47.4991H33.3672V28.9558C34.6704 28.9593 36.0265 28.9041 37.3215 28.9558Z" fill="#CCC8DF"/>
<path d="M37.3215 22.8915C36.1415 23.3611 34.6305 23.6018 33.3672 23.5948V14.9818L35.9713 17.5237C36.1028 17.5471 37.6842 15.9234 37.8427 15.6522L35.3068 13.0798L37.8099 10.498C37.8921 10.3959 37.8193 10.3536 37.7664 10.2761C37.6432 10.0965 36.3129 8.76508 36.138 8.64767C36.0852 8.61245 36.0511 8.54905 35.9713 8.57136L33.3672 11.1132V2.50024C44.9377 2.42862 47.9409 18.666 37.3215 22.8892V22.8915Z" fill="#D64E53"/>
<path d="M33.3635 2.50293V11.1159L30.7594 8.57405C30.6279 8.55057 29.0465 10.1743 28.888 10.4455L31.424 13.0179L28.9208 15.5997C28.8387 15.7018 28.9114 15.7441 28.9643 15.8216C29.0876 16.0012 30.4178 17.3326 30.5927 17.45C30.6455 17.4852 30.6796 17.5487 30.7594 17.5263L33.3635 14.9845V23.5975C31.9147 23.5881 30.7477 23.345 29.4092 22.8061C18.7592 18.5196 21.7977 2.57572 33.3635 2.50528V2.50293Z" fill="#DE7A81"/>
<path d="M33.3663 23.595V28.9558C32.049 28.9523 30.7281 28.9582 29.4108 28.9558C29.4108 28.0776 29.4132 27.1971 29.4108 26.3189C29.4085 25.1483 29.4132 23.9743 29.4108 22.8037C30.7493 23.3426 31.9163 23.5856 33.3651 23.595H33.3663Z" fill="#3C3C3C"/>
<path d="M37.3215 22.8916V28.9557C36.0253 28.904 34.6704 28.9592 33.3672 28.9557V23.5949C34.6305 23.6031 36.1415 23.3612 37.3215 22.8916Z" fill="#2E2E2E"/>
<path d="M14.9124 34.2285H12.2754V36.8655H14.9124V34.2285Z" fill="#DEDCE7"/>
<path d="M33.3652 14.9823V11.1149L35.9693 8.573C36.0492 8.5507 36.082 8.6141 36.136 8.64932C36.311 8.76673 37.6412 10.0981 37.7645 10.2778C37.8173 10.3552 37.8901 10.3963 37.8079 10.4997L35.3048 13.0814L37.8408 15.6538C37.6823 15.925 36.1008 17.5476 35.9693 17.5253L33.3652 14.9834V14.9823Z" fill="#D7E7F7"/>
<path d="M33.3664 11.1155V14.9829L30.7623 17.5248C30.6825 17.5471 30.6496 17.4837 30.5956 17.4485C30.4207 17.3311 29.0905 15.9997 28.9672 15.82C28.9144 15.7425 28.8416 15.7015 28.9237 15.5981L31.4269 13.0164L28.8909 10.444C29.0494 10.1728 30.6308 8.55019 30.7623 8.57249L33.3664 11.1144V11.1155Z" fill="#EEF3FA"/>
</svg>
