<svg width="150" height="150" viewBox="0 0 150 150" fill="none" xmlns="http://www.w3.org/2000/svg">
<path d="M8 102.729L26.234 78.387C27.5183 76.9092 29.8168 77.0893 30.9677 78.6405L48.4144 101.898C49.3685 103.279 49.0916 105.134 47.6939 106.092C47.5104 106.218 46.4296 106.729 46.3328 106.729H40.2148V127.578C40.2148 128.369 38.5101 130 37.5694 129.927C31.8717 129.663 25.7503 130.354 20.1026 129.96C18.8583 129.873 16.7434 129.013 16.7434 127.578V106.729H10.622C9.80472 106.729 8.46369 105.404 8 104.731V102.732V102.729Z" fill="#876EFF"/>
<path d="M133.105 89.2456V127.575C133.105 128.846 131.161 129.847 129.993 129.957C124.309 130.491 117.794 129.553 112.019 129.93C111.195 129.954 109.631 128.502 109.631 127.825V89.2456H103.763C101.801 89.2456 100.183 86.657 101.087 84.8189L118.628 61.4109C119.792 59.9564 120.989 59.2926 122.791 60.23C129.392 67.9593 135.14 76.5192 141.395 84.5754C142.739 86.3334 141.001 89.2456 138.973 89.2456H133.105Z" fill="#6D2FF2"/>
<path d="M86.6609 97.986V127.575C86.6609 128.366 84.9562 129.997 84.0155 129.924C78.2511 129.554 71.7194 130.494 66.0483 129.957C64.9141 129.851 63.1895 128.813 63.1895 127.572V97.9827H57.0714C55.26 97.9827 53.5387 94.8836 54.8998 93.3124L72.1864 70.1479C73.6075 68.3832 75.4756 67.9296 77.1669 69.6442L94.8572 93.1523C96.335 94.6868 94.6337 97.9793 92.7756 97.9793H86.6575L86.6609 97.986Z" fill="#7559FF"/>
<path d="M30.6367 41.886C32.2779 43.5439 33.5255 48.5678 34.9533 50.6761C37.7088 51.3433 41.3782 51.1064 44.0236 51.8437C45.7049 52.3107 46.4822 53.9519 46.1419 55.6032C45.7616 57.448 40.3441 61.2376 38.9897 62.9522C38.7062 63.9663 40.6177 70.2078 40.6877 71.9291C40.7911 74.5411 38.3693 75.7954 36.0408 74.808C33.9092 73.904 31.2371 71.6389 29.2022 70.905C28.8853 70.7916 28.7218 70.7382 28.3682 70.7682C27.0506 70.8883 22.5905 74.1175 20.8992 74.8113C19.9551 75.1983 19.5648 75.3884 18.524 75.0982C14.0572 73.8406 18.1204 66.0746 17.9436 62.9622L11.4886 56.9109C7.97256 50.2391 18.3005 51.8036 21.9767 50.6694C22.6305 50.2858 24.989 43.5673 26.2133 42.1696C27.4375 40.7718 29.2923 40.535 30.63 41.886H30.6367Z" fill="#CEF08A"/>
<path d="M127.678 29.5031C129.966 30.4372 136.621 29.9968 138.209 31.5847C141.805 35.1775 133.522 39.3574 131.901 41.986C131.738 44.6381 134.32 50.626 132.972 52.781C130.553 56.654 124.138 50.3325 121.289 49.6019L113.393 53.9219C105.971 54.9493 110.861 45.8757 110.851 41.9827L104.29 35.7913C100.977 29.1795 110.932 30.7374 114.638 29.6933C115.415 29.3263 117.97 22.5811 118.921 21.2434C119.765 20.0592 120.979 19.7523 122.39 20.1893C124.479 20.8398 126.46 27.595 127.681 29.5031H127.678Z" fill="#B2FF1C"/>
<path d="M74.1075 31.3714C75.2151 31.1445 76.3693 31.348 77.1365 32.222L81.4132 40.9287C83.7383 41.6159 90.36 41.259 91.9112 42.9169C95.2038 46.4363 87.0542 50.6395 85.4529 53.2181C85.2761 55.9236 87.8081 61.5612 86.6305 63.8663C84.5189 67.9962 77.6936 61.718 75.0082 60.834C72.1594 61.6146 67.4257 66.2715 64.5002 65.0839C63.496 64.677 62.6621 63.2759 62.7054 62.1884C62.7788 60.4237 64.687 54.299 64.4001 53.2181L57.5815 46.533C55.3231 40.2382 64.8804 42.0763 68.4432 40.9387C68.8568 40.6685 71.5656 33.6765 72.4629 32.4755C72.8399 31.9718 73.4804 31.5015 74.1042 31.3714H74.1075Z" fill="#C3FA56"/>
</svg>
