<svg width="179" height="55" viewBox="0 0 179 55" fill="none" xmlns="http://www.w3.org/2000/svg">
<g filter="url(#filter0_d_184_6142)">
<path fill-rule="evenodd" clip-rule="evenodd" d="M14 6C10.6863 6 8 8.68629 8 12V30C8 33.3137 10.6863 36 14 36H83.6236L88.9842 45L94.3448 36H165C168.314 36 171 33.3137 171 30V12C171 8.68629 168.314 6 165 6H14Z" fill="white"/>
</g>
<path d="M51.6035 25.1074C49.9385 25.1074 48.7568 24.2051 48.7246 22.8945H50.1318C50.1748 23.5176 50.7979 23.9258 51.6035 23.9258C52.4629 23.9258 53.0752 23.4531 53.0752 22.7656C53.0752 22.0674 52.4736 21.5625 51.4639 21.5625H50.7656V20.4883H51.4639C52.291 20.4883 52.8711 20.0264 52.8604 19.3496C52.8711 18.6943 52.377 18.2539 51.6143 18.2539C50.8838 18.2539 50.25 18.6621 50.2285 19.3174H48.8857C48.918 18.0068 50.0996 17.1152 51.625 17.1152C53.2041 17.1152 54.2246 18.082 54.2139 19.2744C54.2246 20.1445 53.6445 20.7783 52.7959 20.9502V21.0146C53.8916 21.165 54.5146 21.8633 54.5039 22.8408C54.5146 24.1514 53.29 25.1074 51.6035 25.1074ZM64.2793 23.8291V24.8066H55.4062V23.8291H59.2412V21.8203H60.4229V23.8291H64.2793ZM63.4844 17.6523V18.6191H60.4551C60.5356 19.8276 61.7979 20.9395 63.8926 21.2188L63.4521 22.1533C61.771 21.917 60.4766 21.1704 59.832 20.1016C59.1875 21.1704 57.9038 21.917 56.2227 22.1533L55.7715 21.2188C57.877 20.9395 59.1338 19.8276 59.2305 18.6191H56.1904V17.6523H59.2412V16.3955H60.4229V17.6523H63.4844ZM69.8438 17.083V21.6699H65.2461V17.083H69.8438ZM66.417 18.0391V20.7246H68.6729V18.0391H66.417ZM72.5723 16.2451V19.0918H73.9258V20.0908H72.5723V23.335H71.3799V16.2451H72.5723ZM72.959 24.7959V25.7627H66.3525V22.6475H67.5449V24.7959H72.959ZM82.7988 16.2451V25.9561H81.6494V16.2451H82.7988ZM80.8008 16.417V25.4834H79.6621V20.8643H78.7383C78.6255 22.7549 77.8145 23.9258 76.6113 23.915C75.3438 23.9258 74.5166 22.583 74.5166 20.4453C74.5166 18.3076 75.3438 16.9863 76.6113 16.9863C77.7876 16.9863 78.5879 18.082 78.7275 19.8975H79.6621V16.417H80.8008ZM76.6113 18.1143C75.999 18.1035 75.6123 18.9307 75.623 20.4453C75.6123 21.96 75.999 22.7871 76.6113 22.7764C77.2559 22.7871 77.6426 21.96 77.6426 20.4453C77.6426 18.9307 77.2559 18.1035 76.6113 18.1143ZM94.4971 16.2451V19.8975H95.582V20.9072H94.4971V25.9561H93.3154V16.2451H94.4971ZM87.6436 17.1367V19.4678H88.46V17.1367H89.4482V23.668H86.6553V17.1367H87.6436ZM87.6436 22.6904H88.46V20.4131H87.6436V22.6904ZM90.8555 17.1367V19.4678H91.6719V17.1367H92.6602V23.668H89.8887V17.1367H90.8555ZM90.8555 22.6904H91.6719V20.4131H90.8555V22.6904ZM104.906 21.541V22.4971H96.0332V21.541H104.906ZM104.025 24.7959V25.7627H97.1719V23.1094H98.375V24.7959H104.025ZM103.811 16.5029V19.0918H98.3428V19.9189H104.004V20.8213H97.1611V18.2324H102.618V17.4375H97.1289V16.5029H103.811ZM111.835 18.5762C111.824 20.3594 112.759 22.1426 114.338 22.8193L113.629 23.7754C112.512 23.2598 111.69 22.2285 111.244 20.9609C110.798 22.3306 109.966 23.4478 108.784 24.001L108.054 23.002C109.676 22.3037 110.621 20.4453 110.621 18.5762V17.0293H111.835V18.5762ZM116.239 16.2451V25.9668H115.036V16.2451H116.239ZM121.148 17.9316C121.148 19.124 121.922 20.3057 123.447 20.8105L122.846 21.7344C121.761 21.3745 120.987 20.644 120.568 19.7363C120.133 20.73 119.328 21.5195 118.194 21.9062L117.561 20.9824C119.129 20.4668 119.945 19.21 119.945 17.9316V17.8135H117.894V16.8574H123.168V17.8135H121.148V17.9316ZM125.327 16.2451V18.6729H126.681V19.6719H125.327V22.0996H124.135V16.2451H125.327ZM125.327 22.5508V25.9561H124.135V23.5068H118.86V22.5508H125.327ZM134.78 16.2451V20.1123H136.273V21.1006H134.78V25.9561H133.599V16.2451H134.78ZM132.847 17.7383V18.6943H127.121V17.7383H129.42V16.3848H130.612V17.7383H132.847ZM130.021 19.3281C131.418 19.3281 132.46 20.2734 132.46 21.6162C132.46 22.959 131.418 23.8936 130.021 23.8936C128.604 23.8936 127.562 22.959 127.572 21.6162C127.562 20.2734 128.604 19.3281 130.021 19.3281ZM130.021 20.3057C129.259 20.3057 128.711 20.8213 128.711 21.6162C128.711 22.4111 129.259 22.916 130.021 22.9053C130.763 22.916 131.311 22.4111 131.321 21.6162C131.311 20.8213 130.763 20.3057 130.021 20.3057ZM144.792 16.2451V25.9561H143.589V16.2451H144.792ZM141.892 17.2764C141.892 20.166 140.774 22.626 137.369 24.2373L136.746 23.2812C139.287 22.0728 140.468 20.4292 140.678 18.2217H137.24V17.2764H141.892Z" fill="#121212"/>
<path fill-rule="evenodd" clip-rule="evenodd" d="M35.25 26.6524C35.25 27.223 35.9904 27.4464 36.3061 26.9711L40.6556 20.4221C40.91 20.0391 40.6354 19.5272 40.1757 19.5272H36.75V15.4133C36.75 14.8428 36.0096 14.6193 35.6939 15.0946L31.3444 21.6436C31.09 22.0266 31.3646 22.5386 31.8243 22.5386H35.25V26.6524Z" fill="#FFBD12"/>
<path opacity="0.3" fill-rule="evenodd" clip-rule="evenodd" d="M26.2539 16.7612C26.2539 16.2089 26.7016 15.7612 27.2539 15.7612H31.2539C31.8062 15.7612 32.2539 16.2089 32.2539 16.7612C32.2539 17.3135 31.8062 17.7612 31.2539 17.7612H27.2539C26.7016 17.7612 26.2539 17.3135 26.2539 16.7612ZM26.2539 25.7964C26.2539 25.2441 26.7016 24.7964 27.2539 24.7964H31.2539C31.8062 24.7964 32.2539 25.2441 32.2539 25.7964C32.2539 26.3487 31.8062 26.7964 31.2539 26.7964H27.2539C26.7016 26.7964 26.2539 26.3487 26.2539 25.7964ZM25.752 20.2808C25.1997 20.2808 24.752 20.7285 24.752 21.2808C24.752 21.833 25.1997 22.2808 25.752 22.2808H29.002C29.5542 22.2808 30.002 21.833 30.002 21.2808C30.002 20.7285 29.5542 20.2808 29.002 20.2808H25.752Z" fill="#FFBD12"/>
<defs>
<filter id="filter0_d_184_6142" x="0" y="0" width="179" height="55" filterUnits="userSpaceOnUse" color-interpolation-filters="sRGB">
<feFlood flood-opacity="0" result="BackgroundImageFix"/>
<feColorMatrix in="SourceAlpha" type="matrix" values="0 0 0 0 0 0 0 0 0 0 0 0 0 0 0 0 0 0 127 0" result="hardAlpha"/>
<feOffset dy="2"/>
<feGaussianBlur stdDeviation="4"/>
<feComposite in2="hardAlpha" operator="out"/>
<feColorMatrix type="matrix" values="0 0 0 0 0 0 0 0 0 0 0 0 0 0 0 0 0 0 0.18 0"/>
<feBlend mode="normal" in2="BackgroundImageFix" result="effect1_dropShadow_184_6142"/>
<feBlend mode="normal" in="SourceGraphic" in2="effect1_dropShadow_184_6142" result="shape"/>
</filter>
</defs>
</svg>
