<svg width="102" height="102" viewBox="0 0 102 102" fill="none" xmlns="http://www.w3.org/2000/svg">
<g clip-path="url(#clip0_307_13805)">
<path d="M19 84V12H62.2L76.6 25.5V84H19Z" fill="#F5F7FF"/>
<path d="M62.2001 25.5V12L76.6001 25.5H62.2001Z" fill="#E8E8F4"/>
<rect x="19" y="12" width="9.96923" height="72" fill="#E8E8F4"/>
<rect x="24.2362" y="20.5093" width="18.8509" height="2.12727" fill="#E2E2ED"/>
<rect x="24.2361" y="29.0186" width="18.8509" height="2.12727" fill="#E2E2ED"/>
<rect x="24.2361" y="33.2729" width="18.8509" height="2.12727" fill="#E2E2ED"/>
<rect x="24.2361" y="24.7637" width="2.09455" height="2.12727" fill="#E2E2ED"/>
<rect x="28.425" y="24.7637" width="2.09455" height="2.12727" fill="#E2E2ED"/>
<rect x="32.6144" y="24.7637" width="10.4727" height="2.12727" fill="#E2E2ED"/>
</g>
<path d="M85.0208 52.7917C82.185 52.8552 79.3308 52.785 76.4951 52.7917C75.8023 52.793 75.1057 52.7917 74.413 52.7917C71.6051 52.7956 68.7932 52.789 65.9853 52.7917C65.2594 52.7917 64.5297 52.7917 63.8038 52.7917C60.9959 52.789 58.184 52.7956 55.3761 52.7917C54.6834 52.7917 53.9868 52.793 53.294 52.7917C50.457 52.785 47.6027 52.8552 44.7683 52.7917C43.4293 52.7612 42.2041 52.9214 41.722 51.3268C41.4929 50.5678 41.5154 47.9652 41.6081 47.1043C41.7141 46.1162 42.2452 45.5308 43.13 45.156C45.5286 44.1401 48.6067 43.311 51.1351 42.454C55.6503 40.9243 60.1933 39.3839 64.7442 38.0117C72.2699 40.3057 79.7652 42.8222 87.1929 45.4129C87.7889 45.8964 88.0949 46.3215 88.1783 47.1043C88.271 47.9652 88.2936 50.5678 88.0644 51.3268C87.5823 52.9214 86.3572 52.7625 85.0181 52.7917H85.0208ZM64.3787 42.609C64.1403 42.6315 63.8661 42.7044 63.6264 42.7481C58.7496 44.4116 53.8093 45.9639 48.9855 47.7387C48.7431 48.0063 48.8901 48.4712 49.2252 48.5838L80.1188 48.6314C80.8274 48.6646 81.136 47.9414 80.4857 47.5613C75.7321 46.2924 70.9865 44.0871 66.2594 42.8514C65.576 42.6726 65.1032 42.5415 64.3787 42.609Z" fill="#A4A4A4"/>
<path d="M45.8599 73.9097C47.9685 73.8581 50.0943 73.9164 52.2055 73.9097C53.6253 73.9058 55.0492 73.9124 56.469 73.9097C58.5829 73.9058 60.7007 73.9124 62.8146 73.9097C64.2014 73.9084 65.5921 73.9084 66.9788 73.9097C69.0927 73.9124 71.2105 73.9058 73.3244 73.9097C74.7443 73.9124 76.1681 73.9058 77.5879 73.9097C79.6978 73.9164 81.8236 73.8581 83.9335 73.9097C85.0143 73.9362 85.9123 73.7389 86.6514 74.7124C87.3083 75.5773 87.1348 77.1878 87.107 78.2726H42.6904C42.6652 77.3216 42.5262 75.5773 43.044 74.8091C43.75 73.7614 44.7698 73.9376 45.8625 73.9097H45.8599Z" fill="#A4A4A4"/>
<path d="M87.103 78.2705C87.0818 79.0904 87.2143 79.7672 86.6898 80.485C86.2991 81.0201 85.6156 81.2811 84.9693 81.342L45.0122 81.3486C44.3301 81.3287 43.5804 81.0943 43.1407 80.5433C42.5751 79.836 42.7089 79.097 42.6864 78.2705H87.103Z" fill="#7A7A7A"/>
<path d="M52.2053 55.9634V70.8347H45.8597V55.9634C47.6094 56.0839 50.4703 56.1064 52.2053 55.9634Z" fill="#A4A4A4"/>
<path d="M83.9306 55.9634V70.8347H77.585V55.9634C79.3346 56.0839 82.1955 56.1064 83.9306 55.9634Z" fill="#A4A4A4"/>
<path d="M53.2954 52.792C53.1775 53.8886 53.7868 55.8343 52.2053 55.9641C50.4702 56.1071 47.6094 56.0846 45.8597 55.9641C44.2134 55.8502 44.9114 53.9403 44.7697 52.792C47.6054 52.8555 50.4597 52.7853 53.2954 52.792Z" fill="#7A7A7A"/>
<path d="M85.0208 52.792C84.903 53.8886 85.5122 55.8343 83.9308 55.9641C82.1957 56.1071 79.3348 56.0846 77.5852 55.9641C75.9388 55.8502 76.6369 53.9403 76.4951 52.792C79.3322 52.7853 82.1864 52.8555 85.0208 52.792Z" fill="#7A7A7A"/>
<path d="M52.2053 70.8354V73.9082C50.0954 73.9149 47.9696 73.8566 45.8597 73.9082V70.8354H52.2053Z" fill="#7E7E7E"/>
<path d="M83.9306 70.8354V73.9082C81.822 73.8566 79.6962 73.9149 77.585 73.9082V70.8354H83.9306Z" fill="#7E7E7E"/>
<path d="M64.3789 42.6084C65.1034 42.5395 65.5762 42.6719 66.2597 42.8508C70.9867 44.0865 75.7324 46.2931 80.486 47.5606C81.1363 47.9421 80.8277 48.6639 80.1191 48.6308L49.2255 48.5831C48.8904 48.4705 48.7447 48.0057 48.9857 47.7381C53.8095 45.9633 58.7498 44.411 63.6266 42.7474C63.8663 42.7037 64.1405 42.6309 64.3789 42.6084Z" fill="#7E7E7E"/>
<path d="M63.8054 52.7917C63.6371 53.8897 64.3855 55.8168 62.8133 55.9638C61.1736 56.1188 58.1286 56.0909 56.4677 55.9638C54.7697 55.834 55.5485 53.9916 55.3777 52.7917C58.1856 52.7956 60.9974 52.789 63.8054 52.7917Z" fill="#7D7D7D"/>
<path d="M74.413 52.7917C74.2673 53.932 74.9772 55.8274 73.3229 55.9638C71.6435 56.1029 68.6581 56.1015 66.9773 55.9638C65.2965 55.8261 66.1733 53.8976 65.9853 52.7917C68.7932 52.789 71.605 52.7956 74.413 52.7917Z" fill="#7D7D7D"/>
<path d="M62.8131 70.8354V73.9082C60.6993 73.9109 58.5814 73.9043 56.4675 73.9082V70.8354H62.8131Z" fill="#7E7E7E"/>
<path d="M73.3228 70.8354V73.9082C71.2089 73.9043 69.0911 73.9109 66.9772 73.9082V70.8354H73.3228Z" fill="#7E7E7E"/>
<path d="M62.8131 55.9634V70.8347H56.4675V55.9634C58.1284 56.0905 61.1721 56.1183 62.8131 55.9634Z" fill="#A4A4A4"/>
<path d="M73.3228 55.9634V70.8347H66.9772V55.9634C68.6566 56.1011 71.6433 56.1024 73.3228 55.9634Z" fill="#A4A4A4"/>
<defs>
<clipPath id="clip0_307_13805">
<rect width="57.6" height="72" fill="white" transform="translate(19 12)"/>
</clipPath>
</defs>
</svg>
