<svg width="208" height="208" viewBox="0 0 208 208" fill="none" xmlns="http://www.w3.org/2000/svg">
<path d="M66.2402 25.0397C79.8712 26.3564 92.4835 36.327 97.2411 49.047C106.442 73.6631 88.4298 99.8111 62.2114 99.7159V73.9985C62.2942 73.8908 62.522 73.4519 62.522 73.3774L79.5482 56.2228C78.6704 55.4153 73.507 49.751 72.948 49.8503L62.2114 60.3634C62.2321 48.5916 62.1948 36.8074 62.2114 25.0397C63.5198 25.1308 64.9566 24.9155 66.2402 25.0397Z" fill="#79B700"/>
<path d="M62.2105 25.0391C62.1939 36.8109 62.2312 48.5951 62.2105 60.3627C62.2105 60.4663 62.2105 60.5698 62.2105 60.6733L57.7179 65.0044C56.7863 64.3046 52.157 59.0377 51.5608 59.1454C50.7534 60.0232 45.089 65.1866 45.1884 65.7414L57.4695 77.9894C57.8545 78.1343 58.0616 77.9231 58.3514 77.7327C58.6785 77.5132 61.9662 74.3249 62.2105 73.9978V99.7152C34.0708 99.6159 16.1585 69.4928 29.5037 44.5538C34.9776 34.3265 46.5631 26.2688 58.1817 25.0391H62.2105Z" fill="#99E700"/>
<path d="M183.712 141.549H109.016V151.155H183.712V141.549Z" fill="#D2DEF1"/>
<path d="M183.712 38.9805H109.016V48.2762H183.712V38.9805Z" fill="#D1DDF1"/>
<path d="M183.712 160.45H109.016V169.746H183.712V160.45Z" fill="#D1DDF1"/>
<path d="M122.344 57.8828C122.849 57.9408 123.433 57.7958 123.959 57.9615C141.337 61.924 158.947 64.9136 176.333 68.8223C176.872 68.9424 179.691 69.4476 179.679 69.8119L167.588 82.2048L181.526 96.726L162.114 116.1L147.568 102.212L134.749 114.274C132.882 104.734 130.654 95.2561 128.551 85.7699C127.863 82.6644 127.068 79.5672 126.381 76.4742C125.694 73.3687 124.89 70.2674 124.211 67.1785C124.12 66.7561 124.257 66.1268 124.133 65.5636C123.569 63.0006 122.936 60.4376 122.352 57.8828H122.344Z" fill="#876EFF"/>
<path d="M62.2124 183.687V153.009L72.2865 162.918L78.9447 156.26L69.0361 146.343L78.9447 136.426L72.4397 129.909L62.2124 139.681C62.2124 139.577 62.2124 139.474 62.2124 139.37C62.2124 130.05 61.699 119.905 62.2 110.692C62.2331 110.104 62.3449 109.554 62.5229 109.003C80.9694 109.069 96.8777 122.795 99.3621 141.118C102.426 163.725 85.0686 183.754 62.2124 183.679V183.687Z" fill="#D5484D"/>
<path d="M62.5229 109.011C62.3449 109.562 62.2331 110.113 62.1999 110.701C61.6948 119.913 62.2124 130.058 62.2124 139.379L52.4488 129.776L45.7906 136.435L55.6991 146.351L45.9314 156.421L52.4488 162.922L62.2124 153.32V183.687C38.557 183.609 21.1125 161.937 25.7831 138.745C29.2737 121.417 44.8466 108.945 62.5229 109.007V109.011Z" fill="#E0804F"/>
<path d="M127.611 122.957H109.016V132.253H127.611V122.957Z" fill="#D1DDF1"/>
<path d="M126.373 76.4746C127.06 79.5677 127.855 82.6648 128.543 85.7703H109.016V76.4746H126.373Z" fill="#D1DDF1"/>
<path d="M122.344 57.8833C122.928 60.438 123.566 63.0011 124.125 65.5641C124.249 66.1272 124.112 66.7566 124.203 67.179H109.016V57.5727C113.015 57.8046 117.33 57.2704 121.297 57.552C121.86 57.5934 122.212 57.8708 122.344 57.8833Z" fill="#D2DDF1"/>
<path d="M62.5215 73.377C62.5215 73.3231 62.1944 72.8842 62.1903 72.3294C62.1696 68.4455 62.2027 64.5533 62.211 60.6735C62.211 60.57 62.211 60.4665 62.211 60.363L72.9476 49.8499C73.5025 49.7505 78.6658 55.4149 79.5478 56.2223L62.5215 73.377Z" fill="#CFDCEF"/>
<path d="M62.2109 60.6741C62.2026 64.5538 62.1654 68.446 62.1902 72.3299C62.1902 72.8848 62.5214 73.3237 62.5214 73.3775C62.5214 73.452 62.2937 73.8868 62.2109 73.9986C61.9666 74.3298 58.6789 77.514 58.3518 77.7334C58.062 77.928 57.855 78.1351 57.4699 77.9901L45.1888 65.7422C45.0894 65.1873 50.7538 60.024 51.5612 59.1462C52.1575 59.0385 56.7867 64.3054 57.7183 65.0051L62.2109 60.6741Z" fill="#E4ECF5"/>
<path d="M62.2109 153.009C62.2109 148.575 62.2109 144.124 62.2109 139.685L72.4383 129.913L78.9432 136.43L69.0347 146.347L78.9432 156.264L72.2851 162.922L62.2109 153.014V153.009Z" fill="#D2DBEF"/>
<path d="M62.2108 139.378C62.2108 139.482 62.2108 139.585 62.2108 139.689C62.2108 144.123 62.2108 148.575 62.2108 153.013V153.324L52.4472 162.926L45.9298 156.425L55.6976 146.355L45.7891 136.438L52.4472 129.78L62.2108 139.382V139.378Z" fill="#E5EBF5"/>
</svg>
