<svg width="180" height="180" viewBox="0 0 180 180" fill="none" xmlns="http://www.w3.org/2000/svg">
<path d="M64.8504 78.4004C58.4684 78.4934 53.6071 77.907 48.0259 81.6844C42.8249 85.207 40.4549 90.4445 40.1921 96.5999C35.808 96.6687 31.9133 99.8516 31.2217 104.219C31.0518 113.121 30.9952 122.047 31.0882 130.949C31.1246 134.313 30.5261 139.235 32.0225 142.2C33.4866 145.104 36.8878 147.316 40.188 147.098C40.5682 156.011 45.5912 162.559 54.2704 164.868C74.6256 165.479 95.2194 165.532 115.635 165.297C122.017 165.224 127.061 166.001 132.634 162.187C137.835 158.632 140.294 153.31 140.585 147.094C144.221 147.401 148.01 144.465 149.114 141.092C150.057 138.208 149.644 134.588 149.685 131.535C149.79 123.45 150.316 113.441 149.697 105.546C149.296 100.442 145.758 96.7981 140.585 96.604C140.047 86.0846 133.014 79.092 122.543 78.3923C120.707 78.271 118.677 78.4368 116.808 78.4044C116.513 78.4004 116.222 78.4085 115.926 78.4044C115.049 68.7506 107.51 69.4098 100.073 69.3047C91.9556 69.1914 82.0268 68.698 74.0796 69.2925C68.8463 69.6848 64.9596 72.985 64.8423 78.4044L64.8504 78.4004Z" fill="white"/>
<path d="M64.8519 78.4001C78.821 78.1938 92.859 78.3192 106.832 78.4001C109.861 78.4163 112.907 78.3556 115.932 78.4001C116.227 78.4041 116.518 78.396 116.814 78.4001L122.775 81.1017C126.366 83.2492 129.61 87.3098 130.702 91.3784C130.815 91.8071 131.179 92.4946 130.613 92.7858C128.296 87.6333 122.654 86.3311 117.991 88.968C113.966 91.2449 112.07 95.7868 107.245 96.5673C96.5434 95.9323 84.653 97.5218 74.0932 96.6118C67.9418 96.082 66.409 89.6515 60.9815 88.0014C55.4528 86.3149 49.7827 90.1166 49.2852 95.8595C48.0881 109.72 50.2033 125.282 49.2933 139.32C49.9242 143.478 53.1961 146.604 57.3537 147.109C76.7786 146.936 96.2158 147.3 115.637 147.097C121.825 147.033 129.335 148.214 131.195 140.347C131.681 140.655 131.487 141.46 131.495 141.957C131.563 147.676 131.794 152.209 128.498 157.172C125.549 161.612 120.838 164.367 115.637 165.301C95.2209 165.535 74.6271 165.479 54.2719 164.872C45.5927 162.563 40.5737 156.015 40.1895 147.101C40.0601 144.088 40.2137 141.019 40.1895 138.002C40.0762 124.506 39.6152 110.015 40.1895 96.6077C40.4524 90.4522 42.8223 85.2108 48.0234 81.6922C53.6046 77.9148 58.4699 78.5012 64.8478 78.4082L64.8519 78.4001Z" fill="#DEDCE7"/>
<path d="M140.593 96.6049C141.273 109.866 140.711 124.608 140.593 137.999C140.565 141.004 140.735 144.11 140.593 147.099C140.302 153.315 137.839 158.633 132.642 162.192C127.069 166.002 122.022 165.229 115.644 165.302C120.845 164.368 125.557 161.614 128.505 157.173C131.801 152.211 131.57 147.677 131.502 141.958C131.494 141.461 131.692 140.652 131.202 140.349C131.364 139.657 131.457 139.184 131.51 138.452C132.464 124.758 130.758 109.967 131.51 96.156C131.413 95.0074 131.089 93.8345 130.62 92.791C131.186 92.4998 130.822 91.8123 130.709 91.3836C129.617 87.315 126.373 83.2545 122.782 81.1069L116.821 78.4053C118.693 78.4377 120.72 78.2719 122.556 78.3932C133.026 79.0928 140.06 86.0855 140.597 96.6049H140.593Z" fill="#CCC8DF"/>
<path d="M100.079 69.3009L103.287 71.2301C105.402 72.9651 106.898 75.6182 106.829 78.4007C92.8602 78.3198 78.8182 78.1945 64.8491 78.4007C64.9623 72.9813 68.8489 69.6811 74.0863 69.2888C82.0335 68.6943 91.9583 69.1837 100.079 69.3009Z" fill="#876EFF"/>
<path d="M40.1921 96.605C39.6178 110.012 40.0789 124.499 40.1921 137.999C35.7353 138.193 32.4553 134.953 31.0924 130.954C30.9993 122.052 31.0519 113.126 31.2258 104.225C31.9133 99.8566 35.8121 96.6778 40.1962 96.605H40.1921Z" fill="#876EFF"/>
<path d="M149.692 131.536L147.929 134.322C146.028 136.571 143.682 138.136 140.588 137.991C140.705 124.6 141.268 109.858 140.588 96.5968C145.761 96.7909 149.3 100.439 149.7 105.539C150.323 113.433 149.797 123.443 149.688 131.528L149.692 131.536Z" fill="#6D2FF2"/>
<path d="M40.1938 137.995C40.218 141.012 40.0644 144.086 40.1938 147.095C36.8895 147.313 33.4923 145.101 32.0282 142.197C30.5359 139.237 31.1304 134.311 31.094 130.946C32.4569 134.946 35.7369 138.185 40.1938 137.991V137.995Z" fill="#5B4FD4"/>
<path d="M149.693 131.536C149.653 134.589 150.066 138.209 149.123 141.093C148.019 144.466 144.23 147.402 140.594 147.094C140.735 144.106 140.565 141 140.594 137.995C143.684 138.14 146.029 136.571 147.934 134.326L149.698 131.54L149.693 131.536Z" fill="#4E2B97"/>
<path d="M115.931 78.4011C112.902 78.3566 109.86 78.4172 106.831 78.4011C106.9 75.6145 105.403 72.9614 103.288 71.2305L100.081 69.3013C107.514 69.4064 115.053 68.7513 115.935 78.4011H115.931Z" fill="#5B4FD4"/>
<path d="M117.985 88.9735C119.578 89.7298 120.99 91.4567 121.653 93.0865C123 96.3948 122.442 105.114 122.393 109.086C122.385 109.583 122.583 110.392 122.094 110.696C120.124 106.271 111.922 108.293 113.487 114.166C114.571 118.23 120.456 118.469 122.094 114.805C122.579 115.108 122.385 115.917 122.393 116.414C122.474 123.059 123.153 133.283 122.312 139.536C121.807 143.293 118.947 145.728 115.635 147.099C96.214 147.301 76.7768 146.937 57.3518 147.111C53.1902 146.605 49.9224 143.479 49.2915 139.322C50.2014 125.284 48.0862 109.721 49.2834 95.861C49.7808 90.118 55.447 86.3204 60.9796 88.0028C66.4071 89.657 67.9399 96.0834 74.0914 96.6132C84.6511 97.5273 96.5415 95.9378 107.243 96.5688C112.072 95.7882 113.969 91.2464 117.989 88.9694L117.985 88.9735ZM61.5418 108.415C56.3569 109.49 57.8291 118.598 63.754 117.381C69.5253 116.196 68.13 107.044 61.5418 108.415ZM99.4939 119.795C93.5487 119.65 87.2395 119.65 81.2944 119.795C78.5442 119.86 74.9488 119.322 73.4038 122.327C71.4262 126.177 76.7243 132.604 79.7292 134.715C86.3134 139.346 95.3525 139.253 101.69 134.173C104.687 131.771 109.544 125.741 106.96 121.87C105.204 119.241 102.224 119.86 99.4939 119.795Z" fill="#3C3C3C"/>
<path d="M130.611 92.7863C131.08 93.8297 131.403 95.0026 131.5 96.1512C130.752 109.963 132.459 124.753 131.5 138.447C131.448 139.175 131.359 139.652 131.193 140.344C129.333 148.21 121.822 147.033 115.634 147.094C118.943 145.723 121.802 143.288 122.312 139.531C123.153 133.278 122.473 123.058 122.393 116.409C122.384 115.912 122.583 115.103 122.093 114.8C122.534 113.813 122.53 111.673 122.093 110.691C122.579 110.383 122.384 109.578 122.393 109.081C122.441 105.105 122.999 96.3858 121.652 93.0816C120.989 91.4558 119.582 89.7248 117.984 88.9685C122.647 86.3316 128.289 87.6298 130.607 92.7863H130.611Z" fill="#2E2E2E"/>
<path d="M81.2914 119.795C81.6352 131.964 98.9814 132.005 99.491 119.795C102.221 119.859 105.202 119.241 106.957 121.869C109.541 125.74 104.684 131.77 101.687 134.172C95.3496 139.252 86.3105 139.345 79.7263 134.714C76.7213 132.603 71.4232 126.173 73.4009 122.326C74.9459 119.321 78.5413 119.859 81.2914 119.795Z" fill="#A1F300"/>
<path d="M99.4939 119.795C98.9803 132.005 81.6381 131.965 81.2944 119.795C87.2395 119.65 93.5487 119.65 99.4939 119.795Z" fill="#FCFCFC"/>
<path d="M122.369 110.634C122.85 111.715 122.854 114.068 122.369 115.154C120.572 119.184 114.1 118.921 112.904 114.451C111.182 107.992 120.203 105.768 122.369 110.634Z" fill="#3C3C3C"/>
<path d="M112.097 110.695C112.533 111.678 112.537 113.817 112.097 114.804C110.463 118.468 104.578 118.229 103.49 114.165C101.925 108.293 110.127 106.27 112.097 110.695Z" fill="#FCFCFC"/>
<path d="M61.5418 108.415C68.1341 107.044 69.5253 116.196 63.754 117.381C57.825 118.598 56.3529 109.49 61.5418 108.415Z" fill="#3C3C3C"/>
<path d="M71.5396 108.415C78.1319 107.044 79.5231 116.196 73.7519 117.381C67.8228 118.599 66.3507 109.491 71.5396 108.415Z" fill="#FCFCFC"/>
<path d="M91.7622 15C98.5293 17.1074 102.606 23.0305 100.407 30.1352C99.7365 32.2886 98.2429 34.3141 97.4194 36.4317C93.5064 46.5184 95.6905 58.5693 95.1023 69.1931C91.1945 68.7634 87.8748 68.7583 83.9619 69.1931C83.3992 58.6716 85.4708 46.4161 81.6448 36.4317C80.5553 33.5878 78.3865 30.9075 78.0592 27.7669C77.6193 23.4704 79.6653 19.4142 83.0923 16.9181L87.6702 15H91.7622Z" fill="#A1F300"/>
</svg>
