<svg width="180" height="180" viewBox="0 0 180 180" fill="none" xmlns="http://www.w3.org/2000/svg">
<path d="M64.8504 51.5315C58.4684 51.6245 53.6071 51.038 48.0259 54.8155C42.8249 58.3381 40.4549 63.5755 40.1921 69.731C35.808 69.7998 31.9133 72.9827 31.2217 77.3505C31.0518 86.2521 30.9952 95.178 31.0882 104.08C31.1246 107.444 30.5261 112.366 32.0225 115.331C33.4866 118.235 36.8878 120.447 40.188 120.229C40.5682 129.142 45.5912 135.69 54.2704 138C74.6256 138.61 95.2194 138.663 115.635 138.428C122.017 138.355 127.061 139.132 132.634 135.318C137.835 131.763 140.294 126.441 140.585 120.225C144.221 120.532 148.01 117.596 149.114 114.223C150.057 111.339 149.644 107.72 149.685 104.666C149.79 96.5814 150.316 86.5717 149.697 78.6771C149.296 73.5731 145.758 69.9292 140.585 69.7351C140.047 59.2157 133.014 52.223 122.543 51.5234C120.707 51.402 118.677 51.5679 116.808 51.5355C116.513 51.5315 116.222 51.5396 115.926 51.5355C115.049 41.8817 107.51 42.5409 100.073 42.4357C91.9556 42.3225 82.0268 41.8291 74.0796 42.4236C68.8463 42.8159 64.9596 46.1161 64.8423 51.5355L64.8504 51.5315Z" fill="white"/>
<path d="M64.8519 51.5312C78.821 51.3249 92.859 51.4503 106.832 51.5312C109.861 51.5473 112.907 51.4867 115.932 51.5312C116.227 51.5352 116.518 51.5271 116.814 51.5312L122.775 54.2328C126.366 56.3803 129.61 60.4408 130.702 64.5094C130.815 64.9381 131.179 65.6257 130.613 65.9169C128.296 60.7644 122.654 59.4621 117.991 62.099C113.966 64.376 112.07 68.9178 107.245 69.6984C96.5434 69.0634 84.653 70.6528 74.0932 69.7429C67.9418 69.213 66.409 62.7825 60.9815 61.1324C55.4528 59.4459 49.7827 63.2476 49.2852 68.9906C48.0881 82.8506 50.2033 98.4132 49.2933 112.451C49.9242 116.609 53.1961 119.735 57.3537 120.241C76.7786 120.067 96.2158 120.431 115.637 120.228C121.825 120.164 129.335 121.345 131.195 113.478C131.681 113.786 131.487 114.591 131.495 115.088C131.563 120.807 131.794 125.34 128.498 130.303C125.549 134.744 120.838 137.498 115.637 138.432C95.2209 138.667 74.6271 138.61 54.2719 138.003C45.5927 135.694 40.5737 129.146 40.1895 120.232C40.0601 117.219 40.2137 114.15 40.1895 111.133C40.0762 97.6367 39.6152 83.1458 40.1895 69.7388C40.4524 63.5833 42.8223 58.3418 48.0234 54.8233C53.6046 51.0458 58.4699 51.6323 64.8478 51.5393L64.8519 51.5312Z" fill="#DEDCE7"/>
<path d="M140.593 69.7359C141.273 82.9974 140.711 97.739 140.593 111.13C140.565 114.135 140.735 117.241 140.593 120.23C140.302 126.446 137.839 131.764 132.642 135.323C127.069 139.133 122.022 138.36 115.644 138.433C120.845 137.499 125.557 134.745 128.505 130.304C131.801 125.342 131.57 120.808 131.502 115.089C131.494 114.592 131.692 113.783 131.202 113.48C131.364 112.788 131.457 112.315 131.51 111.583C132.464 97.8886 130.758 83.0985 131.51 69.287C131.413 68.1384 131.089 66.9655 130.62 65.9221C131.186 65.6309 130.822 64.9434 130.709 64.5147C129.617 60.4461 126.373 56.3855 122.782 54.238L116.821 51.5364C118.693 51.5687 120.72 51.4029 122.556 51.5242C133.026 52.2239 140.06 59.2166 140.597 69.7359H140.593Z" fill="#CCC8DF"/>
<path d="M100.079 42.432L103.287 44.3612C105.402 46.0962 106.898 48.7493 106.829 51.5318C92.8602 51.4509 78.8182 51.3255 64.8491 51.5318C64.9623 46.1124 68.8489 42.8122 74.0863 42.4199C82.0335 41.8254 91.9583 42.3147 100.079 42.432Z" fill="#876EFF"/>
<path d="M40.1921 69.7361C39.6178 83.1431 40.0789 97.6299 40.1921 111.13C35.7353 111.324 32.4553 108.085 31.0924 104.085C30.9993 95.1831 31.0519 86.2572 31.2258 77.3556C31.9133 72.9877 35.8121 69.8089 40.1962 69.7361H40.1921Z" fill="#876EFF"/>
<path d="M149.692 104.667L147.929 107.453C146.028 109.702 143.682 111.267 140.588 111.122C140.705 97.7309 141.268 82.9893 140.588 69.7278C145.761 69.922 149.3 73.57 149.7 78.6699C150.323 86.5644 149.797 96.5742 149.688 104.659L149.692 104.667Z" fill="#6D2FF2"/>
<path d="M40.1938 111.126C40.218 114.143 40.0644 117.217 40.1938 120.226C36.8895 120.444 33.4923 118.232 32.0282 115.328C30.5359 112.368 31.1304 107.442 31.094 104.077C32.4569 108.077 35.7369 111.316 40.1938 111.122V111.126Z" fill="#5B4FD4"/>
<path d="M149.693 104.667C149.653 107.72 150.066 111.34 149.123 114.224C148.019 117.597 144.23 120.533 140.594 120.225C140.735 117.237 140.565 114.131 140.594 111.126C143.684 111.271 146.029 109.702 147.934 107.457L149.698 104.671L149.693 104.667Z" fill="#4E2B97"/>
<path d="M115.931 51.5321C112.902 51.4876 109.86 51.5483 106.831 51.5321C106.9 48.7456 105.403 46.0925 103.288 44.3615L100.081 42.4324C107.514 42.5375 115.053 41.8823 115.935 51.5321H115.931Z" fill="#5B4FD4"/>
<path d="M117.985 62.1045C119.578 62.8608 120.99 64.5877 121.653 66.2176C123 69.5259 122.442 78.2455 122.393 82.2171C122.385 82.7145 122.583 83.5234 122.094 83.8267C120.124 79.4022 111.922 81.4243 113.487 87.2967C114.571 91.3613 120.456 91.5999 122.094 87.9358C122.579 88.2391 122.385 89.048 122.393 89.5454C122.474 96.1903 123.153 106.414 122.312 112.667C121.807 116.424 118.947 118.859 115.635 120.23C96.214 120.432 76.7768 120.068 57.3518 120.242C53.1902 119.736 49.9224 116.61 49.2915 112.453C50.2014 98.4147 48.0862 82.852 49.2834 68.9921C49.7808 63.2491 55.447 59.4514 60.9796 61.1339C66.4071 62.788 67.9399 69.2145 74.0914 69.7443C84.6511 70.6583 96.5415 69.0689 107.243 69.6998C112.072 68.9193 113.969 64.3775 117.989 62.1005L117.985 62.1045ZM61.5418 81.5457C56.3569 82.6215 57.8291 91.7294 63.754 90.512C69.5253 89.327 68.13 80.1747 61.5418 81.5457ZM99.4939 92.9265C93.5487 92.7809 87.2395 92.7809 81.2944 92.9265C78.5442 92.9912 74.9488 92.4533 73.4038 95.4582C71.4262 99.3085 76.7243 105.735 79.7292 107.846C86.3134 112.477 95.3525 112.384 101.69 107.304C104.687 104.902 109.544 98.8717 106.96 95.0012C105.204 92.3724 102.224 92.9912 99.4939 92.9265Z" fill="#3C3C3C"/>
<path d="M130.611 65.9174C131.08 66.9608 131.403 68.1337 131.5 69.2823C130.752 83.0937 132.459 97.8839 131.5 111.578C131.448 112.306 131.359 112.783 131.193 113.475C129.333 121.341 121.822 120.164 115.634 120.225C118.943 118.854 121.802 116.419 122.312 112.662C123.153 106.409 122.473 96.1893 122.393 89.5404C122.384 89.0429 122.583 88.2341 122.093 87.9308C122.534 86.9439 122.53 84.8045 122.093 83.8217C122.579 83.5143 122.384 82.7095 122.393 82.212C122.441 78.2365 122.999 69.5169 121.652 66.2126C120.989 64.5868 119.582 62.8558 117.984 62.0995C122.647 59.4626 128.289 60.7608 130.607 65.9174H130.611Z" fill="#2E2E2E"/>
<path d="M81.2914 92.9257C81.6352 105.095 98.9814 105.136 99.491 92.9257C102.221 92.9905 105.202 92.3717 106.957 95.0005C109.541 98.8709 104.684 104.901 101.687 107.303C95.3496 112.383 86.3105 112.476 79.7263 107.845C76.7213 105.734 71.4232 99.3037 73.4009 95.4575C74.9459 92.4526 78.5413 92.9905 81.2914 92.9257Z" fill="#A1F300"/>
<path d="M99.4939 92.9265C98.9803 105.136 81.6381 105.096 81.2944 92.9265C87.2395 92.7809 93.5487 92.7809 99.4939 92.9265Z" fill="#FCFCFC"/>
<path d="M122.369 83.7653C122.85 84.8462 122.854 87.1992 122.369 88.2846C120.572 92.3146 114.1 92.0521 112.904 87.5817C111.182 81.1231 120.203 78.899 122.369 83.7653Z" fill="#3C3C3C"/>
<path d="M112.097 83.826C112.533 84.8087 112.537 86.9482 112.097 87.935C110.463 91.5992 104.578 91.3606 103.49 87.296C101.925 81.4236 110.127 79.4015 112.097 83.826Z" fill="#FCFCFC"/>
<path d="M61.5418 81.5457C68.1341 80.1747 69.5253 89.327 63.754 90.512C57.825 91.7294 56.3529 82.6215 61.5418 81.5457Z" fill="#3C3C3C"/>
<path d="M71.5396 81.546C78.1319 80.175 79.5231 89.3274 73.7519 90.5124C67.8228 91.7297 66.3507 82.6218 71.5396 81.546Z" fill="#FCFCFC"/>
<rect x="72" y="92" width="39" height="20" fill="#3C3C3C"/>
<ellipse cx="91" cy="100.5" rx="13" ry="9.5" fill="#A1F300"/>
<path fill-rule="evenodd" clip-rule="evenodd" d="M91.5 100C95.0899 100 98 97.0899 98 93.5C98 93.1441 97.9714 92.795 97.9164 92.4546C95.9133 91.5331 93.5418 91 91 91C88.9048 91 86.9254 91.3622 85.1726 92.0056C85.0597 92.4854 85 92.9857 85 93.5C85 97.0899 87.9101 100 91.5 100Z" fill="white"/>
</svg>
