<svg width="102" height="102" viewBox="0 0 102 102" fill="none" xmlns="http://www.w3.org/2000/svg">
<g clip-path="url(#clip0_307_13807)">
<path d="M19 84V12H62.2016L76.6021 25.5V84H19Z" fill="#F5F7FF"/>
<path d="M62.2015 25.5V12L76.6021 25.5H62.2015Z" fill="#E8E8F4"/>
<rect x="19" y="12" width="9.9696" height="72" fill="#E8E8F4"/>
<rect x="24.2365" y="20.5093" width="18.8516" height="2.12727" fill="#E2E2ED"/>
<rect x="24.2363" y="29.0186" width="18.8516" height="2.12727" fill="#E2E2ED"/>
<rect x="24.2363" y="33.2725" width="18.8516" height="2.12727" fill="#E2E2ED"/>
<rect x="24.2363" y="24.7642" width="2.09459" height="2.1273" fill="#E2E2ED"/>
<rect x="28.4254" y="24.7642" width="2.09459" height="2.1273" fill="#E2E2ED"/>
<rect x="32.6149" y="24.7642" width="10.473" height="2.1273" fill="#E2E2ED"/>
</g>
<path d="M55.8524 64.3478C56.2778 67.3676 59.8544 71.4371 61.9837 73.5953C62.8501 74.4738 64.7312 76.2971 65.9555 76.344C66.4219 76.3621 66.6846 76.3718 66.9871 75.9777C67.4486 75.3764 67.9065 72.1493 68.0174 71.2346C68.2668 69.1692 68.4765 66.3578 67.5787 64.4369C67.6727 64.2875 67.921 64.3466 68.074 64.3453C72.417 64.2996 76.7673 64.3417 81.1091 64.3465C81.3404 66.2674 80.8729 68.0943 81.7538 69.9717C82.7636 72.124 84.5784 72.2264 86.4318 71.0225C88.643 69.5849 89.9867 66.9097 90.4012 64.3478C90.8109 64.3309 91.258 64.2706 91.3857 64.7466C91.1459 66.4325 90.7832 68.0943 90.1987 69.6922C89.1889 72.4469 87.4958 74.8691 85.6208 77.0671C85.5509 77.149 85.4942 77.1888 85.44 77.2478C85.2147 77.237 85.1833 77.4057 85.0797 77.519C82.484 80.3388 76.2599 82.2018 72.5002 82.303C62.1717 82.5802 52.4192 74.7546 51.2539 64.349H55.8548L55.8524 64.3478Z" fill="#60B6FE"/>
<path d="M77.5916 61.1908C73.474 61.1945 69.3515 61.1945 65.2338 61.1908C65.0507 61.0643 64.9193 60.9149 64.9025 60.6823C64.8603 60.1111 65.123 58.7759 65.3242 58.2144C65.6146 57.4022 66.6618 55.8693 67.3993 55.4186C68.7586 54.5872 70.9819 54.4968 72.4895 54.8836C75.2996 55.6066 77.5109 58.2746 77.5929 61.1908H77.5916Z" fill="#60B6FE"/>
<path d="M64.5119 61.1905C60.4978 61.1869 56.4814 61.1905 52.4662 61.1953C51.7058 61.2616 51.8432 60.4398 51.8853 59.8842C51.989 58.5129 53.1121 56.1317 54.3196 55.4183C55.4258 54.764 57.6057 54.4989 58.853 54.7182C61.827 55.2412 64.5251 58.12 64.5119 61.1917V61.1905Z" fill="#FF7781"/>
<path d="M84.2664 54.6064C84.3255 54.7486 84.658 54.7486 84.7171 54.6064C84.7761 54.6016 84.8388 54.6124 84.8979 54.6064L87.2706 55.6162C89.2252 56.7683 90.5712 58.9024 90.6713 61.1908C86.7042 61.333 82.5709 61.1872 78.5846 61.1908C78.9678 60.9932 78.8871 60.3629 78.8581 59.9701C78.8172 59.4097 78.4556 58.5891 78.4942 58.1239C78.5496 57.4467 79.8644 55.7416 80.4789 55.4174C81.6647 54.792 82.8878 54.7076 84.1772 54.6052C84.2074 54.6028 84.2375 54.6076 84.2676 54.6052L84.2664 54.6064Z" fill="#C39E6C"/>
<path d="M82.1021 45.2251L86.8319 45.2311C87.2283 45.2588 87.8755 45.8975 87.8755 46.2627V47.8413C88.4129 47.8136 89.5746 47.4075 90.0385 47.6171C90.5266 47.8377 90.7061 48.9897 90.4904 49.4645C90.0723 49.885 89.336 50.3683 88.7768 50.5466C86.8006 51.1781 83.1565 51.1491 81.1995 50.4562C80.6825 50.2731 79.616 49.6006 79.3196 49.1343C78.9243 48.5125 78.9653 48.1727 79.3051 47.5701L81.8309 47.8413C81.9213 47.646 81.7478 47.3954 81.7405 47.3002C81.702 46.8218 81.7092 45.8553 81.8996 45.4263C81.9562 45.2986 82.0599 45.2793 82.1008 45.2263L82.1021 45.2251Z" fill="#C39E6C"/>
<path d="M61.4451 53.5226C61.321 53.7359 61.1125 53.8516 60.9944 54.0637C60.7534 54.0637 59.9231 54.5216 59.4833 54.5818C58.9567 54.6541 58.3337 54.6216 57.8191 54.489C57.507 54.4083 57.0105 54.0769 56.7551 54.0649C54.7728 52.6031 54.3546 49.8737 56.214 48.1119C56.2682 48.2939 56.4839 48.1119 56.5755 48.0673C60.0436 46.4188 63.3491 50.2376 61.4451 53.5238V53.5226Z" fill="#F0CABB"/>
<path d="M74.1644 53.7037C74.0752 53.7856 74.009 53.8941 73.8933 53.9748C73.1196 54.5134 72.2098 54.7255 71.2723 54.5665C70.7481 54.4773 70.2914 54.0471 69.8335 54.0652C69.5635 53.5735 69.1442 53.2506 68.8586 52.7396C68.6911 52.4408 68.4597 51.9551 68.3898 51.6298C68.109 50.3175 68.2609 49.0196 69.2924 48.1122C72.4255 47.0228 75.6647 48.4942 74.7163 52.2287L74.1632 53.7049L74.1644 53.7037Z" fill="#F0CABB"/>
<path d="M73.8933 45.225C75.4756 45.8071 76.7782 47.464 77.1012 49.0981C77.1385 49.2873 77.2373 49.8922 77.2277 50.0465C77.2 50.5068 75.8515 51.3756 75.4261 51.6299C75.772 50.1031 75.3755 48.3485 73.8825 47.6255C72.4702 46.9422 70.4674 47.076 69.2924 48.1111C68.2621 49.0198 68.1103 50.3164 68.3899 51.6287C67.9645 51.3744 66.6172 50.5056 66.5883 50.0453C66.5787 49.8922 66.6775 49.2861 66.7148 49.0969C67.0378 47.4616 68.3404 45.8059 69.9227 45.2238C71.1663 44.7659 72.6497 44.7671 73.8921 45.2238L73.8933 45.225Z" fill="#625361"/>
<path d="M66.9474 63.2646V63.355L66.8811 63.4008C66.8919 63.4285 66.9365 63.4285 66.9474 63.4454C67.139 63.7443 67.4354 64.1299 67.5788 64.4372C68.4754 66.358 68.2669 69.1694 68.0175 71.2349C67.9066 72.1495 67.4499 75.3766 66.9871 75.9779C66.6847 76.372 66.422 76.3624 65.9556 76.3443C66.2557 74.8657 66.5859 73.3714 66.7558 71.8675C66.963 70.037 67.0896 68.0162 66.5413 66.2411C66.3846 65.735 65.8532 64.4155 65.2832 64.342C62.1392 64.3504 58.9952 64.3468 55.8525 64.3468C55.8091 64.0383 55.8031 63.6708 55.7621 63.355C59.2977 63.3297 62.8357 63.3864 66.3714 63.3611C66.5364 63.3611 66.6606 63.2646 66.6762 63.2646C66.7666 63.2646 66.857 63.2646 66.9474 63.2646Z" fill="#00CC8A"/>
<path d="M80.9296 63.2643V63.3547C81.0477 63.6825 81.0694 64.0054 81.1104 64.3465C76.7686 64.3417 72.4171 64.2995 68.0753 64.3453C67.9223 64.3465 67.674 64.2874 67.5801 64.4369C67.4367 64.1284 67.1402 63.744 66.9486 63.4451V63.2643C71.6061 63.2342 76.2721 63.2583 80.9296 63.2643Z" fill="#58A5E5"/>
<path d="M73.8933 53.9746C75.2189 54.4229 76.4251 55.1953 77.318 56.2775C77.8049 56.8667 78.058 57.5187 78.493 58.1236C78.4544 58.5888 78.8159 59.4094 78.8569 59.9697C78.8858 60.3638 78.9666 60.9928 78.5834 61.1905C78.2532 61.1905 77.9206 61.1905 77.5916 61.1905C77.5097 58.273 75.2984 55.6062 72.4882 54.8832C70.9807 54.4952 68.7586 54.5856 67.3981 55.4183C67.9235 54.9338 69.1189 54.0939 69.8335 54.065C70.2902 54.0469 70.7481 54.4771 71.2723 54.5663C72.2098 54.7254 73.1197 54.5133 73.8933 53.9746Z" fill="#58A5E5"/>
<path d="M81.1995 51.2681C83.295 51.7983 85.3665 51.9598 87.5139 51.6284C87.5706 52.7069 86.8777 53.489 86.3414 54.3349C85.6859 54.5374 85.581 54.5434 84.8978 54.6061C84.8387 54.6121 84.7773 54.6012 84.717 54.6061C84.5688 54.6181 84.4145 54.5952 84.2663 54.6061C84.2362 54.6085 84.2061 54.6037 84.1759 54.6061C83.8349 54.4976 83.1372 54.0614 82.8227 54.065C81.9611 53.295 81.3019 52.4731 81.1995 51.2693V51.2681Z" fill="#F0CABB"/>
<path d="M87.0632 54.0642C87.2488 54.0618 87.9441 54.3642 88.1501 54.4655C90.1168 55.4416 91.7761 57.7625 91.9328 59.9738C92.0256 61.2812 91.8039 61.1499 90.6711 61.1897C90.5711 58.9001 89.2263 56.7659 87.2705 55.6151L84.8977 54.6053C85.581 54.5426 85.6858 54.5378 86.3414 54.3341C86.5583 54.2666 86.8969 54.0666 87.0632 54.063V54.0642Z" fill="#B08E62"/>
<path d="M56.755 54.0637C57.0093 54.0758 57.5069 54.4071 57.819 54.4879C58.3336 54.6216 58.9566 54.653 59.4832 54.5807C59.9243 54.5204 60.7545 54.0625 60.9944 54.0625C61.2113 54.0625 61.9921 54.459 62.2271 54.5879C63.5876 55.335 64.8782 56.7124 65.3241 58.2115C65.1229 58.7743 64.8614 60.1082 64.9023 60.6794C64.9192 60.912 65.0494 61.0602 65.2337 61.188C64.9939 61.188 64.7517 61.188 64.5119 61.188C64.5252 58.1163 61.8271 55.2374 58.853 54.7144C57.6058 54.4951 55.4246 54.7602 54.3196 55.4146C54.8341 54.9928 56.0886 54.03 56.755 54.0613V54.0637Z" fill="#ED707A"/>
<path d="M85.6196 77.0658C87.4935 74.8678 89.1878 72.4468 90.1976 69.6909C90.7833 68.093 91.146 66.4312 91.3846 64.7453C91.2569 64.2693 90.8098 64.3296 90.4001 64.3464C90.4543 64.0102 90.5398 63.7102 90.4904 63.3547V63.2643C90.9869 63.2715 92.5511 63.0619 92.6559 63.674C92.7186 64.044 92.4342 65.3466 92.3402 65.7913C91.4521 69.9981 89.1299 73.9471 85.9811 76.8416C85.8703 76.9441 85.7956 77.067 85.6184 77.0658H85.6196Z" fill="#58A5E5"/>
<path d="M88.7768 50.5464C88.8672 51.9913 88.1599 53.1951 87.0633 54.064C86.8982 54.0664 86.5583 54.2676 86.3414 54.3351C86.8777 53.4892 87.5706 52.7071 87.514 51.6286C85.3666 51.96 83.2951 51.7985 81.1995 51.2683C81.1766 51.0031 81.2151 50.7236 81.1995 50.4561C83.1553 51.149 86.8006 51.1779 88.7768 50.5464Z" fill="#D9B7A9"/>
<path d="M61.4451 53.5227C63.3491 50.2365 60.0436 46.4177 56.5755 48.0662C56.4839 48.1096 56.2682 48.2916 56.214 48.1108C57.4733 46.9178 59.182 46.6696 60.7257 47.5227C62.8755 48.7109 63.3599 51.9127 61.4463 53.5227H61.4451Z" fill="#D9B7A9"/>
<path d="M82.1022 45.2251C82.336 44.919 82.4637 44.7515 82.877 44.6924C83.723 44.5719 86.3295 44.5852 87.1983 44.684C87.4731 44.7153 87.8129 44.8479 88.0105 45.0443C88.1154 45.1479 88.4166 45.7107 88.4166 45.8107V47.299C89.3976 47.2592 90.5158 46.5036 91.0087 47.7292C91.3365 48.5462 91.0268 48.9258 90.4917 49.4644C90.7062 48.9896 90.5279 47.8376 90.0398 47.6171C89.5518 47.3966 88.4142 47.8123 87.8768 47.8412V46.2626C87.8768 45.8975 87.2297 45.2588 86.8332 45.2311L82.1034 45.2251H82.1022Z" fill="#B29064"/>
<path d="M75.4273 51.6284C75.2586 52.3755 74.7187 53.1938 74.1644 53.7035L74.7175 52.2273C75.6659 48.4929 72.4267 47.0215 69.2936 48.1108C70.4685 47.0757 72.4713 46.942 73.8836 47.6252C75.3767 48.347 75.7731 50.1016 75.4273 51.6296V51.6284Z" fill="#D9B7A9"/>
<path d="M66.6774 63.2646C66.6618 63.2646 66.5377 63.3598 66.3726 63.361C62.8369 63.3851 59.2977 63.3285 55.7633 63.355C55.8043 63.6707 55.8103 64.0394 55.8537 64.3467H51.2528C51.2504 64.325 51.166 64.2455 51.1588 64.1286C51.1323 63.696 51.1516 63.326 51.6541 63.2598L66.6774 63.2646Z" fill="#5FB6DC"/>
<path d="M73.8933 45.2248C72.6509 44.7681 71.1686 44.7669 69.9238 45.2248C70.0455 42.5194 73.7547 42.5026 73.8933 45.2248Z" fill="#4F454E"/>
<path d="M82.8239 54.064C83.1384 54.0604 83.8361 54.4966 84.1772 54.6051C82.8878 54.7063 81.6647 54.7918 80.4789 55.4173C80.8235 54.9726 82.3057 54.07 82.8239 54.064Z" fill="#B29064"/>
<path d="M81.7406 47.2987C81.7478 47.3939 81.9213 47.6446 81.831 47.8398L79.3052 47.5687C79.4245 47.3578 79.4895 47.089 79.8041 47.0288C80.2957 46.9348 81.2092 47.2698 81.7406 47.2975V47.2987Z" fill="#B29064"/>
<path d="M90.4904 63.2645V63.3549H80.9283V63.2645C84.1121 63.2682 87.3067 63.2224 90.4904 63.2645Z" fill="#5FB6DC"/>
<path d="M85.4388 77.2471C85.3352 77.3579 85.2074 77.4411 85.0785 77.5182C85.1821 77.4049 85.2147 77.2362 85.4388 77.2471Z" fill="#58A5E5"/>
<path d="M65.9556 76.3444C64.7312 76.2974 62.8502 74.4741 61.9837 73.5956C59.8544 71.4362 56.2778 67.3679 55.8524 64.3481C58.9952 64.3481 62.1392 64.3517 65.2832 64.3433C65.8531 64.4168 66.3846 65.7363 66.5412 66.2424C67.0895 68.0175 66.963 70.0383 66.7557 71.8688C66.5858 73.3727 66.2556 74.867 65.9556 76.3456V76.3444Z" fill="#00E399"/>
<path d="M81.1091 64.3479C83.8133 64.3503 86.5222 64.3455 89.2276 64.3479C89.0709 66.1603 88.525 67.945 87.5513 69.4814C87.2079 70.0225 86.7789 70.4876 86.4318 71.0227C84.5785 72.2277 82.7637 72.1241 81.7538 69.9719C80.8741 68.0956 81.3417 66.2675 81.1091 64.3467V64.3479Z" fill="#00E399"/>
<path d="M90.4904 63.355C90.541 63.7117 90.4543 64.0117 90.4 64.3467C89.9855 66.9087 88.6419 69.5839 86.4306 71.0215C86.7789 70.4877 87.2078 70.0225 87.5501 69.4803C88.5238 67.9438 89.0697 66.1591 89.2263 64.3467C86.5222 64.3443 83.8132 64.3491 81.1079 64.3467C81.0669 64.0057 81.0464 63.6828 80.9271 63.355H90.4892H90.4904Z" fill="#00CC8A"/>
<path d="M84.7181 54.606C84.6591 54.7482 84.3265 54.7482 84.2675 54.606C84.4157 54.5952 84.5699 54.6181 84.7181 54.606Z" fill="#B29064"/>
<path d="M66.9474 63.4454C66.9365 63.4273 66.8907 63.4285 66.8811 63.4008L66.9474 63.355V63.4454Z" fill="#5FB6DC"/>
<defs>
<clipPath id="clip0_307_13807">
<rect width="57.6021" height="72" fill="white" transform="translate(19 12)"/>
</clipPath>
</defs>
</svg>
