<svg width="150" height="150" viewBox="0 0 150 150" fill="none" xmlns="http://www.w3.org/2000/svg">
<path d="M67.2675 13.7051C70.1762 14.5393 72.8291 16.0224 74.2482 18.8095C74.8012 19.8963 75.0665 22.2008 75.5235 22.7953C76.0541 23.4857 76.5783 23.2364 77.3166 23.2747C77.6586 23.8565 78.2116 24.1825 78.5632 24.7802C79.4741 26.3368 79.4517 32.4321 79.2312 34.401C79.0266 36.2133 77.9175 37.1722 76.3609 37.869C66.9127 37.9553 57.455 37.7986 48.0036 37.8753C47.0798 37.8817 45.3123 36.4722 45.0183 35.7178C44.59 34.6119 44.6539 28.686 44.7689 27.2125C44.8041 26.7459 44.884 26.3496 45.0183 25.9085C45.3762 24.7163 46.4054 23.6423 47.636 23.3834C49.5122 22.9903 54.3673 23.719 55.5436 23.1565C56.2372 22.8273 56.4481 20.6953 56.7709 19.8387C58.0303 16.4954 60.7983 14.6128 64.1576 13.7051H67.2675ZM65.289 19.2506C62.08 19.9187 63.8251 25.0678 66.7689 23.3738C69.1629 21.9962 67.3986 18.8127 65.289 19.2506Z" fill="#A1F300"/>
<path d="M45.0188 25.908C44.8845 26.3491 44.8078 26.7454 44.7695 27.2121C44.6544 28.6855 44.5873 34.6114 45.0188 35.7173C41.6243 36.0689 37.2199 35.2187 33.9501 35.7749C32.2432 36.0658 30.9615 37.5328 30.6834 39.2077L30.6515 122.458C30.7665 124.564 32.272 126.169 34.3688 126.396C52.1912 126.31 70.0233 126.511 87.8425 126.396C90.6041 126.377 94.9415 126.77 97.4761 126.338C98.5788 126.15 100.113 125.018 100.525 124.002C100.922 124.251 100.765 124.91 100.768 125.315C100.81 128.588 101.283 132.239 98.4957 134.537L96.2168 136.205C73.2131 136.397 50.1967 136.061 27.1899 136.205C23.8466 135.716 21.3983 133.044 21.3184 129.634L21.3919 31.591C21.8298 28.7783 24 26.4993 26.8191 26.0134L45.0156 25.9048L45.0188 25.908Z" fill="#876EFF"/>
<path d="M90.9564 55.3369C94.06 55.6214 98.0521 57.162 100.766 58.6866C104.039 60.5245 107.999 63.9349 110.096 67.0609C115.769 75.5183 115.955 87.8591 110.575 96.489C109.878 97.6077 107.913 100.082 106.986 101.034C105.909 102.143 103.265 104.275 101.961 105.103C101.702 105.269 101.005 105.688 100.766 105.822C98.1224 107.276 93.9513 108.558 90.9564 108.932C89.8025 109.076 88.4186 109.079 87.2391 109.181L83.7807 108.692C84.5127 108.613 86.4528 108.005 87.2583 107.743C96.5946 104.719 104.179 96.032 105.314 86.2034C105.73 84.1738 105.733 80.0985 105.314 78.0689C103.927 66.6613 94.6161 57.7885 83.541 55.5799C85.7273 55.2826 88.7574 55.1388 90.9564 55.3401V55.3369Z" fill="#8C64E2"/>
<path d="M110.096 67.0609C107.999 63.9349 104.039 60.5277 100.766 58.6866L100.775 39.4163C100.743 38.9912 100.686 38.5021 100.526 38.1122C100.922 37.8629 100.766 37.2044 100.769 36.7985C100.804 33.9123 101.207 30.6649 99.2124 28.2996L96.2207 25.9088C101.856 25.9344 109.035 24.5376 110.109 32.0009L110.099 67.0609H110.096Z" fill="#825FCC"/>
<path d="M101.961 105.099C104.661 107.889 107.349 110.728 110.095 113.473V130.337C108.82 137.627 101.801 136.154 96.2168 136.202L98.4957 134.533C101.28 132.235 100.807 128.585 100.768 125.312C100.762 124.906 100.922 124.248 100.525 123.999C100.685 123.605 100.74 123.123 100.775 122.694C101.216 117.286 100.426 111.284 100.765 105.815C101.005 105.684 101.702 105.262 101.961 105.096V105.099Z" fill="#825FCC"/>
<path d="M124.929 123.043C122.462 123.931 120.566 123.487 118.585 121.851C115.903 119.642 112.653 116.027 110.095 113.47C107.35 110.724 104.662 107.886 101.961 105.096C103.265 104.268 105.905 102.136 106.986 101.027L123.494 117.654C123.881 118.181 124.456 119.287 124.584 119.914C124.808 120.991 124.437 122.094 124.929 123.036V123.043Z" fill="#A1F300"/>
<path d="M124.924 123.043C124.432 122.1 124.803 120.994 124.579 119.92C124.451 119.297 123.876 118.188 123.489 117.66L106.98 101.033C107.907 100.081 109.873 97.607 110.57 96.4883L127.325 113.112C130.32 116.459 129.169 121.518 124.928 123.046L124.924 123.043Z" fill="#7FBF00"/>
<path d="M96.2169 25.9086L99.2086 28.2994C101.206 30.6647 100.8 33.9121 100.765 36.7983C100.759 37.2043 100.919 37.8627 100.522 38.112C100.11 37.0988 98.5757 35.9641 97.473 35.7755C94.9735 35.3504 90.569 35.718 87.8394 35.718H86.4043C86.5226 35.4335 86.6248 34.5354 86.6536 34.171C86.7623 32.7199 86.9061 27.0401 86.644 25.9054C89.8307 25.915 93.027 25.8926 96.2137 25.9054L96.2169 25.9086Z" fill="#876EFF"/>
<path d="M86.6463 25.9081C86.9116 27.0428 86.7645 32.7226 86.6558 34.1737C86.6303 34.5349 86.5248 35.4362 86.4065 35.7207C86.1317 36.3727 84.5687 37.6704 83.8399 37.8206C82.0148 38.1914 78.419 37.8558 76.3574 37.875C77.9172 37.1782 79.0263 36.2193 79.2277 34.407C79.4482 32.4381 79.4706 26.346 78.5597 24.7862C78.2113 24.1885 77.6551 23.8625 77.3131 23.2808C79.5281 23.4022 83.3381 22.747 85.0897 23.9967C85.4317 24.2397 86.5696 25.5949 86.6431 25.9113L86.6463 25.9081Z" fill="#7FBF00"/>
<path d="M45.0223 35.7182C45.3164 36.4725 47.0839 37.8853 48.0076 37.8757C57.459 37.799 66.9168 37.9588 76.365 37.8693C78.4234 37.8502 82.0224 38.1858 83.8475 37.815C84.5762 37.668 86.1392 36.367 86.4141 35.715H87.8492C89.3036 36.3798 90.7067 37.4985 90.9368 39.2054L90.9592 55.3338C88.7602 55.1324 85.7301 55.2762 83.5438 55.5735C63.0205 58.3606 53.5244 83.7263 67.0287 99.484C70.2537 103.246 78.6727 109.255 83.7835 108.689L87.2419 109.178C88.4246 109.076 89.8086 109.073 90.9592 108.929L90.9017 123.108C90.5245 124.856 89.3994 125.722 87.8492 126.393C70.03 126.509 52.1979 126.307 34.3755 126.393C32.2787 126.167 30.7733 124.562 30.6582 122.456L30.6902 39.2054C30.9682 37.5305 32.25 36.0634 33.9568 35.7726C37.2266 35.2164 41.631 36.0666 45.0255 35.715L45.0223 35.7182ZM40.1671 45.339C38.2238 45.7769 38.2717 48.7974 40.3525 48.8805L71.951 48.8869C73.9263 48.6312 74.1564 45.5628 71.7048 45.2815L40.1671 45.3358V45.339ZM39.9274 62.324C38.3612 63.0272 38.3005 65.5619 40.132 65.8495C44.757 66.5751 51.1048 65.3285 55.9216 65.8783C58.012 65.6002 57.9832 62.6181 55.896 62.2921L39.9306 62.3272L39.9274 62.324ZM39.9274 79.3123C38.2941 79.9643 38.4539 82.5277 40.1224 82.8474C41.2283 83.0583 49.2925 83.0583 50.3984 82.8474C52.1372 82.5181 52.2299 79.7501 50.3984 79.2675L39.9242 79.3123H39.9274ZM39.9274 96.2973C38.2909 97.1731 38.3676 99.158 40.1224 99.8324L55.9216 99.8516C57.9129 99.4456 58.0823 96.9685 56.1421 96.2557L39.9274 96.3005V96.2973ZM39.9274 113.286C38.0512 113.717 38.5466 116.875 40.5891 116.827H71.7016C74.1532 116.543 73.9231 113.477 71.9478 113.222L39.9274 113.286Z" fill="#F9F9F9"/>
<path d="M65.2905 19.251C67.4001 18.8131 69.1644 21.9965 66.7704 23.3741C63.8266 25.0682 62.0815 19.919 65.2905 19.251Z" fill="#8B8389"/>
<path d="M100.764 105.818C100.426 111.287 101.215 117.289 100.774 122.697C100.739 123.126 100.684 123.608 100.525 124.002C100.112 125.015 98.5781 126.149 97.4754 126.338C94.9407 126.769 90.6034 126.376 87.8418 126.396C89.392 125.724 90.5171 124.858 90.8942 123.11L90.9518 108.931C93.9467 108.557 98.1178 107.275 100.761 105.821L100.764 105.818Z" fill="#F9F9F9"/>
<path d="M105.308 78.0648C105.727 80.0977 105.724 84.1698 105.308 86.1994C103.237 96.2964 91.9412 102.468 82.2118 99.3648C66.4733 94.3435 65.2043 72.1837 80.3387 65.6569C90.4517 61.2972 103.055 67.1144 105.308 78.0648ZM94.7092 76.1982L85.0884 85.7167C84.7624 85.7167 81.5917 81.715 80.4922 81.4657C78.5456 81.0246 77.4685 82.415 78.2132 84.2273C78.4146 84.7163 82.5058 88.7404 83.1163 89.1304C84.6377 90.102 85.7117 90.0445 87.1276 88.9578C90.5029 86.3624 93.6896 81.8237 97.0297 79.0046C98.0301 77.3393 96.5439 75.6453 94.7092 76.2014V76.1982Z" fill="#F9F9F9"/>
<path d="M83.537 55.576C94.6089 57.7878 103.923 66.6574 105.31 78.065C103.06 67.1145 90.4538 61.2973 80.3407 65.657C65.2064 72.1838 66.4721 94.3468 82.2138 99.365C91.9433 102.469 103.239 96.2966 105.31 86.1995C104.175 96.0281 96.5906 104.716 87.2543 107.739C86.4488 108.001 84.5087 108.605 83.7767 108.689C78.6691 109.254 70.2469 103.245 67.0219 99.4832C53.5176 83.7256 63.0105 58.3599 83.537 55.5728V55.576Z" fill="#8C64E2"/>
<path d="M100.523 38.108C100.683 38.498 100.741 38.987 100.773 39.4121L100.763 58.6825C98.0494 57.1578 94.0573 55.6172 90.9537 55.3327L90.9313 39.2043C90.698 37.4975 89.2981 36.3788 87.8438 35.714C90.5734 35.714 94.9747 35.3464 97.4773 35.7715C98.5801 35.9601 100.114 37.0916 100.527 38.108H100.523Z" fill="#F9F9F9"/>
<path d="M40.1657 45.3385L71.7034 45.2842C74.1549 45.5686 73.9248 48.6339 71.9495 48.8896L40.351 48.8832C38.2703 48.7969 38.2223 45.7764 40.1657 45.3417V45.3385Z" fill="#8A818A"/>
<path d="M39.9233 113.285L71.9436 113.221C73.9189 113.476 74.149 116.545 71.6975 116.826H40.5849C38.5457 116.871 38.0471 113.713 39.9233 113.285Z" fill="#8A818A"/>
<path d="M39.9295 62.3237L55.8949 62.2886C57.9821 62.6146 58.0141 65.5999 55.9205 65.8748C51.1069 65.3251 44.7591 66.5716 40.1309 65.846C38.2994 65.5584 38.3601 63.0237 39.9263 62.3206L39.9295 62.3237Z" fill="#8A818A"/>
<path d="M39.9243 96.2972L56.139 96.2524C58.0792 96.9652 57.9098 99.4423 55.9185 99.8483L40.1193 99.8291C38.3645 99.1547 38.2878 97.1698 39.9243 96.294V96.2972Z" fill="#8A818A"/>
<path d="M39.9242 79.3109L50.3985 79.2661C52.2299 79.7456 52.1372 82.5136 50.3985 82.846C49.2925 83.0569 41.2251 83.0569 40.1224 82.846C38.454 82.5295 38.2941 79.9629 39.9274 79.3109H39.9242Z" fill="#8A818A"/>
<path d="M94.7097 76.1987C96.5444 75.6425 98.0339 77.3366 97.0302 79.0018C93.6901 81.8209 90.5034 86.3597 87.1282 88.955C85.7122 90.0418 84.6383 90.0993 83.1168 89.1277C82.5031 88.7377 78.4119 84.7104 78.2137 84.2245C77.469 82.4122 78.5462 81.0219 80.4927 81.4629C81.5922 81.7122 84.7629 85.714 85.0889 85.714L94.7097 76.1955V76.1987Z" fill="#8C64E2"/>
</svg>
