<svg width="260" height="260" viewBox="0 0 260 260" fill="none" xmlns="http://www.w3.org/2000/svg">
<path d="M159.634 55C165.363 56.8808 162.942 63.5752 163.439 68.1698C135.457 68.0603 107.37 68.0095 79.4344 68.4631C75.4968 67.5637 70.4994 67.8609 69.776 72.7057V191.688C66.2802 191.551 63.6213 191.223 63.0308 187.168C63.2498 144.143 62.6671 101.028 63.3241 58.0578C63.9145 56.3764 65.2127 55.8876 66.5579 55H159.638H159.634Z" fill="#DCCCFF"/>
<path d="M168.417 55C173.931 57.0138 171.358 63.7199 171.929 68.1698C169.105 68.1424 166.267 68.1815 163.439 68.1698C162.939 63.5752 165.363 56.8808 159.635 55H168.417Z" fill="#9D8CEC"/>
<path d="M163.438 68.1697C166.261 68.1814 169.104 68.1423 171.927 68.1697C172.318 68.1736 172.709 68.1658 173.097 68.1697L175.501 70.598L176.326 73.5776C176.096 116.102 176.737 158.712 176.006 201.186C175.599 202.961 174.23 203.935 172.803 204.861C141.846 205.198 110.86 204.631 79.8988 204.834C78.2917 204.678 76.3052 202.984 75.9885 201.428C75.5115 199.078 75.9455 194.351 75.922 191.692C75.5858 151.568 75.9416 111.308 76.1997 71.2314C76.8214 69.8159 77.8694 68.7484 79.4335 68.4669C107.369 68.0133 135.456 68.0641 163.438 68.1736V68.1697ZM99.5675 86.6809C89.3226 87.7602 93.2798 103.98 103.145 99.6396C109.863 96.6834 107.083 85.8911 99.5675 86.6809ZM115.94 86.6732C113.535 87.205 114.024 90.9432 116.456 91.0057H167.106C170.105 90.6616 169.824 86.9077 167.407 86.5949L115.94 86.6732ZM115.94 96.0422C113.633 96.922 113.856 100.168 116.456 100.375H156.274C159.109 100.132 159.109 96.2103 156.274 95.9718L115.94 96.0422ZM115.94 115.652C113.633 116.532 113.856 119.778 116.456 119.985L167.407 119.993C169.824 119.68 170.105 115.926 167.106 115.582L115.94 115.652ZM98.676 115.949C92.4273 117.009 91.4967 126.628 97.8822 128.896C108.663 132.728 110.591 113.924 98.676 115.949ZM157.788 128.959C159.25 127.618 158.312 124.982 156.278 124.947H116.46C113.242 125.318 113.774 129.514 116.753 129.643C129.29 128.767 143.351 130.777 155.704 129.651C156.384 129.588 157.283 129.424 157.792 128.955L157.788 128.959ZM114.935 148.581C115.33 148.976 116.444 149.261 117.035 149.265L167.106 149.257C170.066 148.964 170.07 144.854 167.106 144.561L116.452 144.553C114.524 144.682 113.602 147.24 114.935 148.581ZM98.9693 144.932C95.2819 145.519 92.9904 149.265 93.5574 152.839C94.3004 157.524 100.123 159.936 104.006 157.281C110.055 153.144 106.274 143.775 98.9732 144.932H98.9693ZM157.796 154.599C157.401 154.204 156.286 153.918 155.696 153.914L116.745 153.922C113.746 154.274 113.273 158.251 116.452 158.618H156.271C158.347 158.599 159.149 155.959 157.792 154.595L157.796 154.599ZM99.5714 173.916C88.7791 174.94 94.0384 192.165 103.818 186.362C109.867 182.772 106.653 173.243 99.5714 173.916ZM168.623 174.217C168.189 173.865 167.642 173.845 167.11 173.826H116.151C113.762 174.131 113.504 177.877 116.745 178.236H167.102C169.124 178.287 170.082 175.398 168.619 174.221L168.623 174.217ZM115.94 183.265C113.582 183.785 113.914 187.57 116.456 187.598H156.274C159.109 187.355 159.109 183.433 156.274 183.195L115.94 183.265Z" fill="#F5F3FF"/>
<path d="M172.809 204.862C174.236 203.935 175.604 202.961 176.011 201.186C176.742 158.713 176.101 116.102 176.332 73.5779L175.507 70.5983L173.102 68.17C177.603 68.2208 183.804 66.8131 184.809 72.7059L184.821 200.044C184.254 206.387 177.427 204.811 172.809 204.862Z" fill="#DDD6FC"/>
<path d="M79.4338 68.4634C77.8697 68.7449 76.8217 69.8164 76.2 71.228C75.9419 111.304 75.5822 151.565 75.9224 191.688C73.8812 191.63 71.8126 191.766 69.7754 191.688V72.706C70.5027 67.8612 75.4961 67.564 79.4338 68.4634Z" fill="#9D8CEC"/>
<path d="M217.497 106.278L179.361 151.462C179.393 151.873 183.725 154.567 183.872 155.648C182.312 154.332 180.688 153.048 179.174 151.684C179.135 151.651 179.013 151.153 178.62 150.806C176.319 148.762 173.833 146.899 171.534 144.852C171.619 144.703 171.545 144.093 171.933 143.894C184.565 129.201 196.812 114.168 209.444 99.4807L217.497 106.278Z" fill="#876EFF"/>
<path d="M222.638 110.618C209.991 125.851 196.991 140.817 184.315 156.024L183.867 155.646C183.72 154.565 179.393 151.87 179.356 151.46L217.492 106.275L222.638 110.618Z" fill="#654BE3"/>
<path d="M224.767 94.0299C223.381 93.7198 224.355 94.3783 224.372 95.2065C224.395 96.2591 224.093 98.4601 223.442 99.2311L217.684 106.053L222.83 110.396C222.767 110.471 222.703 110.546 222.64 110.62L209.444 99.4828C211.412 97.1935 214.944 92.0998 217.567 91.1259C220.642 89.9862 222.603 92.265 224.77 94.0324L224.767 94.0299Z" fill="#A1F300"/>
<path d="M222.824 110.397L217.678 106.054L223.436 99.232C224.089 98.458 224.389 96.26 224.366 95.2074C224.349 94.3792 223.375 93.7207 224.761 94.0308C226.77 95.6701 229.723 97.5486 229.697 100.362C229.672 103.405 224.853 107.945 222.821 110.395L222.824 110.397Z" fill="#87CD00"/>
<path d="M183.867 155.651L184.315 156.029C181.489 157.497 178.598 158.874 175.743 160.287L170.597 155.944L179.169 151.686C180.683 153.051 182.307 154.334 183.867 155.651Z" fill="#9CC5FA"/>
<path d="M179.169 151.686L170.596 155.944L168.582 154.244C169.515 151.168 169.951 147.693 171.526 144.857C173.825 146.905 176.31 148.762 178.612 150.812C179.005 151.159 179.127 151.656 179.166 151.689L179.169 151.686Z" fill="#BFD6F7"/>
<path d="M175.742 160.281C173.728 161.278 169.762 163.753 167.874 164.268C164.424 165.209 166.61 159.927 167.057 158.416C167.224 157.86 167.679 157.345 167.779 157.009C168.742 156.952 169.611 156.304 170.372 155.749L175.739 160.278L175.742 160.281Z" fill="#2C4F68"/>
<path d="M170.377 155.751C169.613 156.304 168.747 156.955 167.783 157.011C168.032 156.177 168.314 155.146 168.59 154.243L170.38 155.754L170.377 155.751Z" fill="#6E5ACE"/>
<path d="M114.935 148.581C113.601 147.24 114.524 144.679 116.452 144.553L167.106 144.561C170.07 144.855 170.066 148.964 167.106 149.258L117.035 149.265C116.448 149.261 115.33 148.98 114.935 148.581Z" fill="#6E5ACE"/>
<path d="M168.625 174.217C170.083 175.398 169.129 178.284 167.108 178.233H116.751C113.509 177.873 113.771 174.127 116.157 173.822H167.115C167.647 173.846 168.195 173.865 168.629 174.217H168.625Z" fill="#6E5ACE"/>
<path d="M115.942 86.6734L167.409 86.5952C169.826 86.908 170.107 90.6619 167.108 91.006H116.458C114.026 90.9396 113.533 87.2052 115.942 86.6734Z" fill="#6E5ACE"/>
<path d="M115.94 115.653L167.106 115.582C170.106 115.93 169.824 119.68 167.407 119.993L116.456 119.985C113.856 119.774 113.633 116.529 115.94 115.653Z" fill="#6E5ACE"/>
<path d="M157.789 128.959C157.281 129.425 156.381 129.593 155.701 129.655C143.348 130.782 129.287 128.772 116.751 129.648C113.771 129.515 113.239 125.323 116.457 124.951H156.276C158.313 124.987 159.248 127.622 157.785 128.963L157.789 128.959Z" fill="#6E5ACE"/>
<path d="M157.796 154.599C159.152 155.96 158.351 158.603 156.274 158.623H116.456C113.273 158.255 113.75 154.278 116.749 153.927L155.7 153.919C156.29 153.923 157.405 154.204 157.799 154.603L157.796 154.599Z" fill="#6E5ACE"/>
<path d="M115.941 183.265L156.275 183.195C159.11 183.437 159.11 187.359 156.275 187.598H116.457C113.915 187.57 113.583 183.785 115.941 183.265Z" fill="#6E5ACE"/>
<path d="M115.94 96.0426L156.275 95.9722C159.11 96.2146 159.11 100.137 156.275 100.375H116.456C113.856 100.164 113.633 96.9185 115.94 96.0426Z" fill="#6E5ACE"/>
<path d="M99.5674 86.6812C107.083 85.8875 109.863 96.6838 103.145 99.6399C93.2797 103.984 89.3224 87.7605 99.5674 86.6812Z" fill="#876EFF"/>
<path d="M98.9703 144.933C106.271 143.776 110.056 153.145 104.003 157.282C100.124 159.937 94.2975 157.524 93.5546 152.84C92.9876 149.266 95.279 145.516 98.9664 144.933H98.9703Z" fill="#876EFF"/>
<path d="M99.5727 173.916C106.654 173.243 109.865 182.777 103.819 186.362C94.0397 192.165 88.7803 174.937 99.5727 173.916Z" fill="#876EFF"/>
<path d="M98.6762 115.95C110.591 113.924 108.663 132.733 97.8824 128.897C91.4969 126.625 92.4276 117.01 98.6762 115.95Z" fill="#876EFF"/>
</svg>
