<svg width="90" height="90" viewBox="0 0 90 90" fill="none" xmlns="http://www.w3.org/2000/svg">
<circle cx="45.0014" cy="45.0002" r="40.7143" fill="#D3CCF0"/>
<path d="M44.9484 26.4423V33.12C40.1855 33.159 35.7727 36.0663 34.0665 40.5471C31.1123 48.3054 36.7061 56.4005 44.9484 56.4931V59.832C44.2325 59.832 43.3693 59.6324 42.7247 59.329C41.5315 58.7681 41.2683 57.6417 39.687 57.9651C38.6186 58.1837 38.2941 59.6769 38.8785 60.5044C40.0606 62.1805 42.9679 63.1608 44.9484 63.1708V73.1874C38.5317 73.1874 32.1104 73.1874 25.6937 73.1874C17.5417 71.6641 18.2699 60.1531 26.5847 59.832L26.5791 43.8547C26.8512 38.9201 29.4106 33.6653 33.2613 30.5584C34.2259 29.78 35.4939 29.0083 36.6002 28.444C39.1706 27.1326 42.0556 26.4534 44.9473 26.4412L44.9484 26.4423Z" fill="#A1F300"/>
<path d="M53.2994 28.4452C54.4313 29.0151 55.6614 29.7533 56.6383 30.5596C60.4255 33.6832 63.0339 38.7049 63.3205 43.6329L63.3149 59.832C69.4752 59.861 72.4348 67.5424 67.6039 71.6318C66.8389 72.2797 65.3111 73.0681 64.3174 73.1875H44.9512V63.1709C46.954 63.1809 49.4732 62.2854 50.8494 60.7777C52.1842 59.3157 50.5962 57.0976 48.7673 58.1392C48.4707 58.3087 48.3145 58.5942 48.0581 58.7648C47.0711 59.4205 46.1756 59.832 44.9512 59.832V56.4932C51.0668 56.5623 56.2825 51.631 56.6427 45.5354C57.0386 38.8342 51.6791 33.0654 44.9512 33.12V26.4423C47.9544 26.429 50.633 27.1048 53.2983 28.4452H53.2994Z" fill="#876EFF"/>
<path d="M56.6331 25.9953C55.7521 26.2752 54.1719 26.2808 53.2943 25.9953C48.0808 24.3013 49.264 15.9185 55.2481 16.1962C60.7916 16.4538 61.6169 24.4117 56.6343 25.9953H56.6331Z" fill="#876EFF"/>
<path d="M36.5985 25.9959C35.7175 26.2758 34.1373 26.2814 33.2597 25.9959C28.2871 24.38 29.0866 16.5079 34.6458 16.1968C40.5909 15.8644 41.8053 24.3409 36.5985 25.9959Z" fill="#A1F300"/>
<path d="M36.5967 25.9958V28.4448C35.4904 29.0091 34.2224 29.7819 33.2578 30.5592V25.9958C34.1366 26.2813 35.7157 26.2758 36.5967 25.9958Z" fill="#669900"/>
<path d="M56.6358 25.9958V30.5592C55.6577 29.7529 54.4288 29.0135 53.2969 28.4448V25.9958C54.1756 26.2813 55.7548 26.2758 56.6358 25.9958Z" fill="#5B4FD4"/>
<path d="M44.9487 33.1193V39.797C38.3278 39.8706 38.3446 49.7422 44.9487 49.8136V56.4913C36.7075 56.3987 31.1126 48.3047 34.0667 40.5453C35.773 36.0645 40.1846 33.1561 44.9487 33.1182V33.1193Z" fill="#F1EFFA"/>
<path d="M44.9473 59.8316V63.1704C42.9656 63.1604 40.0595 62.179 38.8774 60.504C38.293 59.6766 38.6175 58.1833 39.6859 57.9648C41.2672 57.6414 41.5293 58.7677 42.7236 59.3286C43.3693 59.632 44.2314 59.8316 44.9473 59.8316Z" fill="#6D2FF2"/>
<path d="M44.9512 56.4932V49.8155C51.5519 49.888 51.5609 39.7253 44.9512 39.799V33.1212C51.6791 33.0666 57.0397 38.8354 56.6427 45.5366C56.2825 51.6322 51.0657 56.5635 44.9512 56.4943V56.4932Z" fill="#C7C6CE"/>
<path d="M44.9512 63.1706V59.8318C46.1756 59.8318 47.0711 59.4203 48.0581 58.7645C48.3157 58.5939 48.4707 58.3073 48.7673 58.1389C50.5962 57.0973 52.1842 59.3154 50.8494 60.7774C49.4732 62.2852 46.9529 63.1818 44.9512 63.1706Z" fill="#4E2B97"/>
<path d="M44.9476 39.7974V49.8139C38.3435 49.7415 38.3268 39.8699 44.9476 39.7974Z" fill="#535353"/>
<path d="M44.9512 49.8148V39.7982C51.5609 39.7246 51.5519 49.8873 44.9512 49.8148Z" fill="#3C3C3C"/>
</svg>
