<svg width="25" height="24" viewBox="0 0 25 24" fill="none" xmlns="http://www.w3.org/2000/svg">
<g clip-path="url(#clip0_183_16737)">
<circle cx="12.1819" cy="11.9998" r="11.2" fill="#E4DDFF"/>
<path d="M12.7159 4.00017L13.9098 4.22769C16.7699 4.98956 18.8443 7.73896 18.7133 10.7184C18.4867 10.6299 18.2426 10.5572 17.9947 10.5623C17.8165 10.2492 17.6304 10.05 17.2453 10.0621C17.0779 8.00572 15.561 6.20061 13.583 5.64789C13.0013 5.4855 12.3199 5.42205 11.7165 5.46839C11.5441 5.14402 11.4194 4.914 11.4807 4.52951C11.5132 4.32496 11.6338 4.18928 11.6852 3.99976H12.7159V4.00017Z" fill="#A08FF2"/>
<path d="M11.6851 4C11.6334 4.18911 11.5132 4.3252 11.4807 4.52976C11.4193 4.91466 11.5441 5.14426 11.7164 5.46863C11.4652 5.48783 11.1151 5.56924 10.8664 5.63394C8.84126 6.15953 7.31103 7.97716 7.12491 10.0624C6.73975 10.0503 6.55363 10.2494 6.37544 10.5625C6.1355 10.5663 5.84881 10.6289 5.62598 10.7186C5.63015 9.88704 5.74741 9.07675 6.03159 8.29651C6.79233 6.20628 8.64805 4.57777 10.8359 4.13484L11.623 4H11.6856H11.6851Z" fill="#A08FF2"/>
<path d="M18.713 10.7188C19.296 10.9463 19.7475 11.408 19.9996 11.9787L20.1815 12.6249V13.3746C20.0325 14.0372 19.7116 14.6195 19.1358 15.0002C18.973 15.1079 18.6792 15.2612 18.4948 15.3121C18.3517 15.3513 18.1459 15.3693 17.9949 15.3747V10.5626C18.2423 10.5576 18.4865 10.6303 18.7135 10.7188H18.713Z" fill="#8671EA"/>
<path d="M6.37499 10.5622V15.3743C4.81763 15.2762 3.90917 13.8167 4.25511 12.3314C4.41452 11.6476 4.97245 10.9813 5.62552 10.7179C5.84835 10.6281 6.13504 10.5655 6.37499 10.5618V10.5622Z" fill="#8671EA"/>
<path d="M7.1244 10.0625C7.4766 10.0734 7.70861 10.2821 7.8096 10.6115V15.3259C7.69109 15.8761 6.94412 16.0736 6.56188 15.6628C6.53434 15.6331 6.37952 15.3964 6.37451 15.3747V10.5627C6.5527 10.2496 6.73881 10.0504 7.12398 10.0625H7.1244Z" fill="#A08FF2"/>
<path d="M17.245 10.0625C17.6302 10.0504 17.8163 10.2496 17.9945 10.5627V15.3747C17.8868 15.5551 17.7395 15.7772 17.5259 15.8435C17.0856 15.9801 16.6533 15.7442 16.5569 15.2975L16.5594 10.6115C16.6604 10.2821 16.8924 10.0738 17.2446 10.0625H17.245Z" fill="#A08FF2"/>
<path d="M15.465 18.062C15.6152 18.3985 15.6169 18.6941 15.465 19.0305C15.1541 19.7202 14.2644 20.0107 13.5596 19.999L13.1385 19.2484C12.8222 18.4473 13.0526 17.7418 13.5596 17.0927C14.2648 17.0802 15.1562 17.369 15.465 18.0612V18.062Z" fill="#A08FF2"/>
<path d="M18.4946 15.312C18.4938 15.8343 18.5238 16.3452 18.3986 16.8566C18.0777 18.1666 16.8091 19.0996 15.4646 19.0308C15.6165 18.6943 15.6148 18.3987 15.4646 18.0622C16.7161 18.1169 17.6212 17.0704 17.5261 15.8434C17.7393 15.7775 17.887 15.555 17.9947 15.3746C18.1457 15.3692 18.3515 15.3513 18.4946 15.312Z" fill="#6F778F"/>
<path d="M13.5592 17.0934C13.0522 17.7421 12.8214 18.448 13.1382 19.2492L13.5592 19.9998C12.6445 19.9847 11.4139 19.2963 11.7381 18.2247C11.9643 17.477 12.8377 17.1063 13.5592 17.0934Z" fill="#8671EA"/>
</g>
<defs>
<clipPath id="clip0_183_16737">
<rect width="24" height="24" fill="white" transform="translate(0.181885)"/>
</clipPath>
</defs>
</svg>
