<svg width="30" height="30" viewBox="0 0 30 30" fill="none" xmlns="http://www.w3.org/2000/svg">
<path d="M29.5 15C29.5 23.0081 23.0081 29.5 15 29.5C6.99187 29.5 0.5 23.0081 0.5 15C0.5 6.99187 6.99187 0.5 15 0.5C23.0081 0.5 29.5 6.99187 29.5 15Z" fill="#ECECEC" stroke="#D6D6D6"/>
<path d="M21.993 11.9C21.888 10.9284 21.104 10.1621 20.11 10.0595C20.005 10.0526 19.872 10.0526 19.613 10.0526H19.424C18.885 10.0184 18.409 9.68316 18.213 9.19737C18.192 9.15632 18.178 9.11526 18.15 9.02632C18.122 8.93737 18.108 8.89632 18.087 8.85526C17.891 8.36947 17.415 8.03421 16.876 8H13.124C12.585 8.03421 12.109 8.36947 11.913 8.85526C11.892 8.89632 11.878 8.93737 11.85 9.02632C11.822 9.11526 11.808 9.15632 11.787 9.19737C11.591 9.68316 11.115 10.0184 10.576 10.0526H10.387C10.128 10.0526 9.995 10.0526 9.89 10.0595C8.896 10.1621 8.112 10.9284 8.007 11.9C8 12.0026 8 12.1258 8 12.3653V17.7158C8 18.8653 8 19.44 8.231 19.8779C8.427 20.2679 8.749 20.5826 9.148 20.7742C9.596 21 10.184 21 11.36 21H18.64C19.816 21 20.404 21 20.852 20.7742C21.251 20.5826 21.573 20.2679 21.769 19.8779C22 19.44 22 18.8653 22 17.7158V12.3653C22 12.1258 22 12.0026 21.993 11.9ZM15 17.9211C13.453 17.9211 12.2 16.6963 12.2 15.1842C12.2 13.6721 13.453 12.4474 15 12.4474C16.547 12.4474 17.8 13.6721 17.8 15.1842C17.8 16.6963 16.547 17.9211 15 17.9211Z" fill="#8F8F8F"/>
</svg>
