<svg width="19" height="18" viewBox="0 0 19 18" fill="none" xmlns="http://www.w3.org/2000/svg">
<path d="M9.5 1.5C13.6422 1.5 17 4.8585 17 9C17 13.1415 13.6422 16.5 9.5 16.5C5.35775 16.5 2 13.1415 2 9C2 4.8585 5.35775 1.5 9.5 1.5ZM9.50135 11.2528C9.08772 11.2528 8.75232 11.5881 8.75232 12.0018C8.75232 12.4154 9.08772 12.7507 9.50135 12.7507C9.91497 12.7507 10.2504 12.4154 10.2504 12.0018C10.2504 11.5881 9.91497 11.2528 9.50135 11.2528ZM9.4997 5.25C9.1151 5.25013 8.79822 5.53978 8.75502 5.9128L8.75 6.00027L8.75135 9.7509L8.75645 9.83842C8.79987 10.2114 9.11697 10.5008 9.50165 10.5007C9.88625 10.5005 10.2031 10.2109 10.2463 9.83782L10.2513 9.75037L10.25 5.99973L10.2449 5.91226C10.2015 5.53927 9.88437 5.24986 9.4997 5.25Z" fill="#6838CE"/>
</svg>
