<svg width="18" height="18" viewBox="0 0 18 18" fill="none" xmlns="http://www.w3.org/2000/svg">
<path d="M9 1.5C13.1422 1.5 16.5 4.8585 16.5 9C16.5 13.1415 13.1422 16.5 9 16.5C4.85775 16.5 1.5 13.1415 1.5 9C1.5 4.8585 4.85775 1.5 9 1.5ZM9.00135 11.2528C8.58772 11.2528 8.25232 11.5881 8.25232 12.0018C8.25232 12.4154 8.58772 12.7507 9.00135 12.7507C9.41497 12.7507 9.75037 12.4154 9.75037 12.0018C9.75037 11.5881 9.41497 11.2528 9.00135 11.2528ZM8.9997 5.25C8.6151 5.25013 8.29822 5.53978 8.25502 5.9128L8.25 6.00027L8.25135 9.7509L8.25645 9.83842C8.29987 10.2114 8.61697 10.5008 9.00165 10.5007C9.38625 10.5005 9.70312 10.2109 9.74632 9.83782L9.75135 9.75037L9.75 5.99973L9.7449 5.91226C9.70148 5.53927 9.38437 5.24986 8.9997 5.25Z" fill="#B9B9B9"/>
</svg>
