<svg width="30" height="30" viewBox="0 0 30 30" fill="none" xmlns="http://www.w3.org/2000/svg">
<path d="M15.6931 26.9924H15.5456C15.5168 26.8508 15.6177 26.9097 15.7081 26.8922C17.2349 26.5959 18.3286 25.7678 19.0363 24.4456C20.5015 21.709 19.0383 18.4236 17.4787 16.0284C17.1609 15.5405 16.7291 14.6021 15.9866 14.9229C15.3006 15.2185 15.585 16.5001 15.545 17.1258C15.4952 17.9075 15.3051 18.7406 14.9565 19.4465V3.79098C15.4709 3.43395 16.5056 2.55264 17.0377 3.27861C17.2467 3.56361 17.3024 4.59148 17.383 5.01052C17.5534 5.89621 17.9079 7.29803 18.3319 8.08789C18.4262 8.26327 18.5278 8.4255 18.7591 8.43427C18.9904 8.44304 19.8115 7.89496 20.1227 7.76656C20.5998 7.56925 21.4431 7.26671 21.8966 7.58742C22.4575 7.98454 22.0702 8.51006 21.9844 9.02932C21.4031 12.5389 24.017 15.5755 23.8342 19.0463C23.6461 22.6141 21.2885 25.8818 17.5278 26.6598L15.6924 26.9918L15.6931 26.9924Z" fill="#FFA88A"/>
<path d="M14.9618 19.4457C15.3098 18.7404 15.4998 17.9067 15.5503 17.125C15.5902 16.4993 15.3058 15.2183 15.9919 14.9221C16.735 14.602 17.1668 15.5403 17.484 16.0276C19.0435 18.4229 20.5068 21.7082 19.0416 24.4448C18.3339 25.7671 17.2402 26.5945 15.7134 26.8914C15.623 26.9089 15.5221 26.8494 15.5509 26.9916H14.9625L14.9133 19.586C14.9409 19.5365 14.9435 19.4833 14.9625 19.4457H14.9618Z" fill="#FFE96C"/>
<path d="M14.9618 26.9922C14.6748 26.9746 14.3616 27.0166 14.0792 26.9922C13.9193 26.9784 13.6028 26.902 13.4416 26.8518C10.9588 26.0708 9.87952 23.5646 10.2668 21.2164C10.3657 20.6169 10.5695 19.7363 11.4227 19.9925C11.5963 20.0444 11.8335 20.3006 12.0347 20.3915C13.0871 20.8694 14.3531 20.5925 14.9133 19.5859L14.9625 26.9915L14.9618 26.9922Z" fill="#FFE96C"/>
<path d="M14.9603 19.4463C14.9413 19.4845 14.9387 19.5377 14.9112 19.5866C14.3509 20.5925 13.0849 20.8694 12.0326 20.3921C11.8314 20.3006 11.5942 20.0451 11.4205 19.9931C10.5674 19.7369 10.3629 20.6176 10.2646 21.217C9.87736 23.5653 10.9573 26.0714 13.4394 26.8525C10.8924 26.5405 8.71228 24.8825 7.44694 22.8061C5.96144 20.3683 5.6646 17.4387 6.35132 14.7122C6.50662 14.0958 6.6344 13.2602 7.52623 13.497C8.19986 13.6755 8.90559 14.1115 9.59494 14.2894C10.2784 14.233 10.0137 13.6179 10.0038 13.1913C9.91012 9.16939 11.5981 6.12397 14.9597 3.79199V19.4469L14.9603 19.4463Z" fill="#FFA88A"/>
</svg>
