<svg width="17" height="16" viewBox="0 0 17 16" fill="none" xmlns="http://www.w3.org/2000/svg">
<path d="M9.26695 9.87158L9.2637 14.2661C9.22574 14.6306 8.98603 14.8808 8.64474 14.9867H8.32007C8.03228 14.8851 7.79294 14.6877 7.72714 14.3753L7.72461 9.87158C8.16244 9.94208 8.83021 9.94425 9.26732 9.87158H9.26695Z" fill="#A1F300"/>
<path d="M11.3226 2.18566L11.152 3.38164C10.5887 6.08201 8.52209 8.28165 5.88318 9.05969C3.8701 7.61026 3.47204 4.74972 5.01837 2.79558C6.57879 0.823721 9.40823 0.556179 11.3226 2.18566ZM6.87742 2.92284C5.80255 3.09024 5.80183 4.74936 6.85031 4.91242C8.47183 5.16478 8.43893 2.67953 6.87742 2.92284Z" fill="#A1F300"/>
<path d="M9.26578 9.87136C8.82867 9.94403 8.1609 9.94186 7.72307 9.87136C7.07952 9.7676 6.40633 9.43642 5.88281 9.05933C8.52172 8.28129 10.5883 6.08166 11.1516 3.38129L11.3222 2.1853C14.1188 4.56571 12.9047 9.26758 9.26542 9.871L9.26578 9.87136Z" fill="#87CD00"/>
<path d="M6.87625 2.9228C8.43776 2.67948 8.47066 5.16473 6.84914 4.91237C5.80066 4.74932 5.80138 3.09019 6.87625 2.9228Z" fill="#FFFEFE"/>
</svg>
