<svg width="42" height="42" viewBox="0 0 42 42" fill="none" xmlns="http://www.w3.org/2000/svg">
<path d="M21.2354 11.605V14.8853C18.8957 14.9045 16.728 16.3326 15.8899 18.5337C14.4387 22.3448 17.1865 26.3214 21.2354 26.3668V28.007C20.8837 28.007 20.4597 27.9089 20.143 27.7599C19.5569 27.4844 19.4276 26.9311 18.6508 27.0899C18.126 27.1973 17.9666 27.9308 18.2536 28.3373C18.8343 29.1607 20.2625 29.6422 21.2354 29.6471V34.5675C18.0833 34.5675 14.929 34.5675 11.7769 34.5675C7.77243 33.8192 8.13014 28.1647 12.2146 28.007L12.2119 20.1585C12.3455 17.7345 13.6028 15.1532 15.4943 13.627C15.9682 13.2446 16.591 12.8655 17.1345 12.5884C18.3972 11.9441 19.8144 11.6105 21.2348 11.6045L21.2354 11.605Z" fill="#7D62FF"/>
<path d="M25.3401 12.5885C25.8962 12.8684 26.5004 13.231 26.9803 13.6271C28.8406 15.1615 30.122 17.6283 30.2628 20.0491L30.26 28.0065C33.2861 28.0208 34.74 31.7941 32.3669 33.8029C31.9911 34.1212 31.2406 34.5085 30.7525 34.5671H21.2393V29.6467C22.2231 29.6516 23.4606 29.2117 24.1366 28.4711C24.7923 27.7529 24.0123 26.6633 23.1139 27.1749C22.9681 27.2582 22.8914 27.3984 22.7654 27.4823C22.2806 27.8044 21.8408 28.0065 21.2393 28.0065V26.3664C24.2434 26.4003 26.8055 23.9779 26.9825 20.9836C27.1769 17.6918 24.5442 14.858 21.2393 14.8849V11.6046C22.7145 11.598 24.0303 11.93 25.3396 12.5885H25.3401Z" fill="#7D62FF"/>
<path d="M26.977 11.3862C26.5443 11.5237 25.768 11.5265 25.3369 11.3862C22.7759 10.5541 23.3571 6.43624 26.2967 6.57265C29.0198 6.69919 29.4252 10.6084 26.9776 11.3862H26.977Z" fill="#7D62FF"/>
<path d="M17.1375 11.3856C16.7047 11.5231 15.9285 11.5259 15.4974 11.3856C13.0547 10.5919 13.4475 6.72489 16.1783 6.57205C19.0987 6.40881 19.6952 10.5727 17.1375 11.3856Z" fill="#7D62FF"/>
<path d="M17.1304 11.3857V12.5887C16.5869 12.8659 15.9641 13.2456 15.4902 13.6274V11.3857C15.9219 11.526 16.6976 11.5232 17.1304 11.3857Z" fill="#7D62FF"/>
<path d="M26.9741 11.3857V13.6274C26.4937 13.2313 25.89 12.8681 25.334 12.5887V11.3857C25.7657 11.526 26.5414 11.5232 26.9741 11.3857Z" fill="#7D62FF"/>
<path d="M21.2352 14.8848V18.1651C17.9828 18.2013 17.991 23.0505 21.2352 23.0855V26.3658C17.1868 26.3203 14.4385 22.3443 15.8896 18.5327C16.7278 16.3316 18.8949 14.9029 21.2352 14.8843V14.8848Z" fill="#E2E2E2"/>
<path d="M21.2314 28.0077V29.6478C20.2579 29.6429 18.8303 29.1608 18.2496 28.338C17.9626 27.9315 18.122 27.198 18.6468 27.0906C19.4236 26.9318 19.5523 27.4851 20.139 27.7606C20.4562 27.9096 20.8797 28.0077 21.2314 28.0077Z" fill="#7D62FF"/>
<path d="M21.2393 26.3669V23.0866C24.4817 23.1222 24.4861 18.1301 21.2393 18.1662V14.8859C24.5442 14.8591 27.1775 17.6929 26.9825 20.9847C26.8055 23.979 24.2429 26.4014 21.2393 26.3674V26.3669Z" fill="#E2E2E2"/>
<path d="M21.2393 29.6473V28.0072C21.8408 28.0072 22.2806 27.805 22.7654 27.4829C22.892 27.3991 22.9681 27.2583 23.1139 27.1756C24.0123 26.664 24.7923 27.7536 24.1366 28.4717C23.4606 29.2124 22.2226 29.6528 21.2393 29.6473Z" fill="#7D62FF"/>
<path d="M21.235 18.1646V23.085C17.9909 23.0494 17.9827 18.2002 21.235 18.1646Z" fill="#684DEA"/>
<path d="M21.2393 23.0861V18.1657C24.4861 18.1296 24.4817 23.1217 21.2393 23.0861Z" fill="#684DEA"/>
</svg>
