<svg width="30" height="30" viewBox="0 0 30 30" fill="none" xmlns="http://www.w3.org/2000/svg">
<path fill-rule="evenodd" clip-rule="evenodd" d="M14.6875 15.875C10.3728 15.875 6.875 19.3728 6.875 23.6875V24.9375C6.875 25.4553 6.45527 25.875 5.9375 25.875C5.41973 25.875 5 25.4553 5 24.9375V23.6875C5 18.3372 9.33724 14 14.6875 14C20.0378 14 24.375 18.3372 24.375 23.6875V24.9375C24.375 25.4553 23.9553 25.875 23.4375 25.875C22.9197 25.875 22.5 25.4553 22.5 24.9375V23.6875C22.5 19.3728 19.0022 15.875 14.6875 15.875Z" fill="black"/>
<path fill-rule="evenodd" clip-rule="evenodd" d="M14.6875 5.875C12.4438 5.875 10.625 7.69384 10.625 9.9375C10.625 12.1812 12.4438 14 14.6875 14C16.9312 14 18.75 12.1812 18.75 9.9375C18.75 7.69384 16.9312 5.875 14.6875 5.875ZM8.75 9.9375C8.75 6.65831 11.4083 4 14.6875 4C17.9667 4 20.625 6.65831 20.625 9.9375C20.625 13.2167 17.9667 15.875 14.6875 15.875C11.4083 15.875 8.75 13.2167 8.75 9.9375Z" fill="black"/>
</svg>
