<svg width="30" height="30" viewBox="0 0 30 30" fill="none" xmlns="http://www.w3.org/2000/svg">
<path fill-rule="evenodd" clip-rule="evenodd" d="M15 15.9375C10.6853 15.9375 7.1875 19.4353 7.1875 23.75V25C7.1875 25.5178 6.76777 25.9375 6.25 25.9375C5.73223 25.9375 5.3125 25.5178 5.3125 25V23.75C5.3125 18.3997 9.64974 14.0625 15 14.0625C20.3503 14.0625 24.6875 18.3997 24.6875 23.75V25C24.6875 25.5178 24.2678 25.9375 23.75 25.9375C23.2322 25.9375 22.8125 25.5178 22.8125 25V23.75C22.8125 19.4353 19.3147 15.9375 15 15.9375Z" fill="black"/>
<path fill-rule="evenodd" clip-rule="evenodd" d="M15 5.9375C12.7563 5.9375 10.9375 7.75634 10.9375 10C10.9375 12.2437 12.7563 14.0625 15 14.0625C17.2437 14.0625 19.0625 12.2437 19.0625 10C19.0625 7.75634 17.2437 5.9375 15 5.9375ZM9.0625 10C9.0625 6.72081 11.7208 4.0625 15 4.0625C18.2792 4.0625 20.9375 6.72081 20.9375 10C20.9375 13.2792 18.2792 15.9375 15 15.9375C11.7208 15.9375 9.0625 13.2792 9.0625 10Z" fill="black"/>
<path d="M20 10C20 12.7614 17.7614 15 15 15C12.2386 15 10 12.7614 10 10C10 7.23858 12.2386 5 15 5C17.7614 5 20 7.23858 20 10Z" fill="black"/>
</svg>
