<svg width="30" height="30" viewBox="0 0 30 30" fill="none" xmlns="http://www.w3.org/2000/svg">
<path d="M14.3732 8.496V10.8391C12.702 10.8527 11.1536 11.8728 10.555 13.4451C9.51844 16.1673 11.4812 19.0077 14.3732 19.0401V20.2117C14.122 20.2117 13.8191 20.1416 13.593 20.0352C13.1743 19.8384 13.0819 19.4432 12.5271 19.5566C12.1522 19.6333 12.0384 20.1573 12.2434 20.4476C12.6582 21.0357 13.6783 21.3797 14.3732 21.3832V24.8978C12.1217 24.8978 9.86864 24.8978 7.61715 24.8978C4.75681 24.3633 5.01232 20.3244 7.92979 20.2117L7.92785 14.6056C8.02332 12.8742 8.92133 11.0304 10.2725 9.94025C10.6109 9.66713 11.0558 9.39636 11.444 9.19837C12.3459 8.73821 13.3582 8.49991 14.3728 8.49561L14.3732 8.496Z" fill="#D9D9D9"/>
<path d="M17.3062 9.19843C17.7033 9.39838 18.1349 9.65742 18.4777 9.94032C19.8065 11.0363 20.7217 12.7983 20.8223 14.5274L20.8204 20.2113C22.9818 20.2215 24.0203 22.9167 22.3253 24.3516C22.0568 24.5789 21.5208 24.8556 21.1721 24.8974H14.377V21.3829C15.0797 21.3864 15.9636 21.0722 16.4465 20.5432C16.9149 20.0302 16.3577 19.2519 15.716 19.6174C15.6119 19.6768 15.5571 19.777 15.4671 19.8369C15.1208 20.067 14.8066 20.2113 14.377 20.2113V19.0398C16.5228 19.0641 18.3529 17.3338 18.4792 15.195C18.6182 12.8437 16.7376 10.8196 14.377 10.8387V8.49567C15.4307 8.49098 16.3706 8.7281 17.3058 9.19843H17.3062Z" fill="#909090"/>
<path d="M18.4715 8.33908C18.1623 8.4373 17.6079 8.43925 17.2999 8.33908C15.4706 7.74471 15.8858 4.80337 17.9855 4.9008C19.9306 4.99119 20.2202 7.78345 18.4719 8.33908H18.4715Z" fill="#909090"/>
<path d="M11.4423 8.33908C11.1331 8.43729 10.5787 8.43925 10.2707 8.33908C8.52596 7.7721 8.80651 5.00997 10.7571 4.9008C12.8431 4.78419 13.2692 7.7584 11.4423 8.33908Z" fill="#D9D9D9"/>
<path d="M11.4411 8.33936V9.19863C11.0529 9.39663 10.608 9.66779 10.2695 9.94052V8.33936C10.5779 8.43953 11.1319 8.43757 11.4411 8.33936Z" fill="#BABABA"/>
<path d="M18.4743 8.33936V9.94052C18.1311 9.65762 17.6999 9.39819 17.3027 9.19863V8.33936C17.6111 8.43953 18.1651 8.43757 18.4743 8.33936Z" fill="#5A5A5A"/>
<path d="M14.3721 10.8383V13.1813C12.049 13.2072 12.0548 16.6709 14.3721 16.6959V19.039C11.4804 19.0065 9.51731 16.1665 10.5538 13.4439C11.1525 11.8717 12.7005 10.8512 14.3721 10.8379V10.8383Z" fill="#F1EFFA"/>
<path d="M14.3694 20.2117V21.3833C13.674 21.3798 12.6543 21.0354 12.2396 20.4477C12.0345 20.1574 12.1484 19.6334 12.5232 19.5567C13.0781 19.4432 13.17 19.8385 13.5891 20.0353C13.8157 20.1417 14.1182 20.2117 14.3694 20.2117Z" fill="#909090"/>
<path d="M14.377 19.0397V16.6966C16.693 16.7221 16.6961 13.1562 14.377 13.1821V10.839C16.7376 10.8198 18.6185 12.844 18.4792 15.1953C18.3529 17.3341 16.5224 19.0643 14.377 19.0401V19.0397Z" fill="#C7C6CE"/>
<path d="M14.377 21.3829V20.2113C14.8066 20.2113 15.1208 20.0669 15.4671 19.8369C15.5575 19.777 15.6119 19.6764 15.716 19.6173C16.3577 19.2519 16.9149 20.0302 16.4465 20.5431C15.9636 21.0722 15.0793 21.3868 14.377 21.3829Z" fill="#484848"/>
<path d="M14.3749 13.1816V16.6962C12.0577 16.6708 12.0518 13.2071 14.3749 13.1816Z" fill="#6C6C6C"/>
<path d="M14.377 16.6964V13.1818C16.6961 13.156 16.693 16.7218 14.377 16.6964Z" fill="#444444"/>
</svg>
