<svg width="30" height="30" viewBox="0 0 30 30" fill="none" xmlns="http://www.w3.org/2000/svg">
<path d="M15.1662 8.28897V10.632C13.495 10.6457 11.9466 11.6658 11.3479 13.238C10.3114 15.9602 12.2741 18.8006 15.1662 18.8331V20.0046C14.915 20.0046 14.6121 19.9346 14.3859 19.8282C13.9672 19.6313 13.8749 19.2361 13.32 19.3496C12.9452 19.4263 12.8313 19.9502 13.0364 20.2406C13.4511 20.8287 14.4712 21.1726 15.1662 21.1762V24.6907C12.9147 24.6907 10.6616 24.6907 8.41012 24.6907C5.54978 24.1562 5.80529 20.1173 8.72276 20.0046L8.72081 14.3986C8.81629 12.6671 9.7143 10.8234 11.0654 9.73322C11.4039 9.4601 11.8488 9.18933 12.237 8.99133C13.1389 8.53118 14.1512 8.29288 15.1658 8.28857L15.1662 8.28897Z" fill="#A1F300"/>
<path d="M18.0991 8.9914C18.4963 9.19135 18.9279 9.45039 19.2707 9.73329C20.5995 10.8293 21.5147 12.5913 21.6153 14.3204L21.6133 20.0043C23.7748 20.0145 24.8133 22.7097 23.1182 24.1446C22.8498 24.3719 22.3137 24.6486 21.9651 24.6904H15.1699V21.1758C15.8727 21.1794 16.7566 20.8651 17.2395 20.3361C17.7078 19.8231 17.1506 19.0449 16.5089 19.4103C16.4048 19.4698 16.3501 19.57 16.2601 19.6298C15.9138 19.8599 15.5996 20.0043 15.1699 20.0043V18.8328C17.3158 18.857 19.1458 17.1267 19.2722 14.9879C19.4111 12.6367 17.5306 10.6125 15.1699 10.6317V8.28864C16.2237 8.28395 17.1635 8.52107 18.0987 8.9914H18.0991Z" fill="#7D62FF"/>
<path d="M19.2644 8.13205C18.9553 8.23027 18.4008 8.23222 18.0929 8.13205C16.2636 7.53768 16.6788 4.59634 18.7784 4.69377C20.7236 4.78416 21.0131 7.57642 19.2648 8.13205H19.2644Z" fill="#876EFF"/>
<path d="M12.2352 8.13205C11.9261 8.23026 11.3716 8.23222 11.0637 8.13205C9.31893 7.56506 9.59948 4.80294 11.5501 4.69377C13.636 4.57716 14.0622 7.55137 12.2352 8.13205Z" fill="#A1F300"/>
<path d="M12.234 8.13232V8.9916C11.8459 9.18959 11.401 9.46076 11.0625 9.73349V8.13232C11.3708 8.23249 11.9249 8.23054 12.234 8.13232Z" fill="#669900"/>
<path d="M19.2672 8.13232V9.73349C18.9241 9.45059 18.4929 9.19116 18.0957 8.9916V8.13232C18.404 8.23249 18.9581 8.23054 19.2672 8.13232Z" fill="#5B4FD4"/>
<path d="M15.165 10.6313V12.9743C12.8419 13.0001 12.8478 16.4638 15.165 16.4889V18.8319C12.2734 18.7995 10.3103 15.9595 11.3468 13.2369C11.9455 11.6647 13.4934 10.6442 15.165 10.6309V10.6313Z" fill="#F1EFFA"/>
<path d="M15.1623 20.0047V21.1762C14.467 21.1727 13.4473 20.8284 13.0325 20.2407C12.8275 19.9503 12.9414 19.4264 13.3162 19.3497C13.8711 19.2362 13.963 19.6314 14.3821 19.8282C14.6086 19.9347 14.9111 20.0047 15.1623 20.0047Z" fill="#6D2FF2"/>
<path d="M15.1699 18.8327V16.4896C17.486 16.515 17.4891 12.9492 15.1699 12.975V10.632C17.5306 10.6128 19.4115 12.6369 19.2722 14.9882C19.1458 17.127 17.3154 18.8573 15.1699 18.8331V18.8327Z" fill="#C7C6CE"/>
<path d="M15.1699 21.1758V20.0043C15.5996 20.0043 15.9138 19.8599 16.2601 19.6298C16.3504 19.57 16.4048 19.4694 16.5089 19.4103C17.1506 19.0448 17.7078 19.8231 17.2395 20.3361C16.7566 20.8651 15.8723 21.1797 15.1699 21.1758Z" fill="#4E2B97"/>
<path d="M15.1679 12.9746V16.4892C12.8506 16.4638 12.8448 13 15.1679 12.9746Z" fill="#535353"/>
<path d="M15.1699 16.4893V12.9747C17.4891 12.9489 17.486 16.5148 15.1699 16.4893Z" fill="#121212"/>
</svg>
