<svg width="24" height="24" viewBox="0 0 24 24" fill="none" xmlns="http://www.w3.org/2000/svg">
<path d="M18.4062 21.1517H5.70905C5.39325 20.9558 5.44131 20.5861 5.83483 20.5421L18.2104 20.5407C18.6295 20.5304 18.7791 20.9235 18.4062 21.1521V21.1517Z" fill="#78B304"/>
<path d="M14.749 7.91661L9.15399 15.826C9.12344 15.9037 9.32559 15.8813 9.39792 15.9037C9.93833 16.0717 10.1423 16.6193 9.97831 17.1346L9.73932 17.4158C8.96756 17.8475 8.13471 18.1983 7.36026 18.6053C7.01301 18.3681 6.66441 18.1292 6.32031 17.8879L6.75066 14.2295C7.14688 14.207 7.49278 14.4092 7.61182 14.8036L7.7376 14.7322C9.50213 12.2493 11.2366 9.74493 12.9984 7.25985C13.0811 7.14305 13.1673 7.0002 13.2787 6.9126C13.7562 7.24637 14.2643 7.57655 14.7495 7.91706L14.749 7.91661Z" fill="#876EFF"/>
<path d="M12.7042 6.44614C12.8871 6.57506 13.0951 6.78439 13.2783 6.91242C13.1669 7.00002 13.0807 7.14332 12.998 7.25967C11.2362 9.74475 9.50174 12.2492 7.73721 14.732L7.61143 14.8034C7.49239 14.4094 7.14649 14.2068 6.75027 14.2293C6.5616 14.2401 6.40932 14.259 6.24805 14.3726C8.13028 11.6728 10.0197 8.97703 11.9217 6.29115C11.9819 6.2058 12.0839 6.11686 12.1301 6.05127C12.2743 6.23365 12.5277 6.3217 12.7042 6.44569V6.44614Z" fill="#5B4FD4"/>
<path d="M15.8959 8.70578C13.9306 11.5076 11.9931 14.3588 9.97791 17.1345C10.1419 16.6192 9.93793 16.0716 9.39752 15.9036C9.32519 15.8812 9.12259 15.9036 9.15359 15.8259L14.7486 7.9165C15.1282 8.18289 15.5145 8.44254 15.8964 8.70578H15.8959Z" fill="#B885FF"/>
<path d="M15.9301 3.21795C16.1677 3.29611 17.3518 4.17389 17.5805 4.38322C18.6788 5.39037 17.6995 6.15854 17.0778 7.05608L13.9216 4.7965C13.9274 4.78842 13.9158 4.76866 13.9216 4.76057C14.4045 4.0818 14.8847 2.87519 15.9301 3.2184V3.21795Z" fill="#A1F300"/>
<path d="M13.9252 4.79537L17.0814 7.05495C16.6973 7.60928 16.2696 8.17485 15.8977 8.70493C15.5158 8.44214 15.1295 8.18204 14.7499 7.91565C14.2648 7.57515 13.7572 7.24542 13.2792 6.9112C13.0963 6.78317 12.8884 6.57384 12.7051 6.44491C13.1157 5.92426 13.4688 5.36004 13.8519 4.81963C13.8748 4.78729 13.9225 4.79807 13.9247 4.79492L13.9252 4.79537Z" fill="#D3D6E2"/>
<path d="M8.89092 18.8997L18.3173 18.8911C18.7648 18.9783 18.6938 19.4989 18.2464 19.503H8.99019C8.63262 19.4814 8.54906 19.0187 8.89092 18.8992V18.8997Z" fill="#A1F300"/>
<path d="M6.75049 14.2285L6.32014 17.887C6.31205 17.8811 6.29229 17.8924 6.2842 17.887C6.27297 17.8793 6.25141 17.8286 6.21098 17.8003C6.02365 17.6695 5.83902 17.5312 5.63867 17.4207L5.9657 14.7882C6.00389 14.6423 6.12473 14.4594 6.24871 14.3718C6.40953 14.2582 6.56227 14.2393 6.75094 14.2285H6.75049Z" fill="#4B3FC6"/>
<path d="M15.9325 3.21789C14.8867 2.87468 14.4065 4.08174 13.924 4.76006L13.3145 4.36564C13.6082 3.95146 13.9995 3.14736 14.4537 2.90433C14.9757 2.62537 15.5066 2.8904 15.933 3.21789H15.9325Z" fill="#7FBF00"/>
<path d="M13.9246 4.76063C13.9188 4.76871 13.9304 4.78848 13.9246 4.79656C13.9223 4.79971 13.8747 4.78893 13.8518 4.82127C13.4682 5.36168 13.1155 5.92545 12.705 6.44654C12.5289 6.32256 12.2751 6.23452 12.1309 6.05213C12.5266 5.4933 12.921 4.92055 13.3146 4.36621L13.9241 4.76063H13.9246Z" fill="#BBBDC7"/>
<path d="M6.28378 17.8877L6.14048 19.2506C5.96977 19.3288 5.85612 19.4375 5.63825 19.3939C5.49405 19.2614 5.41903 19.2461 5.41993 19.017C5.42128 18.5408 5.57761 17.9079 5.63825 17.4214C5.8386 17.5319 6.02323 17.6703 6.21056 17.801C6.25099 17.8293 6.27255 17.88 6.28378 17.8877Z" fill="#465763"/>
<path d="M6.89247 18.8919C7.0497 18.8699 8.03304 18.8739 8.1386 18.9189C8.3713 19.0181 8.3448 19.4355 8.07706 19.4844C7.3646 19.4736 6.57397 19.5572 5.86915 19.5028C5.81749 19.4988 5.69934 19.488 5.66116 19.4665C5.61758 19.4417 5.64229 19.3986 5.63735 19.3941C5.85477 19.4377 5.96887 19.3285 6.13958 19.2508C6.32645 19.1655 6.72311 18.9157 6.89292 18.8923L6.89247 18.8919Z" fill="#7FBF00"/>
<path d="M7.3583 18.6049C7.34977 18.6094 7.3327 18.6529 7.2999 18.6705C7.16424 18.7428 7.0124 18.794 6.89201 18.8919C6.72221 18.9153 6.32555 19.1651 6.13867 19.2504L6.28197 17.8875C6.29006 17.8929 6.30982 17.8816 6.31791 17.8875C6.66246 18.1287 7.01106 18.3672 7.35785 18.6049H7.3583Z" fill="#4A5D6B"/>
</svg>
