<svg width="150" height="150" viewBox="0 0 150 150" fill="none" xmlns="http://www.w3.org/2000/svg">
<path d="M82.1743 92.5444L82.1438 133.743C81.7879 137.16 79.5407 139.506 76.341 140.499H73.2973C70.5993 139.546 68.3555 137.696 67.7386 134.767L67.7148 92.5444C71.8195 93.2054 78.0798 93.2257 82.1777 92.5444H82.1743Z" fill="#A1F300"/>
<path d="M101.454 20.4889L99.8538 31.7013C94.573 57.0173 75.1987 77.6388 50.459 84.933C31.5864 71.3446 27.8546 44.5271 42.3514 26.207C56.9803 7.7208 83.5063 5.21259 101.454 20.4889ZM59.78 27.4001C49.7031 28.9694 49.6964 44.5237 59.5258 46.0523C74.7276 48.4182 74.4192 25.119 59.78 27.4001Z" fill="#876EFF"/>
<path d="M82.1723 92.5451C78.0745 93.2264 71.8141 93.206 67.7094 92.5451C61.6762 91.5723 55.365 88.4675 50.457 84.9323C75.1968 77.6382 94.571 57.0166 99.8518 31.7007L101.452 20.4883C127.669 42.8046 116.287 86.8847 82.1689 92.5417L82.1723 92.5451Z" fill="#5B4FD4"/>
<path d="M59.7798 27.3996C74.4189 25.1185 74.7274 48.4177 59.5256 46.0519C49.6961 44.5232 49.7029 28.969 59.7798 27.3996Z" fill="#FFFEFE"/>
</svg>
