<svg width="30" height="30" viewBox="0 0 30 30" fill="none" xmlns="http://www.w3.org/2000/svg">
<path fill-rule="evenodd" clip-rule="evenodd" d="M17.0846 2.14016C17.2835 1.66211 17.8322 1.43579 18.3103 1.63466C18.7883 1.83352 19.0147 2.38228 18.8158 2.86033L17.5158 5.98533C17.3169 6.46338 16.7682 6.6897 16.2901 6.49083C15.8121 6.29196 15.5857 5.74321 15.7846 5.26516L17.0846 2.14016ZM21.6426 2.12162C21.8517 1.64796 22.4052 1.43349 22.8788 1.6426C23.3525 1.85171 23.567 2.40521 23.3578 2.87887L19.0644 12.6043C21.6714 14.0399 23.4377 16.8138 23.4377 20.0002C23.4377 24.6601 19.6601 28.4377 15.0002 28.4377C10.3403 28.4377 6.5627 24.6601 6.5627 20.0002C6.5627 17.0326 8.09482 14.4228 10.4112 12.9186L5.41168 2.91951C5.18013 2.4564 5.36784 1.89327 5.83094 1.66172C6.29405 1.43017 6.85718 1.61788 7.08873 2.08098L12.0877 12.0789C12.826 11.8074 13.6128 11.6361 14.4316 11.5816L10.2014 2.91133C9.97435 2.44599 10.1675 1.88472 10.6329 1.65768C11.0982 1.43064 11.6595 1.62382 11.8865 2.08916L16.5808 11.7105C16.835 11.7587 17.0851 11.8183 17.3307 11.8887L21.6426 2.12162ZM15.0629 16.125C15.347 15.9119 15.7271 15.8777 16.0447 16.0365C16.3623 16.1953 16.5629 16.5199 16.5629 16.875V23.125C16.5629 23.6428 16.1432 24.0625 15.6254 24.0625C15.1077 24.0625 14.6879 23.6428 14.6879 23.125V18.75L13.6879 19.5C13.2737 19.8107 12.6861 19.7267 12.3754 19.3125C12.0648 18.8983 12.1487 18.3107 12.5629 18L15.0629 16.125Z" fill="black"/>
</svg>
