<svg width="30" height="30" viewBox="0 0 30 30" fill="none" xmlns="http://www.w3.org/2000/svg">
<path d="M13.982 5.34326V8.22803C13.8974 8.22498 13.8806 8.27924 13.837 8.32944C13.5125 8.70519 13.2478 9.19502 12.9187 9.57432L11.2494 10.126C11.2215 10.1635 11.3422 10.3228 11.3701 10.3654C11.4882 10.5444 12.2742 11.5108 12.2742 11.5869V13.3901L13.982 12.8587V17.755C13.2742 17.755 12.5642 17.755 11.8564 17.755C11.3473 17.3879 10.826 16.9797 10.4142 16.5025C10.0938 16.1313 9.75352 15.6451 9.50353 15.212C8.22366 12.9946 8.37376 11.2249 8.36463 8.75944C8.36311 8.38066 8.36463 7.99984 8.36463 7.62055V5.34326H13.982Z" fill="#D9D9D9"/>
<path d="M19.6023 5.34326V7.62055C19.6023 7.99933 19.6038 8.38015 19.6023 8.75944C19.5927 11.2015 19.7306 13.0159 18.4634 15.212C18.2332 15.6111 17.8519 16.1526 17.5527 16.5025C17.1384 16.9863 16.6308 17.3914 16.1106 17.755H13.9849V12.8587L15.6927 13.3901V11.5869C15.6927 11.5108 16.4782 10.5479 16.5968 10.3654C16.6247 10.3228 16.7459 10.164 16.7175 10.126L15.0477 9.57482L13.9844 8.15197V5.34326H19.6018H19.6023Z" fill="#B6B6B6"/>
<path d="M19.5984 7.62012H23.2423C23.1759 9.36446 23.4826 11.1266 22.8052 12.7817C21.9305 14.918 19.857 16.3743 17.5488 16.5021C17.8485 16.1522 18.2293 15.6106 18.4595 15.2116C20.2348 14.7572 21.6658 13.269 22.0162 11.4617C22.1866 10.584 22.0674 9.65046 22.1034 8.75901H19.5979C19.5994 8.38023 19.5979 7.99941 19.5979 7.62062L19.5984 7.62012Z" fill="#B6B6B6"/>
<path d="M8.36576 7.62012C8.36576 7.9989 8.36424 8.37972 8.36576 8.75901H5.86029C5.89325 9.6535 5.78119 10.5804 5.94751 11.4617C6.23959 13.0063 7.35617 14.3414 8.7841 14.9636C9.01634 15.065 9.26177 15.1396 9.50415 15.2116C9.75414 15.6446 10.0944 16.1309 10.4149 16.5021C7.7446 16.3606 5.41001 14.4155 4.85375 11.7959C4.57029 10.4603 4.79289 8.98314 4.72089 7.62012H8.36475H8.36576Z" fill="#D9D9D9"/>
<path d="M10.6441 22.0436C11.7566 22.0411 12.8717 22.0436 13.9842 22.0436V24.7762H8.74609V22.0436C9.37791 22.0426 10.0118 22.0451 10.6441 22.0436Z" fill="#D9D9D9"/>
<path d="M17.3245 22.0436C17.9563 22.0451 18.5902 22.0426 19.2225 22.0436V24.7762H13.9844V22.0436C15.0969 22.0436 16.212 22.0411 17.3245 22.0436Z" fill="#B6B6B6"/>
<path d="M16.11 17.7549L17.3245 22.0437C16.212 22.0412 15.0969 22.0437 13.9844 22.0437V17.7549H16.11Z" fill="#909090"/>
<path d="M13.9827 17.7549V22.0437C12.8702 22.0437 11.7551 22.0412 10.6426 22.0437L11.857 17.7549C12.5649 17.7549 13.2748 17.7549 13.9827 17.7549Z" fill="#B6B6B6"/>
<path d="M13.9844 8.15234L15.0477 9.5752L16.7175 10.1264C16.7454 10.1644 16.6242 10.3231 16.5968 10.3657C16.4782 10.5483 15.6927 11.5112 15.6927 11.5873V13.3905L13.9849 12.859V8.15234H13.9844Z" fill="#909090"/>
<path d="M13.9829 8.22717V12.8578L12.2751 13.3892V11.5861C12.2751 11.51 11.4891 10.5435 11.3709 10.3645C11.343 10.3224 11.2224 10.1632 11.2502 10.1252L12.9195 9.57346C13.2491 9.19417 13.5133 8.70383 13.8379 8.32859C13.8815 8.27839 13.8982 8.22413 13.9829 8.22717Z" fill="#B6B6B6"/>
</svg>
