<svg width="30" height="30" viewBox="0 0 30 30" fill="none" xmlns="http://www.w3.org/2000/svg">
<path d="M14.982 5.34326V8.22803C14.8974 8.22498 14.8806 8.27924 14.837 8.32944C14.5125 8.70519 14.2478 9.19502 13.9187 9.57432L12.2494 10.126C12.2215 10.1635 12.3422 10.3228 12.3701 10.3654C12.4882 10.5444 13.2742 11.5108 13.2742 11.5869V13.3901L14.982 12.8587V17.755C14.2742 17.755 13.5642 17.755 12.8564 17.755C12.3473 17.3879 11.826 16.9797 11.4142 16.5025C11.0938 16.1313 10.7535 15.6451 10.5035 15.212C9.22366 12.9946 9.37376 11.2249 9.36463 8.75944C9.36311 8.38066 9.36463 7.99984 9.36463 7.62055V5.34326H14.982Z" fill="#A1F300"/>
<path d="M20.6023 5.34326V7.62055C20.6023 7.99933 20.6038 8.38015 20.6023 8.75944C20.5927 11.2015 20.7306 13.0159 19.4634 15.212C19.2332 15.6111 18.8519 16.1526 18.5527 16.5025C18.1384 16.9863 17.6308 17.3914 17.1106 17.755H14.9849V12.8587L16.6927 13.3901V11.5869C16.6927 11.5108 17.4782 10.5479 17.5968 10.3654C17.6247 10.3228 17.7459 10.164 17.7175 10.126L16.0477 9.57482L14.9844 8.15197V5.34326H20.6018H20.6023Z" fill="#82C400"/>
<path d="M20.5984 7.62012H24.2423C24.1759 9.36446 24.4826 11.1266 23.8052 12.7817C22.9305 14.918 20.857 16.3743 18.5488 16.5021C18.8485 16.1522 19.2293 15.6106 19.4595 15.2116C21.2348 14.7572 22.6658 13.269 23.0162 11.4617C23.1866 10.584 23.0674 9.65046 23.1034 8.75901H20.5979C20.5994 8.38023 20.5979 7.99941 20.5979 7.62062L20.5984 7.62012Z" fill="#75B000"/>
<path d="M9.36576 7.62012C9.36576 7.9989 9.36424 8.37972 9.36576 8.75901H6.86029C6.89325 9.6535 6.78119 10.5804 6.94751 11.4617C7.23959 13.0063 8.35617 14.3414 9.7841 14.9636C10.0163 15.065 10.2618 15.1396 10.5042 15.2116C10.7541 15.6446 11.0944 16.1309 11.4149 16.5021C8.7446 16.3606 6.41001 14.4155 5.85375 11.7959C5.57029 10.4603 5.79289 8.98314 5.72089 7.62012H9.36475H9.36576Z" fill="#A9FF00"/>
<path d="M11.6441 22.0436C12.7566 22.0411 13.8717 22.0436 14.9842 22.0436V24.7762H9.74609V22.0436C10.3779 22.0426 11.0118 22.0451 11.6441 22.0436Z" fill="#A1F300"/>
<path d="M18.3245 22.0436C18.9563 22.0451 19.5902 22.0426 20.2225 22.0436V24.7762H14.9844V22.0436C16.0969 22.0436 17.212 22.0411 18.3245 22.0436Z" fill="#8CD400"/>
<path d="M17.11 17.7549L18.3245 22.0437C17.212 22.0412 16.0969 22.0437 14.9844 22.0437V17.7549H17.11Z" fill="#669A00"/>
<path d="M14.9827 17.7549V22.0437C13.8702 22.0437 12.7551 22.0412 11.6426 22.0437L12.857 17.7549C13.5649 17.7549 14.2748 17.7549 14.9827 17.7549Z" fill="#8CD400"/>
<path d="M14.9844 8.15234L16.0477 9.5752L17.7175 10.1264C17.7454 10.1644 17.6242 10.3231 17.5968 10.3657C17.4782 10.5483 16.6927 11.5112 16.6927 11.5873V13.3905L14.9849 12.859V8.15234H14.9844Z" fill="#6044EB"/>
<path d="M14.9829 8.22717V12.8578L13.2751 13.3892V11.5861C13.2751 11.51 12.4891 10.5435 12.3709 10.3645C12.343 10.3224 12.2224 10.1632 12.2502 10.1252L13.9195 9.57346C14.2491 9.19417 14.5133 8.70383 14.8379 8.32859C14.8815 8.27839 14.8982 8.22413 14.9829 8.22717Z" fill="#876EFF"/>
</svg>
