<svg width="30" height="30" viewBox="0 0 30 30" fill="none" xmlns="http://www.w3.org/2000/svg">
<path fill-rule="evenodd" clip-rule="evenodd" d="M18.9973 2.07216C18.5193 1.87329 17.9705 2.09961 17.7717 2.57766L16.4717 5.70266C16.2728 6.18071 16.4991 6.72946 16.9772 6.92833C17.4552 7.1272 18.004 6.90088 18.2029 6.42283L19.5029 3.29783C19.7017 2.81978 19.4754 2.27102 18.9973 2.07216ZM23.5659 2.0801C23.0922 1.87099 22.5387 2.08546 22.3296 2.55912L18.0177 12.3262C17.7722 12.2558 17.522 12.1962 17.2678 12.148L12.5736 2.52666C12.3465 2.06132 11.7853 1.86814 11.3199 2.09518C10.8546 2.32222 10.6614 2.88349 10.8885 3.34883L15.1187 12.0191C14.2999 12.0736 13.5131 12.2449 12.7747 12.5164L7.77579 2.51848C7.54424 2.05538 6.98111 1.86767 6.518 2.09922C6.0549 2.33077 5.86719 2.8939 6.09874 3.35701L11.0983 13.3561C8.78189 14.8603 7.24977 17.4701 7.24977 20.4377C7.24977 25.0976 11.0274 28.8752 15.6873 28.8752C20.3472 28.8752 24.1248 25.0976 24.1248 20.4377C24.1248 17.2513 22.3584 14.4774 19.7514 13.0418L24.0449 3.31637C24.254 2.84271 24.0396 2.28921 23.5659 2.0801ZM16.5249 13.9282C19.7537 14.3396 22.2498 17.0972 22.2498 20.4377C22.2498 24.0621 19.3116 27.0002 15.6873 27.0002C12.0629 27.0002 9.12477 24.0621 9.12477 20.4377C9.12477 16.8134 12.0629 13.8752 15.6873 13.8752C15.9711 13.8752 16.2506 13.8933 16.5249 13.9282Z" fill="black"/>
<path fill-rule="evenodd" clip-rule="evenodd" d="M16.7318 16.4742C16.4142 16.3154 16.0341 16.3497 15.75 16.5627L13.25 18.4377C12.8358 18.7484 12.7518 19.336 13.0625 19.7502C13.3732 20.1645 13.9608 20.2484 14.375 19.9377L15.375 19.1877V23.5627C15.375 24.0805 15.7947 24.5002 16.3125 24.5002C16.8303 24.5002 17.25 24.0805 17.25 23.5627V17.3127C17.25 16.9577 17.0494 16.633 16.7318 16.4742Z" fill="black"/>
</svg>
