<svg width="42" height="42" viewBox="0 0 42 42" fill="none" xmlns="http://www.w3.org/2000/svg">
<path d="M20.9766 7.99902V12.0377C20.8581 12.0334 20.8346 12.1094 20.7736 12.1797C20.3192 12.7057 19.9487 13.3915 19.4879 13.9225L17.1509 14.6949C17.1119 14.7474 17.2808 14.9703 17.3199 15.03C17.4853 15.2806 18.5856 16.6336 18.5856 16.7401V19.2646L20.9766 18.5206V25.3755C19.9856 25.3755 18.9917 25.3755 18.0007 25.3755C17.2879 24.8615 16.5581 24.29 15.9817 23.622C15.533 23.1023 15.0567 22.4215 14.7067 21.8153C12.9149 18.7108 13.125 16.2333 13.1122 12.7817C13.1101 12.2514 13.1122 11.7182 13.1122 11.1872V7.99902H20.9766Z" fill="#D0D0D0"/>
<path d="M28.8436 7.99902V11.1872C28.8436 11.7175 28.8457 12.2507 28.8436 12.7817C28.8301 16.2006 29.0232 18.7407 27.2491 21.8153C26.9268 22.374 26.393 23.1321 25.9741 23.622C25.3941 24.2992 24.6835 24.8665 23.9552 25.3755H20.9792V18.5206L23.3702 19.2646V16.7401C23.3702 16.6336 24.4698 15.2855 24.636 15.03C24.675 14.9703 24.8447 14.7481 24.8049 14.6949L22.4672 13.9232L20.9785 11.9312V7.99902H28.8429H28.8436Z" fill="#D0D0D0"/>
<path d="M28.8382 11.1865H33.9396C33.8466 13.6286 34.2761 16.0955 33.3277 18.4127C32.1031 21.4035 29.2003 23.4424 25.9688 23.6213C26.3883 23.1314 26.9214 22.3733 27.2437 21.8146C29.7291 21.1785 31.7325 19.0949 32.223 16.5648C32.4616 15.3359 32.2947 14.029 32.3451 12.781H28.8375C28.8396 12.2507 28.8375 11.7175 28.8375 11.1872L28.8382 11.1865Z" fill="#D0D0D0"/>
<path d="M13.1152 11.1865C13.1152 11.7168 13.1131 12.25 13.1152 12.781H9.60754C9.65368 14.0333 9.49679 15.331 9.72964 16.5648C10.1385 18.7272 11.7018 20.5964 13.7009 21.4674C14.026 21.6094 14.3696 21.7138 14.7089 21.8146C15.0589 22.4208 15.5353 23.1016 15.9839 23.6213C12.2456 23.4232 8.97714 20.7 8.19837 17.0326C7.80153 15.1627 8.11318 13.0948 8.01237 11.1865H13.1138H13.1152Z" fill="#D0D0D0"/>
<path d="M16.5215 30.3766C18.0082 30.3729 19.4984 30.3766 20.9851 30.3766V34.375H13.9851V30.3766C14.8294 30.3752 15.6765 30.3789 16.5215 30.3766Z" fill="#D0D0D0"/>
<path d="M25.4487 30.3766C26.293 30.3789 27.1401 30.3752 27.9851 30.3766V34.375H20.9851V30.3766C22.4718 30.3766 23.962 30.3729 25.4487 30.3766Z" fill="#D0D0D0"/>
<path d="M24.1671 25.375L25.9851 30.375C24.3197 30.372 22.6505 30.375 20.9851 30.375V25.375H24.1671Z" fill="#D0D0D0"/>
<path d="M20.9851 25.375V30.375C19.3197 30.375 17.6505 30.372 15.9851 30.375L17.8031 25.375C18.8627 25.375 19.9254 25.375 20.9851 25.375Z" fill="#D0D0D0"/>
<path d="M20.9785 11.9321L22.4672 13.9241L24.8049 14.6958C24.844 14.749 24.6743 14.9712 24.636 15.0309C24.4698 15.2864 23.3702 16.6346 23.3702 16.741V19.2655L20.9792 18.5215V11.9321H20.9785Z" fill="#B6B6B6"/>
<path d="M20.9819 12.0368V18.5197L18.5909 19.2637V16.7392C18.5909 16.6327 17.4906 15.2797 17.3252 15.0291C17.2861 14.9701 17.1172 14.7472 17.1562 14.694L19.4932 13.9216C19.9547 13.3906 20.3245 12.7041 20.7789 12.1788C20.8399 12.1085 20.8633 12.0325 20.9819 12.0368Z" fill="#B6B6B6"/>
</svg>
