<svg width="24" height="24" viewBox="0 0 24 24" fill="none" xmlns="http://www.w3.org/2000/svg">
<path d="M15.4212 6.05768C15.5238 7.40469 15.6275 8.75951 15.7552 10.106C15.2863 10.7745 14.8174 11.4396 14.2944 12.0674C12.265 12.0546 10.0911 11.9793 8.07617 12.0674L8.57684 6.05768C10.7998 6.20487 13.1816 5.94728 15.4212 6.05768Z" fill="#876EFF"/>
<path d="M15.4174 6.05748C13.1778 5.94709 10.796 6.20467 8.57308 6.05748C6.02736 5.88855 6.05133 2.2244 8.55022 2.04933C10.7938 1.89211 13.2191 2.17199 15.4816 2.04933C17.9721 2.34594 17.9258 5.84618 15.4174 6.05748Z" fill="#B885FF"/>
<path d="M8.07618 12.0685C10.0911 11.9804 12.265 12.0557 14.2944 12.0685C13.3394 13.2154 12.2404 14.2491 11.0345 15.1316C10.5862 15.46 10.1051 15.7405 9.66182 16.075C9.07529 16.0711 8.37391 16.1269 7.80522 16.0744C5.43846 15.857 5.26841 12.1917 8.07562 12.0685H8.07618Z" fill="#B885FF"/>
<path d="M15.9659 12.0681C18.7129 12.1874 18.5423 15.8314 16.2737 16.0695C15.2038 16.1816 13.7804 16.0712 12.6686 16.0745C12.2243 16.0756 11.7777 16.0762 11.3333 16.0745C10.7775 16.0729 10.2199 16.0784 9.66406 16.0745C10.1073 15.74 10.5885 15.459 11.0367 15.1312C12.2421 14.2486 13.3416 13.2155 14.2967 12.0681C14.8469 12.0714 15.4195 12.0441 15.9659 12.0681Z" fill="#876EFF"/>
<path d="M12.6679 16.0747L12.664 21.5174C12.5146 22.2751 11.4854 22.2751 11.3359 21.5174L11.332 16.0747C11.7764 16.0764 12.223 16.0758 12.6673 16.0747H12.6679Z" fill="#4B5A64"/>
<path d="M15.7576 10.1483L15.7994 10.1901C15.8591 10.8151 15.887 11.4451 15.9661 12.0679C15.4198 12.0439 14.8466 12.0712 14.2969 12.0679C14.8198 11.4401 15.2887 10.7744 15.7576 10.1064C15.7587 10.1204 15.7565 10.1343 15.7576 10.1483Z" fill="#A1F300"/>
<path d="M15.7996 10.1898L15.7578 10.1479C15.7578 10.1507 15.7963 10.158 15.7996 10.1898Z" fill="#876EFF"/>
</svg>
