<svg width="150" height="150" viewBox="0 0 150 150" fill="none" xmlns="http://www.w3.org/2000/svg">
<path d="M87.5617 32.5243C90.5097 39.375 93.441 46.2459 96.4292 53.0766L140.633 57.1536C142.415 57.4886 143.095 58.3361 143.999 59.8034V61.6761C143.286 62.862 142.318 63.7966 141.329 64.7547L109.491 92.6235L109.568 94.1042L119.092 136.197C119.571 138.901 117.494 141.075 114.771 140.519L75.6089 117.35C65.656 123.169 55.7701 129.119 45.834 134.961C46.4805 97.0857 61.8604 60.0178 87.5617 32.5176V32.5243Z" fill="#F9DD78"/>
<path d="M87.5625 32.5243C61.8612 60.0245 46.4813 97.0958 45.8348 134.968C43.9219 136.093 37.9589 140.214 36.2772 140.522C35.1985 140.72 34.5553 140.612 33.6106 140.103C31.2086 138.807 31.8987 136.582 32.2773 134.381C34.5888 120.945 38.9405 107.283 41.4965 93.8328L41.4195 92.7106L8.41514 63.6526C5.95624 61.3511 6.80714 57.8738 10.1504 57.1536L54.6152 53.0699L72.0754 12.3572C73.3886 9.51974 76.9564 9.12109 78.6883 11.8346C81.7101 18.7021 84.5911 25.6333 87.5592 32.5209L87.5625 32.5243Z" fill="#F5CA66"/>
</svg>
