<svg width="48" height="48" viewBox="0 0 48 48" fill="none" xmlns="http://www.w3.org/2000/svg">
<path d="M38.4042 17.9689C38.2917 18.0766 38.1475 18.0401 38.0109 18.043C33.2382 18.1372 28.4549 17.9699 23.6813 18.0391C22.9485 18.1132 22.9571 19.1249 23.6813 19.1941L37.9301 19.1912C38.0099 19.2037 37.9676 19.398 37.9724 19.4807C36.7117 19.8317 35.5231 20.3962 34.3008 20.8481C34.1374 20.9087 33.9037 20.9376 33.7065 21.0107C30.7023 22.1233 27.3529 23.6293 24.3313 24.5207C23.7255 24.6996 23.713 24.6996 23.1052 24.5207C20.0904 23.6312 16.7246 22.1291 13.73 21.0107C13.5329 20.9376 13.2992 20.9087 13.1357 20.8481C11.6144 20.2808 10.1104 19.6461 8.57459 19.1114C8.24859 18.9085 8.21589 18.444 8.49189 18.1834C13.4954 16.2043 18.5826 14.405 23.6188 12.5L23.9371 12.5337C28.6559 14.4954 33.7325 15.935 38.4052 17.9699L38.4042 17.9689Z" fill="#B6B6B6"/>
<path d="M34.301 20.8491C34.2769 22.8522 34.3327 24.8592 34.3039 26.8623C34.3019 27.0249 34.2317 27.173 34.2288 27.3268C28.5455 30.3551 21.8975 30.8378 15.8554 28.5327L13.1378 27.3268C13.1311 25.1689 13.1436 23.0071 13.1378 20.8481C13.3003 20.9087 13.535 20.9366 13.7321 21.0107C16.7267 22.1291 20.0925 23.6312 23.1073 24.5207C23.7141 24.6996 23.7266 24.6996 24.3334 24.5207C27.3549 23.6293 30.7034 22.1233 33.7086 21.0107C33.9057 20.9376 34.1385 20.9087 34.3029 20.8481L34.301 20.8491Z" fill="#D0D0D0"/>
<path d="M34.231 27.3262C34.2117 28.4965 34.256 29.6717 34.2194 30.842C28.0158 34.228 20.1129 34.4299 13.8111 31.1545C13.6371 31.0641 13.1688 30.8285 13.1399 30.6737C13.137 29.5582 13.1437 28.4407 13.1399 27.3262L15.8575 28.5321C21.9006 30.8372 28.5485 30.3544 34.231 27.3262Z" fill="#D0D0D0"/>
<path d="M39.1263 26.1029C38.7618 26.0866 38.3387 26.0866 37.9742 26.1029C37.879 23.9276 38.1012 21.6437 37.9742 19.48C37.9694 19.3973 38.0127 19.203 37.9319 19.1905L23.6831 19.1934C22.9589 19.1242 22.9503 18.1125 23.6831 18.0385C28.4567 17.9692 33.24 18.1366 38.0127 18.0423C38.1493 18.0394 38.2926 18.076 38.406 17.9683C38.6965 18.0942 39.0484 18.0471 39.1215 18.5126L39.1254 26.1029H39.1263Z" fill="#B6B6B6"/>
<path d="M37.9709 26.1041C38.3353 26.0877 38.7585 26.0877 39.1229 26.1041C39.5903 26.1252 39.824 26.0541 39.9798 26.5791C40.1356 27.1042 40.5702 29.2987 40.5693 29.8122C40.5683 30.2363 40.3385 30.3921 39.9548 30.4267C39.323 30.4844 37.5218 30.5123 36.9323 30.419C36.6524 30.3748 36.4707 30.1094 36.4765 29.8334C36.4841 29.4429 36.964 26.8253 37.1025 26.4955C37.2814 26.0675 37.591 26.1223 37.9718 26.105L37.9709 26.1041Z" fill="#D9D9D9"/>
</svg>
