<svg width="42" height="42" viewBox="0 0 42 42" fill="none" xmlns="http://www.w3.org/2000/svg">
<g clip-path="url(#clip0_521_15640)">
<path d="M35.3545 15.0939C35.242 15.2016 35.0978 15.1651 34.9612 15.168C30.1885 15.2622 25.4053 15.0949 20.6316 15.1641C19.8989 15.2382 19.9075 16.2498 20.6316 16.3191L34.8804 16.3162C34.9603 16.3287 34.918 16.5229 34.9228 16.6056C33.662 16.9566 32.4734 17.5211 31.2512 17.9731C31.0877 18.0337 30.854 18.0625 30.6569 18.1356C27.6527 19.2483 24.3032 20.7542 21.2817 21.6457C20.6759 21.8245 20.6634 21.8245 20.0556 21.6457C17.0408 20.7561 13.675 19.254 10.6805 18.1356C10.4833 18.0625 10.2496 18.0337 10.0862 17.9731C8.56482 17.4057 7.06079 16.771 5.52503 16.2364C5.19903 16.0335 5.16633 15.569 5.44233 15.3084C10.4458 13.3293 15.533 11.53 20.5691 9.625L20.8874 9.65866C25.6063 11.6204 30.6828 13.06 35.3555 15.0949L35.3545 15.0939Z" fill="#7D62FF"/>
<path d="M31.254 17.9736C31.23 19.9767 31.2857 21.9837 31.2569 23.9868C31.255 24.1494 31.1848 24.2974 31.1819 24.4513C25.4985 27.4796 18.8506 27.9623 12.8085 25.6572L10.0909 24.4513C10.0842 22.2934 10.0967 20.1316 10.0909 17.9727C10.2534 18.0332 10.4881 18.0611 10.6852 18.1352C13.6798 19.2536 17.0456 20.7557 20.0604 21.6452C20.6672 21.8241 20.6797 21.8241 21.2865 21.6452C24.308 20.7538 27.6565 19.2478 30.6616 18.1352C30.8588 18.0621 31.0915 18.0332 31.2559 17.9727L31.254 17.9736Z" fill="#684DEA"/>
<path d="M31.1806 24.4512C31.1613 25.6215 31.2056 26.7966 31.169 27.967C24.9654 31.353 17.0626 31.5549 10.7608 28.2795C10.5868 28.1891 10.1185 27.9535 10.0896 27.7987C10.0867 26.6832 10.0935 25.5657 10.0896 24.4512L12.8072 25.6571C18.8503 27.9622 25.4982 27.4794 31.1806 24.4512Z" fill="#7D62FF"/>
<path d="M36.0794 23.2284C35.7149 23.212 35.2918 23.212 34.9273 23.2284C34.8321 21.0531 35.0543 18.7692 34.9273 16.6055C34.9225 16.5228 34.9658 16.3285 34.885 16.316L20.6362 16.3189C19.9121 16.2497 19.9034 15.238 20.6362 15.164C25.4098 15.0947 30.1931 15.262 34.9658 15.1678C35.1023 15.1649 35.2456 15.2015 35.3591 15.0938C35.6495 15.2197 36.0015 15.1726 36.0746 15.638L36.0784 23.2284H36.0794Z" fill="#7D62FF"/>
<path d="M34.9213 23.2291C35.2858 23.2127 35.7089 23.2127 36.0734 23.2291C36.5407 23.2502 36.7744 23.1791 36.9302 23.7041C37.086 24.2292 37.5206 26.4237 37.5197 26.9372C37.5187 27.3613 37.2889 27.5171 36.9052 27.5517C36.2734 27.6094 34.4722 27.6373 33.8827 27.544C33.6029 27.4998 33.4211 27.2343 33.4269 26.9583C33.4346 26.5679 33.9145 23.9503 34.0529 23.6204C34.2318 23.1925 34.5414 23.2473 34.9223 23.23L34.9213 23.2291Z" fill="#7D62FF"/>
</g>
<defs>
<clipPath id="clip0_521_15640">
<rect width="32.0494" height="32.0494" fill="white" transform="translate(5.6875 4.18555)"/>
</clipPath>
</defs>
</svg>
