<svg width="30" height="30" viewBox="0 0 30 30" fill="none" xmlns="http://www.w3.org/2000/svg">
<path d="M25.044 11.1993C24.9636 11.2763 24.8606 11.2502 24.763 11.2522C21.354 11.3195 17.9374 11.2 14.5276 11.2495C14.0042 11.3024 14.0104 12.025 14.5276 12.0744L24.7053 12.0724C24.7624 12.0813 24.7321 12.2201 24.7356 12.2791C23.835 12.5299 22.986 12.9331 22.113 13.2559C21.9962 13.2992 21.8293 13.3198 21.6885 13.372C19.5426 14.1667 17.1502 15.2424 14.992 15.8792C14.5592 16.0069 14.5503 16.0069 14.1162 15.8792C11.9628 15.2438 9.55862 14.1708 7.41963 13.372C7.27882 13.3198 7.1119 13.2992 6.99513 13.2559C5.90846 12.8506 4.83416 12.3973 3.73719 12.0154C3.50433 11.8704 3.48098 11.5387 3.67811 11.3525C7.25203 9.93889 10.8857 8.65371 14.483 7.29297L14.7103 7.31701C18.0809 8.71828 21.707 9.74656 25.0447 11.2L25.044 11.1993Z" fill="#909090"/>
<path d="M22.1141 13.2565C22.0969 14.6873 22.1367 16.1209 22.1161 17.5517C22.1147 17.6678 22.0646 17.7736 22.0625 17.8835C18.003 20.0465 13.2545 20.3913 8.93872 18.7448L6.99756 17.8835C6.99275 16.3421 7.00168 14.7979 6.99756 13.2559C7.11364 13.2991 7.28125 13.3191 7.42206 13.3719C9.56105 14.1708 11.9652 15.2437 14.1186 15.8791C14.552 16.0069 14.561 16.0069 14.9944 15.8791C17.1526 15.2424 19.5444 14.1667 21.6909 13.3719C21.8317 13.3197 21.998 13.2991 22.1154 13.2559L22.1141 13.2565Z" fill="#B6B6B6"/>
<path d="M22.0655 17.8828C22.0518 18.7188 22.0834 19.5581 22.0573 20.3941C17.6261 22.8127 11.9812 22.9569 7.47998 20.6173C7.35565 20.5528 7.02114 20.3845 7.00053 20.2739C6.99847 19.4771 7.00328 18.6789 7.00053 17.8828L8.94169 18.7442C13.2581 20.3907 18.0066 20.0458 22.0655 17.8828Z" fill="#D9D9D9"/>
<path d="M25.5617 17.0092C25.3014 16.9975 24.9992 16.9975 24.7388 17.0092C24.6708 15.4554 24.8295 13.824 24.7388 12.2785C24.7354 12.2195 24.7663 12.0807 24.7086 12.0718L14.5309 12.0738C14.0136 12.0244 14.0075 11.3018 14.5309 11.2489C17.9406 11.1994 21.3572 11.3189 24.7663 11.2516C24.8638 11.2496 24.9662 11.2757 25.0472 11.1987C25.2547 11.2887 25.5061 11.2551 25.5583 11.5875L25.561 17.0092H25.5617Z" fill="#B6B6B6"/>
<path d="M24.7335 17.0097C24.9939 16.9981 25.2961 16.9981 25.5564 17.0097C25.8903 17.0248 26.0572 16.974 26.1685 17.3491C26.2797 17.7241 26.5902 19.2916 26.5895 19.6584C26.5888 19.9613 26.4247 20.0726 26.1506 20.0973C25.6993 20.1385 24.4128 20.1585 23.9917 20.0918C23.7918 20.0602 23.662 19.8707 23.6661 19.6735C23.6716 19.3946 24.0144 17.5249 24.1133 17.2893C24.241 16.9836 24.4622 17.0228 24.7342 17.0104L24.7335 17.0097Z" fill="#D9D9D9"/>
</svg>
