<svg width="30" height="30" viewBox="0 0 30 30" fill="none" xmlns="http://www.w3.org/2000/svg">
<path fill-rule="evenodd" clip-rule="evenodd" d="M13.5105 5.89713L3.10676 11.099L13.5105 16.3008L23.9141 11.099L13.5105 5.89713ZM12.7558 4.17815C13.2309 3.94061 13.7901 3.94062 14.2651 4.17815L25.0881 9.58963C26.3318 10.2115 26.3318 11.9864 25.0881 12.6083L14.2651 18.0198C13.7901 18.2573 13.2309 18.2573 12.7558 18.0198L1.93283 12.6083C0.689062 11.9864 0.689053 10.2115 1.93283 9.58963L12.7558 4.17815Z" fill="black"/>
<path fill-rule="evenodd" clip-rule="evenodd" d="M23.9214 10.0547C24.153 9.59159 24.7161 9.40388 25.1792 9.63543L27.6792 10.8854C27.9968 11.0442 28.1975 11.3689 28.1975 11.724L28.1975 16.099C28.1975 16.6167 27.7777 17.0365 27.26 17.0365C26.7422 17.0365 26.3225 16.6167 26.3225 16.099L26.3225 12.3034L24.3407 11.3125C23.8776 11.0809 23.6899 10.5178 23.9214 10.0547Z" fill="black"/>
<path fill-rule="evenodd" clip-rule="evenodd" d="M4.75977 12.0365C5.27753 12.0365 5.69727 12.4562 5.69727 12.974V19.7391C5.69727 20.3424 6.0446 20.8919 6.58961 21.1506L12.8396 24.118C13.2637 24.3194 13.7558 24.3194 14.1799 24.118L20.4299 21.1506C20.9749 20.8919 21.3223 20.3424 21.3223 19.7391V12.974C21.3223 12.4562 21.742 12.0365 22.2598 12.0365C22.7775 12.0365 23.1973 12.4562 23.1973 12.974V19.7391C23.1973 21.0664 22.4331 22.2751 21.2341 22.8444L14.9841 25.8118C14.0511 26.2548 12.9684 26.2548 12.0354 25.8118L5.78542 22.8444C4.58641 22.2751 3.82227 21.0664 3.82227 19.7391L3.82227 12.974C3.82227 12.4562 4.242 12.0365 4.75977 12.0365Z" fill="black"/>
</svg>
