<svg width="30" height="30" viewBox="0 0 30 30" fill="none" xmlns="http://www.w3.org/2000/svg">
<path fill-rule="evenodd" clip-rule="evenodd" d="M4.6875 15.8013V19.8901C4.6875 21.2174 5.45164 22.4261 6.65065 22.9954L12.9007 25.9628C13.8336 26.4058 14.9164 26.4058 15.8493 25.9628L22.0993 22.9954C23.2984 22.4261 24.0625 21.2174 24.0625 19.8901V15.8013L15.9683 19.8485C14.9653 20.3499 13.7848 20.3499 12.7819 19.8485L4.6875 15.8013Z" fill="black"/>
<path fill-rule="evenodd" clip-rule="evenodd" d="M13.6191 4.32915C14.0941 4.09162 14.6533 4.09162 15.1284 4.32916L25.9514 9.74063C27.1951 10.3625 27.1951 12.1374 25.9514 12.7593L15.1284 18.1708C14.6533 18.4083 14.0941 18.4083 13.6191 18.1708L2.79611 12.7593C1.55234 12.1374 1.55233 10.3625 2.79611 9.74063L13.6191 4.32915Z" fill="black"/>
<path fill-rule="evenodd" clip-rule="evenodd" d="M24.7867 10.2058C25.0182 9.74272 25.5814 9.55501 26.0445 9.78656L28.5445 11.0366C28.8621 11.1954 29.0627 11.52 29.0627 11.8751L29.0627 16.2501C29.0627 16.7678 28.643 17.1876 28.1252 17.1876C27.6074 17.1876 27.1877 16.7679 27.1877 16.2501L27.1877 12.4545L25.2059 11.4636C24.7428 11.2321 24.5551 10.6689 24.7867 10.2058Z" fill="black"/>
</svg>
