<svg width="30" height="30" viewBox="0 0 30 30" fill="none" xmlns="http://www.w3.org/2000/svg">
<path d="M25.251 11.4064C25.1706 11.4833 25.0676 11.4572 24.9701 11.4593C21.561 11.5266 18.1444 11.4071 14.7346 11.4565C14.2112 11.5094 14.2174 12.232 14.7346 12.2815L24.9124 12.2794C24.9694 12.2883 24.9392 12.4271 24.9426 12.4862C24.0421 12.7369 23.1931 13.1401 22.32 13.4629C22.2033 13.5062 22.0363 13.5268 21.8955 13.579C19.7497 14.3738 17.3572 15.4494 15.199 16.0862C14.7662 16.2139 14.7573 16.2139 14.3232 16.0862C12.1698 15.4508 9.76565 14.3779 7.62666 13.579C7.48585 13.5268 7.31893 13.5062 7.20216 13.4629C6.11549 13.0577 5.04119 12.6043 3.94422 12.2224C3.71136 12.0775 3.68801 11.7457 3.88515 11.5595C7.45906 10.1459 11.0927 8.86074 14.69 7.5L14.9174 7.52404C18.288 8.92531 21.9141 9.95359 25.2517 11.4071L25.251 11.4064Z" fill="#373737"/>
<path d="M22.3211 13.4636C22.3039 14.8944 22.3438 16.3279 22.3231 17.7587C22.3218 17.8748 22.2716 17.9806 22.2696 18.0905C18.21 20.2535 13.4615 20.5984 9.14575 18.9519L7.20459 18.0905C7.19978 16.5491 7.20871 15.005 7.20459 13.4629C7.32067 13.5062 7.48828 13.5261 7.62909 13.579C9.76808 14.3778 12.1722 15.4508 14.3256 16.0861C14.7591 16.2139 14.768 16.2139 15.2014 16.0861C17.3596 15.4494 19.7514 14.3737 21.898 13.579C22.0388 13.5268 22.205 13.5062 22.3225 13.4629L22.3211 13.4636Z" fill="#292929"/>
<path d="M22.2725 18.0898C22.2588 18.9258 22.2904 19.7652 22.2643 20.6011C17.8331 23.0197 12.1882 23.1639 7.68701 20.8244C7.56269 20.7598 7.22817 20.5915 7.20756 20.4809C7.2055 19.6841 7.21031 18.886 7.20756 18.0898L9.14873 18.9512C13.4652 20.5977 18.2137 20.2529 22.2725 18.0898Z" fill="#99E700"/>
<path d="M25.7687 17.2162C25.5084 17.2045 25.2062 17.2045 24.9458 17.2162C24.8778 15.6624 25.0365 14.0311 24.9458 12.4856C24.9424 12.4265 24.9733 12.2877 24.9156 12.2788L14.7379 12.2809C14.2207 12.2314 14.2145 11.5088 14.7379 11.4559C18.1476 11.4064 21.5643 11.526 24.9733 11.4587C25.0709 11.4566 25.1732 11.4827 25.2543 11.4058C25.4617 11.4957 25.7131 11.4621 25.7653 11.7945L25.7681 17.2162H25.7687Z" fill="#292929"/>
<path d="M24.9406 17.2168C25.2009 17.2051 25.5031 17.2051 25.7635 17.2168C26.0973 17.2319 26.2642 17.181 26.3755 17.5561C26.4868 17.9311 26.7973 19.4986 26.7966 19.8654C26.7959 20.1684 26.6317 20.2796 26.3576 20.3044C25.9063 20.3456 24.6198 20.3655 24.1987 20.2989C23.9988 20.2673 23.869 20.0777 23.8731 19.8805C23.8786 19.6017 24.2214 17.7319 24.3203 17.4963C24.4481 17.1907 24.6693 17.2298 24.9413 17.2175L24.9406 17.2168Z" fill="#99E700"/>
</svg>
