<svg width="180" height="180" viewBox="0 0 180 180" fill="none" xmlns="http://www.w3.org/2000/svg">
<path d="M130.706 40C137.142 41.5461 142.1 46.1571 143.422 52.7365C142.632 68.6333 144.92 86.3759 143.572 102.062C143.054 108.042 139.431 113.388 133.662 115.384C131.652 116.078 130.065 115.935 128.233 116.63C120.496 116.712 112.732 116.371 105.001 116.869L96.3307 136.866C92.864 141.408 86.2778 140.898 83.3422 136.082C82.1163 133.773 76.0545 117.032 75.0533 116.691C62.7255 115.813 49.2738 117.638 37.0754 116.617C29.3177 115.969 22.3364 111.229 21.5055 103.022C19.9185 87.3158 22.6838 69.0692 21.4987 53.0907C22.5748 46.4636 27.5196 41.73 33.8538 40H130.706ZM57.4401 70.7651C48.8992 72.536 51.1604 87.2613 60.6617 85.8718C70.8305 84.3802 68.5897 68.4494 57.4401 70.7651ZM95.4521 83.8286C102.365 77.3377 92.8844 65.7454 85.2357 72.3725C77.2737 79.2584 88.0282 90.803 95.4521 83.8286ZM118.712 70.7651C111.26 72.3112 110.954 84.0669 119.318 85.7629C130.706 88.0718 131.612 68.0884 118.712 70.7651Z" fill="#876EFF"/>
<path d="M146.526 40C152.703 41.7845 157.457 46.3274 158.751 52.7365C157.444 68.4153 161.04 88.6439 158.656 103.798C156.272 118.953 139.504 116.508 128.238 116.63C130.064 115.935 131.651 116.078 133.667 115.384C139.436 113.395 143.066 108.042 143.577 102.061C144.925 86.369 142.637 68.6333 143.427 52.7365C142.105 46.1571 137.14 41.5461 130.711 40H146.526Z" fill="#6D2FF2"/>
<path d="M118.718 70.7655C131.618 68.0888 130.705 88.0653 119.324 85.7632C110.96 84.0673 111.267 72.3184 118.718 70.7655Z" fill="#A1F300"/>
<path d="M57.4397 70.7672C68.5824 68.4514 70.8232 84.3823 60.6613 85.8739C51.16 87.2633 48.9055 72.5448 57.4397 70.7672Z" fill="#A1F300"/>
<path d="M95.4508 83.8295C88.0269 90.8039 77.2724 79.2593 85.2344 72.3734C92.8831 65.7532 102.364 77.3386 95.4508 83.8295Z" fill="#A1F300"/>
</svg>
