<svg width="150" height="150" viewBox="0 0 150 150" fill="none" xmlns="http://www.w3.org/2000/svg">
<path d="M109.912 13L112.173 15.0096C112.888 15.9305 113.125 17.1146 113.33 18.2427C113.227 29.3663 113.475 40.503 113.336 51.6265C113.33 52.0376 113.491 52.7086 113.089 52.9618C101.451 39.3814 79.6959 39.0064 67.4322 51.9883H27.3848V58.323H62.7884C60.6791 62.2337 59.2289 67.7757 59.1267 72.2126H27.3848V78.5473H59.6145C60.4352 83.2342 62.8807 88.7861 65.9622 92.4369H27.3848V98.7716H73.2855C84.0793 105.577 98.6566 105.103 108.689 97.0646L111.863 99.9886C110.947 102.63 111.81 105.929 113.573 108.03C113.168 108.284 113.33 108.954 113.326 109.366C113.25 116.513 114.097 125.923 113.303 132.734C113.115 134.362 112.344 135.819 111.009 136.78C110.37 137.24 109.253 137.293 109.18 138H39.5925C39.4969 137.865 39.4475 137.612 39.3486 137.513C39.754 137.26 39.5925 136.589 39.5958 136.178C39.6617 129.85 40.1297 121.844 39.5991 115.697C39.3321 112.595 37.4997 110.54 34.339 110.227C27.4903 109.55 19.1453 110.53 12.2439 110.467H12V16.1673L13.5787 14.4505L15.421 13H109.912ZM64.7428 38.0954V32.1258C64.7428 32.0995 64.4033 31.7607 64.377 31.7607H27.1409V38.0954H64.7428ZM97.948 112.658H64.4989V118.993H97.948V112.658Z" fill="#F7F5FF"/>
<path d="M15.4256 13L13.5865 14.4505L12.0078 16.1673V13H15.4256Z" fill="white"/>
<path d="M113.575 108.027C111.815 105.925 110.952 102.626 111.865 99.9852C112.161 99.1301 113.684 97.1698 114.422 96.5679C114.702 96.3409 116.845 94.9135 116.993 94.8675C118.881 94.2721 121.795 94.8181 123.509 95.795C125.361 96.8507 133.854 105.307 135.261 107.215C140.499 114.306 132.961 123.133 125.374 119.275C123.799 118.473 115.045 109.78 113.575 108.024V108.027Z" fill="#8DD500"/>
<path d="M39.3495 137.51C30.3717 128.445 21.061 119.693 12.248 110.464C19.1462 110.527 27.4912 109.543 34.3431 110.224C37.5038 110.537 39.3363 112.595 39.6032 115.694C40.1306 121.841 39.6659 129.843 39.5999 136.175C39.5967 136.586 39.7549 137.26 39.3528 137.51H39.3495Z" fill="#CDD5DF"/>
<path d="M65.9622 92.4341C67.6496 94.4305 71.0674 97.3709 73.2855 98.7688H27.3848V92.4341H65.9622Z" fill="#CDD5DE"/>
<path d="M67.4288 51.9844C65.9852 53.5138 63.7836 56.4772 62.7883 58.3191H27.3848V51.9844H67.4255H67.4288Z" fill="#CDD5DE"/>
<path d="M64.7503 38.0949H27.1484V31.7603H64.3845C64.4108 31.7603 64.7503 32.099 64.7503 32.1253V38.0949Z" fill="#A1F300"/>
<path d="M97.9511 112.658H64.502V118.993H97.9511V112.658Z" fill="#A1F300"/>
<path d="M59.1267 72.208C59.0805 74.1847 59.2717 76.589 59.6145 78.5427H27.3848V72.208H59.1267Z" fill="#CDD5DE"/>
<path d="M116.99 94.8707C116.841 94.9168 114.699 96.3442 114.419 96.5712C113.681 97.1731 112.158 99.1333 111.861 99.9885L108.688 97.0645C110.296 95.7752 112.514 93.5485 113.816 91.9468L116.99 94.8707Z" fill="#6D2FF2"/>
<path d="M87.1525 51.5703C105.118 49.7482 117.586 68.5155 108.302 84.1286C99.9105 98.2386 79.0283 97.936 70.9602 83.6648C63.4754 70.4264 71.9159 53.1162 87.1525 51.5703Z" fill="#F7F5FF"/>
<path d="M65.8336 70.2285C65.883 73.5769 65.6784 77.6495 65.3115 80.9588H99.8086V70.2285H65.8336Z" fill="#CDD5DE"/>
<path d="M113.089 52.9585C122.399 63.8222 122.9 80.7804 113.82 91.9435C112.519 93.5452 110.301 95.7719 108.692 97.0612C98.6598 105.1 84.0824 105.573 73.2886 98.7682C71.0706 97.3704 67.6495 94.43 65.9654 92.4335C62.8838 88.7827 60.4383 83.2308 59.6176 78.5439C59.2749 76.5902 59.0837 74.1859 59.1299 72.2092C59.2353 67.7723 60.6822 62.2303 62.7915 58.3196C63.7835 56.4777 65.9851 53.5143 67.432 51.9849C79.6957 39.0031 101.451 39.378 113.089 52.9585ZM87.1574 51.5705C71.9209 53.1163 63.4836 70.4298 70.9651 83.6649C79.0332 97.9361 99.9155 98.2387 108.307 84.1287C117.591 68.5156 105.123 49.7451 87.1574 51.5705Z" fill="#876EFF"/>
</svg>
