<svg width="22" height="22" viewBox="0 0 22 22" fill="none" xmlns="http://www.w3.org/2000/svg">
<path d="M12.8422 4.77002C13.2746 5.7748 13.7045 6.78253 14.1428 7.78437L20.626 8.38232C20.8874 8.43145 20.9871 8.55576 21.1198 8.77096V9.04562C21.0151 9.21955 20.8731 9.35664 20.7282 9.49716L16.0585 13.5846L16.0698 13.8017L17.4667 19.9754C17.5369 20.3719 17.2323 20.6908 16.8329 20.6092L11.0892 17.2111C9.6294 18.0646 8.17947 18.9372 6.72217 19.7941C6.817 14.239 9.07271 8.80241 12.8422 4.76904V4.77002Z" fill="#D9D9D9"/>
<path d="M12.8427 4.77011C9.07317 8.80348 6.81745 14.2406 6.72262 19.7951C6.44207 19.9602 5.56749 20.5646 5.32084 20.6098C5.16263 20.6388 5.0683 20.623 4.92974 20.5484C4.57745 20.3582 4.67867 20.032 4.73419 19.7092C5.07321 17.7384 5.71145 15.7347 6.08634 13.762L6.07504 13.5974L1.23441 9.3356C0.87377 8.99805 0.998569 8.48805 1.48892 8.38241L8.01041 7.78347L10.5712 1.81228C10.7639 1.39611 11.2871 1.33765 11.5411 1.73563C11.9843 2.74286 12.4069 3.75944 12.8422 4.76962L12.8427 4.77011Z" fill="#C7C7C7"/>
</svg>
