<svg width="24" height="24" viewBox="0 0 24 24" fill="none" xmlns="http://www.w3.org/2000/svg">
<path d="M12.6095 16.5656C14.3538 16.5683 16.1068 16.5309 17.85 16.5656C18.3559 16.5759 18.7336 16.5097 19.1873 16.7925C19.5385 17.0112 19.8288 17.434 19.8771 17.8497C19.9287 18.2969 19.939 19.8459 19.8527 20.254C19.7284 20.8429 19.2231 21.2515 18.6625 21.3997H12V16.5651C12.2024 16.5651 12.4065 16.5651 12.6095 16.5651V16.5656Z" fill="#484848"/>
<path d="M6.1493 16.5654C7.89253 16.5301 9.64554 16.5681 11.3899 16.5654C11.5923 16.5654 11.7964 16.5654 11.9993 16.5654V21.4H5.29613C4.66928 21.1927 4.17594 20.7281 4.11679 20.0405C4.0712 19.508 4.06251 18.3716 4.12276 17.8495C4.17052 17.4359 4.47661 16.98 4.83698 16.7765C5.28962 16.5209 5.65813 16.5752 6.1493 16.5654Z" fill="#909090"/>
<path d="M1.59961 11V10.6749C1.73909 10.4583 1.87586 10.2689 2.15156 10.2315C2.56132 10.1756 3.76075 10.1805 4.17919 10.2277C4.98459 10.3183 4.97537 11.3647 4.2606 11.4467C3.84595 11.4939 2.46472 11.5053 2.06961 11.4439C1.83407 11.4076 1.68753 11.1997 1.59961 10.9994V11Z" fill="#D95D64"/>
<path d="M17.85 16.5655C16.1063 16.5308 14.3538 16.5683 12.6095 16.5655L12.6079 13.3835C14.502 12.6595 14.0596 9.85744 12 9.82216V6.816C13.0165 6.816 14.1953 6.74111 15.1907 6.81437C16.1871 6.88764 16.8948 7.54705 16.992 8.54784L17.8506 16.5661L17.85 16.5655Z" fill="#D32B5F"/>
<path d="M12.0004 6.81557V9.82173C9.96087 9.78645 9.46699 12.7112 11.3937 13.3809L11.391 16.5656C9.64663 16.5684 7.89363 16.5304 6.15039 16.5656L7.00844 8.5067C7.11807 7.56236 7.81873 6.88558 8.76905 6.81448C9.77363 6.73904 10.9731 6.81557 12.0004 6.81611V6.81557Z" fill="#D85B63"/>
<path d="M20.4413 5.52351C21.0074 5.44536 21.3656 6.15796 20.9585 6.57206C20.5765 6.96065 19.4981 7.32862 19.0297 7.69007C18.3866 7.90716 17.9144 7.08982 18.398 6.65238C18.6237 6.44832 19.6913 5.87682 20.0169 5.71184C20.1309 5.65376 20.323 5.53979 20.4413 5.52351Z" fill="#D32E60"/>
<path d="M3.41634 5.40325C3.60033 5.3658 3.7257 5.41031 3.8896 5.48032C4.20004 5.61329 5.40109 6.28898 5.64152 6.49087C6.15711 6.92343 5.75549 7.74132 5.09174 7.56873C4.67276 7.261 3.22368 6.68246 3.0131 6.27595C2.83725 5.93621 3.05597 5.47706 3.41634 5.40379V5.40325Z" fill="#D95D64"/>
<path d="M15.5467 4.68945C15.3975 4.5402 15.3231 4.25635 15.3899 4.05174C15.7502 3.51227 16.0325 2.78448 16.4173 2.27649C16.9003 1.63987 17.6574 1.96279 17.5548 2.72369C17.2015 3.28379 16.9014 4.00181 16.5171 4.52934C16.2762 4.85986 15.8718 5.01291 15.5467 4.6889V4.68945Z" fill="#D32E60"/>
<path d="M22.2223 10.5669C22.5702 10.9131 22.3819 11.5383 21.8875 11.6056C21.5499 11.6518 19.9727 11.6621 19.6661 11.5997C19.0479 11.4738 19.0626 10.4865 19.7415 10.3937C20.1627 10.3362 21.3778 10.3427 21.8099 10.3899C21.9352 10.4035 22.1344 10.4784 22.2223 10.5663V10.5669Z" fill="#D32E60"/>
<path d="M7.07301 1.8688C7.29282 1.83407 7.50828 1.91439 7.65265 2.08209C8.04341 2.53527 8.33865 3.43348 8.7305 3.92953C8.93239 4.60034 8.18126 5.06655 7.7118 4.58298C7.53162 4.39736 6.75823 3.04435 6.64263 2.76756C6.47927 2.37571 6.62743 1.9399 7.07301 1.8688Z" fill="#D95D64"/>
<path d="M12.0003 0.600098V3.76908C11.7208 3.76908 11.4516 3.57478 11.4006 3.29256C11.3295 2.90126 11.3555 1.66113 11.3897 1.22857C11.4179 0.868747 11.6139 0.60064 12.0008 0.60064L12.0003 0.600098Z" fill="#D95C63"/>
<path d="M12.0005 3.76853V0.600098C12.28 0.600098 12.5492 0.794394 12.6003 1.07661C12.6714 1.46792 12.6453 2.70805 12.6111 3.1406C12.5829 3.50043 12.387 3.76853 12 3.76853H12.0005Z" fill="#D32D60"/>
<path d="M12 9.82232C14.0596 9.85814 14.502 12.6602 12.6079 13.3837L12.6095 16.5657C12.407 16.5657 12.203 16.5657 12 16.5657V9.82178V9.82232Z" fill="#BD2C52"/>
<path d="M12.0007 9.82209V16.566C11.7983 16.566 11.5942 16.566 11.3912 16.566L11.3939 13.3813C9.46727 12.7116 9.96115 9.78682 12.0007 9.82209Z" fill="#D32B5F"/>
</svg>
