<svg width="24" height="24" viewBox="0 0 24 24" fill="none" xmlns="http://www.w3.org/2000/svg">
<path d="M2.39214 18.0983L10.617 3.89171C11.0716 3.10655 11.2989 2.71396 11.5954 2.58211C11.8541 2.4671 12.1494 2.4671 12.408 2.58211C12.7045 2.71396 12.9318 3.10654 13.3864 3.89171L21.6113 18.0983C22.0675 18.8863 22.2956 19.2803 22.2619 19.6037C22.2325 19.8857 22.0847 20.142 21.8553 20.3088C21.5924 20.5 21.1371 20.5 20.2266 20.5H3.77682C2.8663 20.5 2.41104 20.5 2.14808 20.3088C1.91872 20.142 1.77095 19.8857 1.74155 19.6037C1.70783 19.2803 1.93594 18.8863 2.39214 18.0983Z" fill="white"/>
<path d="M12.0017 8.99999V13M12.0017 17H12.0117M10.617 3.89171L2.39214 18.0983C1.93594 18.8863 1.70783 19.2803 1.74155 19.6037C1.77095 19.8857 1.91872 20.142 2.14808 20.3088C2.41104 20.5 2.8663 20.5 3.77682 20.5H20.2266C21.1371 20.5 21.5924 20.5 21.8553 20.3088C22.0847 20.142 22.2325 19.8857 22.2619 19.6037C22.2956 19.2803 22.0675 18.8863 21.6113 18.0983L13.3864 3.89171C12.9318 3.10654 12.7045 2.71396 12.408 2.58211C12.1494 2.4671 11.8541 2.4671 11.5954 2.58211C11.2989 2.71396 11.0716 3.10655 10.617 3.89171Z" stroke="black" stroke-width="1.5" stroke-linecap="round" stroke-linejoin="round"/>
</svg>
