<svg width="116" height="28" viewBox="0 0 116 28" fill="none" xmlns="http://www.w3.org/2000/svg">
<path d="M16.6419 23.4145H12.5421C12.4455 23.4145 12.3567 23.3632 12.3078 23.2804L4.73756 10.3578C4.59744 10.1192 4.23204 10.2183 4.23204 10.4949V23.1433C4.23204 23.2931 4.11064 23.4145 3.96085 23.4145H0.271184C0.121398 23.4145 0 23.2931 0 23.1433V2.5412C0 2.39142 0.121398 2.27002 0.271184 2.27002H4.37095C4.46759 2.27002 4.55637 2.32136 4.60529 2.4041L12.1755 15.34C12.315 15.5792 12.681 15.4795 12.681 15.2029V2.5412C12.681 2.39142 12.8024 2.27002 12.9522 2.27002H16.6413C16.791 2.27002 16.9124 2.39142 16.9124 2.5412V23.1433C16.9124 23.2931 16.791 23.4145 16.6413 23.4145H16.6419Z" fill="black"/>
<path d="M26.3044 19.1738C26.1854 19.3532 26.3128 19.5978 26.5278 19.5954C26.5296 19.5954 26.5315 19.5954 26.5333 19.5954C26.6909 19.5936 26.8485 19.5839 27.005 19.567C27.3957 19.5253 27.7666 19.4317 28.1169 19.2849C28.4672 19.1388 28.7903 18.9485 29.0869 18.7142C29.3828 18.4798 29.6407 18.205 29.8587 17.8904C30.0073 17.676 30.1329 17.4489 30.2356 17.2097C30.3069 17.043 30.5159 16.9886 30.6572 17.1028L33.4318 19.3538C33.5369 19.4389 33.5629 19.5887 33.4934 19.7047C33.2035 20.1927 32.8659 20.6445 32.4806 21.0588C32.0415 21.5311 31.5565 21.9436 31.0262 22.2963C30.4953 22.6497 29.9276 22.9353 29.3236 23.1528C28.719 23.3702 28.0891 23.5146 27.4344 23.584C26.3297 23.7018 25.2692 23.6076 24.2527 23.3008C23.2362 22.9939 22.3248 22.5132 21.5185 21.8579C20.7122 21.2025 20.0442 20.3914 19.5163 19.4245C18.9878 18.4575 18.6593 17.3685 18.53 16.1564C18.3978 14.9152 18.4865 13.7586 18.7976 12.6877C19.108 11.6163 19.5894 10.6807 20.2405 9.87927C20.8916 9.07841 21.6816 8.42551 22.6117 7.92059C23.5412 7.41627 24.5583 7.10462 25.6629 6.98685C26.3177 6.91679 26.9663 6.92705 27.6089 7.01644C28.251 7.10643 28.8688 7.2677 29.4625 7.50083C30.0556 7.73396 30.6197 8.03716 31.1537 8.41041C31.6284 8.74199 32.0608 9.11887 32.4516 9.54105C32.5374 9.63346 32.55 9.77237 32.48 9.87746L26.3056 19.1738H26.3044ZM27.0207 11.4188C27.1246 11.2449 27.008 11.022 26.8057 11.0081C26.7573 11.0045 26.709 11.0033 26.6619 11.0027C26.4789 11.0027 26.2899 11.0129 26.0942 11.0335C25.5464 11.092 25.0421 11.2473 24.5794 11.4991C24.1168 11.751 23.7272 12.082 23.4101 12.4915C23.093 12.9009 22.8599 13.3781 22.7101 13.9229C22.5609 14.4677 22.5211 15.068 22.5905 15.7227C22.6062 15.8695 22.631 16.035 22.666 16.2192C22.7005 16.4034 22.7452 16.5888 22.7995 16.776C22.8539 16.9633 22.9149 17.142 22.9831 17.3124C22.9837 17.3142 22.9843 17.316 22.9849 17.3172C23.0671 17.5244 23.354 17.5431 23.4681 17.3522L27.0201 11.4182L27.0207 11.4188Z" fill="black"/>
<path d="M54.2682 17.708C54.2682 18.5336 54.1106 19.3128 53.7965 20.0454C53.4819 20.778 53.0518 21.4146 52.5065 21.9551C51.9611 22.4957 51.3215 22.9233 50.5894 23.238C49.8568 23.5526 49.0729 23.7097 48.2376 23.7097C47.4905 23.7097 46.7729 23.5792 46.085 23.3189C45.4672 23.0852 44.9012 22.7542 44.3866 22.3266C44.2858 22.2426 44.1396 22.2432 44.0394 22.3278C43.5332 22.7548 42.9746 23.0852 42.3621 23.3189C41.679 23.5792 40.9585 23.7097 40.2017 23.7097C39.3658 23.7097 38.5843 23.552 37.8571 23.238C37.1293 22.9233 36.4933 22.4957 35.9473 21.9551C35.4019 21.4146 34.9713 20.778 34.6572 20.0454C34.3426 19.3134 34.1855 18.5342 34.1855 17.708V7.92304C34.1855 7.77325 34.3069 7.65186 34.4567 7.65186H37.9392C38.089 7.65186 38.2104 7.77325 38.2104 7.92304V17.708C38.2104 17.9834 38.2618 18.2413 38.365 18.4823C38.4683 18.7233 38.6109 18.9347 38.7927 19.1165C38.9744 19.2983 39.1858 19.4408 39.4268 19.5441C39.6678 19.6474 39.9257 19.6987 40.2011 19.6987C40.4765 19.6987 40.7368 19.6474 40.9827 19.5441C41.2285 19.4408 41.4447 19.2983 41.6313 19.1165C41.818 18.9347 41.9629 18.7233 42.0662 18.4823C42.1695 18.2413 42.2208 17.9834 42.2208 17.708V7.92304C42.2208 7.77325 42.3422 7.65186 42.492 7.65186H45.96C46.1098 7.65186 46.2312 7.77325 46.2312 7.92304V17.708C46.2312 17.9834 46.2849 18.2413 46.3936 18.4823C46.5018 18.7233 46.6467 18.9347 46.8285 19.1165C47.0103 19.2983 47.2217 19.4408 47.4627 19.5441C47.7037 19.6474 47.9616 19.6987 48.237 19.6987C48.5124 19.6987 48.7727 19.6474 49.0185 19.5441C49.2643 19.4408 49.4781 19.2983 49.6599 19.1165C49.8417 18.9347 49.9867 18.7233 50.0948 18.4823C50.2029 18.2413 50.2573 17.9834 50.2573 17.708V7.92304C50.2573 7.77325 50.3787 7.65186 50.5284 7.65186H53.9965C54.1462 7.65186 54.2676 7.77325 54.2676 7.92304V17.708H54.2682Z" fill="black"/>
<path d="M59.4423 27.6464H63.5964C63.687 27.6464 63.7722 27.6011 63.8223 27.5256L66.1862 23.9803C66.2418 23.8976 66.3384 23.8523 66.4375 23.8613C66.5172 23.8686 66.5945 23.8722 66.6688 23.8722H67.03C68.0326 23.8722 68.9983 23.7417 69.9272 23.4814C70.8562 23.2211 71.7265 22.8527 72.537 22.3756C73.3481 21.899 74.088 21.3265 74.756 20.6579C75.4246 19.9893 75.9972 19.2494 76.4737 18.4389C76.9508 17.6277 77.3193 16.758 77.5796 15.8291C77.8399 14.9002 77.9703 13.9344 77.9703 12.9318C77.9703 11.9292 77.8399 10.9611 77.5796 10.0267C77.3193 9.09299 76.9508 8.22266 76.4737 7.41697C75.9972 6.61127 75.4246 5.87382 74.756 5.20522C74.0874 4.53662 73.3475 3.96647 72.537 3.49477C71.7265 3.02306 70.8562 2.65706 69.9272 2.39614C68.9983 2.13583 68.0326 2.00537 67.03 2.00537C66.0274 2.00537 65.0592 2.13583 64.1249 2.39614C63.1911 2.65645 62.3208 3.02306 61.5151 3.49477C60.7094 3.96647 59.972 4.53662 59.3034 5.20522C58.6348 5.87382 58.0646 6.61127 57.5929 7.41697C57.1212 8.22327 56.7552 9.09299 56.4943 10.0267C56.234 10.9605 56.1035 11.9286 56.1035 12.9318C56.1035 13.935 56.2485 14.9866 56.5384 15.9692C56.8283 16.9525 57.239 17.8693 57.7699 18.7191C58.3008 19.5695 58.9422 20.339 59.6941 21.0269C60.373 21.6484 61.1225 22.1775 61.9421 22.6147C62.0834 22.6902 62.1287 22.8708 62.0394 23.0043L59.217 27.2255C59.0962 27.406 59.2254 27.6476 59.4429 27.6476L59.4423 27.6464ZM60.3053 12.9306C60.3053 12.0066 60.4823 11.1344 60.8362 10.3136C61.1902 9.49282 61.6691 8.78013 62.2737 8.17556C62.8783 7.57098 63.591 7.09203 64.4118 6.7381C65.2326 6.38417 66.1053 6.20721 67.0288 6.20721C67.9523 6.20721 68.8377 6.38417 69.6536 6.7381C70.4696 7.09203 71.1823 7.57098 71.7917 8.17556C72.4011 8.78013 72.8831 9.49282 73.237 10.3136C73.5909 11.1344 73.7679 12.0072 73.7679 12.9306C73.7679 13.8541 73.5909 14.722 73.237 15.5331C72.8831 16.3443 72.4017 17.0546 71.7917 17.664C71.1823 18.2734 70.4696 18.7553 69.6536 19.1093C68.8377 19.4632 67.9631 19.6402 67.0288 19.6402C66.0944 19.6402 65.2326 19.4632 64.4118 19.1093C63.591 18.7553 62.8783 18.274 62.2737 17.664C61.6691 17.0546 61.1902 16.3443 60.8362 15.5331C60.4823 14.722 60.3053 13.8547 60.3053 12.9306Z" fill="#522FFF"/>
<path d="M91.3699 21.8142C91.2769 21.6856 91.0944 21.6632 90.9737 21.7665C90.7139 21.9894 90.4416 22.202 90.1553 22.4043C89.7868 22.6646 89.4009 22.8911 88.9975 23.0826C88.594 23.274 88.1791 23.4268 87.7515 23.5398C87.3238 23.6527 86.889 23.7095 86.4463 23.7095C85.4733 23.7095 84.5589 23.5373 83.7036 23.1937C82.8484 22.85 82.0989 22.3608 81.455 21.7266C80.8112 21.0925 80.3051 20.3212 79.9361 19.4116C79.5676 18.5026 79.3828 17.4825 79.3828 16.3519V7.89325C79.3828 7.74347 79.5042 7.62207 79.654 7.62207H83.122C83.2718 7.62207 83.3932 7.74347 83.3932 7.89325V16.3513C83.3932 16.8822 83.4741 17.3563 83.6366 17.7742C83.7991 18.1922 84.0177 18.5437 84.2925 18.8288C84.5673 19.1139 84.8898 19.3301 85.2583 19.4774C85.6267 19.6248 86.0223 19.6985 86.4451 19.6985C86.8678 19.6985 87.249 19.6025 87.6174 19.411C87.9858 19.2196 88.3077 18.9665 88.5831 18.6518C88.8579 18.3371 89.0748 17.9808 89.2318 17.5828C89.3888 17.1848 89.468 16.7741 89.468 16.3513V7.89325C89.468 7.74347 89.5894 7.62207 89.7391 7.62207H93.2216C93.3714 7.62207 93.4928 7.74347 93.4928 7.89325V23.143C93.4928 23.2927 93.3714 23.4141 93.2216 23.4141H92.6587C92.5712 23.4141 92.4896 23.3719 92.4383 23.3012L91.3674 21.8136L91.3699 21.8142Z" fill="black"/>
<path d="M100.947 3.33091C100.947 3.70477 100.875 4.05326 100.733 4.3776C100.59 4.70193 100.396 4.98459 100.151 5.22557C99.9049 5.46656 99.6174 5.65802 99.2882 5.80055C98.9585 5.94309 98.6076 6.01436 98.2337 6.01436C97.8598 6.01436 97.5089 5.94309 97.1792 5.80055C96.8494 5.65802 96.5649 5.46656 96.3239 5.22557C96.083 4.98459 95.8915 4.70193 95.749 4.3776C95.6064 4.05326 95.5352 3.70417 95.5352 3.33091C95.5352 2.95766 95.6064 2.62064 95.749 2.29147C95.8915 1.96231 96.083 1.67723 96.3239 1.43625C96.5649 1.19526 96.85 1.0038 97.1792 0.861267C97.5083 0.71873 97.8598 0.647461 98.2337 0.647461C98.6076 0.647461 98.9585 0.71873 99.2882 0.861267C99.6174 1.0038 99.9049 1.19587 100.151 1.43625C100.397 1.67723 100.59 1.96231 100.733 2.29147C100.875 2.62124 100.947 2.96732 100.947 3.33091ZM99.9822 23.4142H96.4701C96.3203 23.4142 96.1989 23.2928 96.1989 23.143V7.89332C96.1989 7.74353 96.3203 7.62214 96.4701 7.62214H99.9822C100.132 7.62214 100.253 7.74353 100.253 7.89332V23.143C100.253 23.2928 100.132 23.4142 99.9822 23.4142Z" fill="black"/>
<path d="M115.316 23.4144H102.885C102.677 23.4144 102.546 23.1904 102.649 23.0092L108.841 12.067C108.943 11.8858 108.812 11.6617 108.605 11.6617H102.691C102.541 11.6617 102.42 11.5403 102.42 11.3906V7.92255C102.42 7.77277 102.541 7.65137 102.691 7.65137H115.122C115.33 7.65137 115.461 7.87544 115.358 8.05663L109.166 18.9988C109.064 19.18 109.195 19.4041 109.402 19.4041H115.316C115.466 19.4041 115.587 19.5255 115.587 19.6753V23.1433C115.587 23.293 115.466 23.4144 115.316 23.4144Z" fill="black"/>
</svg>
