<svg width="73" height="18" viewBox="0 0 73 18" fill="none" xmlns="http://www.w3.org/2000/svg">
<path d="M10.5122 14.3783H7.92298C7.86195 14.3783 7.80587 14.3459 7.77498 14.2936L2.99398 6.1323C2.90549 5.98163 2.67472 6.04419 2.67472 6.21889V14.207C2.67472 14.3016 2.59805 14.3783 2.50345 14.3783H0.173221C0.0786229 14.3783 0.00195312 14.3016 0.00195312 14.207V1.19568C0.00195312 1.10108 0.0786229 1.02441 0.173221 1.02441H2.76245C2.82348 1.02441 2.87955 1.05684 2.91045 1.10909L7.69144 9.27882C7.77955 9.42987 8.01071 9.36693 8.01071 9.19223V1.19568C8.01071 1.10108 8.08738 1.02441 8.18197 1.02441H10.5118C10.6064 1.02441 10.6831 1.10108 10.6831 1.19568V14.207C10.6831 14.3016 10.6064 14.3783 10.5118 14.3783H10.5122Z" fill="white" fill-opacity="0.3"/>
<path d="M16.6156 11.7003C16.5405 11.8136 16.6209 11.9681 16.7567 11.9666C16.7579 11.9666 16.759 11.9666 16.7602 11.9666C16.8597 11.9655 16.9593 11.9593 17.0581 11.9487C17.3049 11.9223 17.5391 11.8632 17.7603 11.7705C17.9815 11.6782 18.1856 11.5581 18.3729 11.4101C18.5598 11.2621 18.7227 11.0885 18.8604 10.8898C18.9542 10.7544 19.0336 10.611 19.0984 10.4599C19.1434 10.3546 19.2754 10.3203 19.3647 10.3924L21.117 11.814C21.1834 11.8678 21.1998 11.9624 21.1559 12.0356C20.9728 12.3438 20.7596 12.6292 20.5162 12.8908C20.2389 13.1891 19.9326 13.4496 19.5977 13.6724C19.2624 13.8955 18.9039 14.076 18.5224 14.2133C18.1406 14.3506 17.7428 14.4418 17.3293 14.4856C16.6316 14.56 15.9618 14.5005 15.3198 14.3067C14.6779 14.113 14.1023 13.8093 13.5931 13.3955C13.0838 12.9816 12.662 12.4693 12.3286 11.8586C11.9948 11.248 11.7873 10.5602 11.7057 9.79467C11.6221 9.0108 11.6782 8.28034 11.8747 7.60405C12.0707 6.92737 12.3747 6.33652 12.7859 5.83034C13.1971 5.32455 13.696 4.91221 14.2835 4.59333C14.8705 4.27482 15.5129 4.078 16.2105 4.00362C16.624 3.95937 17.0337 3.96585 17.4395 4.02231C17.845 4.07914 18.2352 4.18099 18.6102 4.32822C18.9847 4.47546 19.341 4.66694 19.6782 4.90268C19.978 5.11209 20.2511 5.35011 20.4979 5.61673C20.5521 5.67509 20.5601 5.76283 20.5158 5.8292L16.6164 11.7003H16.6156ZM17.068 6.80264C17.1336 6.69278 17.06 6.55203 16.9322 6.54326C16.9017 6.54097 16.8712 6.54021 16.8414 6.53982C16.7258 6.53982 16.6064 6.54631 16.4829 6.55928C16.1369 6.59628 15.8184 6.69431 15.5262 6.85337C15.234 7.01243 14.988 7.22146 14.7877 7.48008C14.5875 7.7387 14.4402 8.04003 14.3456 8.3841C14.2514 8.72816 14.2262 9.10731 14.2701 9.52079C14.28 9.61348 14.2957 9.718 14.3178 9.83434C14.3395 9.95068 14.3678 10.0678 14.4021 10.186C14.4364 10.3043 14.4749 10.4172 14.5181 10.5247C14.5184 10.5259 14.5188 10.527 14.5192 10.5278C14.5711 10.6586 14.7523 10.6705 14.8243 10.5499L17.0676 6.80226L17.068 6.80264Z" fill="white" fill-opacity="0.3"/>
<path d="M34.2771 10.7743C34.2771 11.2958 34.1775 11.7878 33.9792 12.2505C33.7804 12.7132 33.5089 13.1153 33.1644 13.4566C32.82 13.798 32.416 14.0681 31.9537 14.2668C31.491 14.4656 30.9959 14.5647 30.4684 14.5647C29.9965 14.5647 29.5434 14.4823 29.1089 14.3179C28.7187 14.1703 28.3613 13.9613 28.0363 13.6912C27.9726 13.6382 27.8803 13.6386 27.817 13.692C27.4973 13.9617 27.1445 14.1703 26.7577 14.3179C26.3263 14.4823 25.8712 14.5647 25.3933 14.5647C24.8654 14.5647 24.3718 14.4652 23.9125 14.2668C23.4529 14.0681 23.0512 13.798 22.7064 13.4566C22.362 13.1153 22.09 12.7132 21.8917 12.2505C21.6929 11.7882 21.5938 11.2962 21.5938 10.7743V4.59461C21.5938 4.50001 21.6704 4.42334 21.765 4.42334H23.9644C24.059 4.42334 24.1357 4.50001 24.1357 4.59461V10.7743C24.1357 10.9483 24.1681 11.1112 24.2333 11.2634C24.2986 11.4156 24.3886 11.5491 24.5034 11.6639C24.6182 11.7787 24.7517 11.8687 24.9039 11.9339C25.0561 11.9992 25.219 12.0316 25.3929 12.0316C25.5668 12.0316 25.7312 11.9992 25.8865 11.9339C26.0417 11.8687 26.1783 11.7787 26.2962 11.6639C26.414 11.5491 26.5056 11.4156 26.5708 11.2634C26.636 11.1112 26.6685 10.9483 26.6685 10.7743V4.59461C26.6685 4.50001 26.7451 4.42334 26.8397 4.42334H29.03C29.1246 4.42334 29.2012 4.50001 29.2012 4.59461V10.7743C29.2012 10.9483 29.2352 11.1112 29.3038 11.2634C29.3721 11.4156 29.4637 11.5491 29.5785 11.6639C29.6933 11.7787 29.8268 11.8687 29.979 11.9339C30.1312 11.9992 30.2941 12.0316 30.468 12.0316C30.6419 12.0316 30.8063 11.9992 30.9616 11.9339C31.1168 11.8687 31.2519 11.7787 31.3667 11.6639C31.4815 11.5491 31.573 11.4156 31.6413 11.2634C31.7096 11.1112 31.7439 10.9483 31.7439 10.7743V4.59461C31.7439 4.50001 31.8206 4.42334 31.9152 4.42334H34.1054C34.2 4.42334 34.2767 4.50001 34.2767 4.59461V10.7743H34.2771Z" fill="white" fill-opacity="0.3"/>
<path d="M37.54 17.0512H40.1636C40.2208 17.0512 40.2746 17.0225 40.3062 16.9749L41.7992 14.7358C41.8343 14.6835 41.8953 14.6549 41.9579 14.6607C42.0082 14.6652 42.057 14.6675 42.104 14.6675H42.3321C42.9653 14.6675 43.5752 14.5851 44.1618 14.4207C44.7485 14.2563 45.2982 14.0237 45.81 13.7223C46.3223 13.4214 46.7896 13.0597 47.2115 12.6375C47.6337 12.2152 47.9953 11.748 48.2963 11.2361C48.5976 10.7238 48.8303 10.1745 48.9947 9.58786C49.1591 9.00121 49.2415 8.39128 49.2415 7.75809C49.2415 7.12489 49.1591 6.51344 48.9947 5.92335C48.8303 5.33364 48.5976 4.78399 48.2963 4.27514C47.9953 3.7663 47.6337 3.30056 47.2115 2.8783C46.7892 2.45605 46.3219 2.09596 45.81 1.79806C45.2982 1.50015 44.7485 1.269 44.1618 1.10421C43.5752 0.939813 42.9653 0.857422 42.3321 0.857422C41.6989 0.857422 41.0874 0.939813 40.4973 1.10421C39.9076 1.26862 39.358 1.50015 38.8491 1.79806C38.3403 2.09596 37.8745 2.45605 37.4523 2.8783C37.03 3.30056 36.6699 3.7663 36.372 4.27514C36.0741 4.78437 35.843 5.33364 35.6782 5.92335C35.5138 6.51306 35.4314 7.12451 35.4314 7.75809C35.4314 8.39166 35.5229 9.05575 35.706 9.67636C35.8891 10.2973 36.1485 10.8764 36.4838 11.4131C36.8191 11.9501 37.2242 12.4361 37.6991 12.8706C38.1278 13.2631 38.6012 13.5972 39.1188 13.8734C39.208 13.921 39.2367 14.0351 39.1802 14.1194L37.3977 16.7853C37.3214 16.8993 37.4031 17.0519 37.5404 17.0519L37.54 17.0512ZM38.0851 7.75733C38.0851 7.17372 38.1968 6.62292 38.4204 6.10454C38.6439 5.58616 38.9464 5.13606 39.3282 4.75423C39.71 4.37241 40.1601 4.06993 40.6785 3.8464C41.1969 3.62288 41.7481 3.51111 42.3313 3.51111C42.9145 3.51111 43.4737 3.62288 43.989 3.8464C44.5044 4.06993 44.9545 4.37241 45.3393 4.75423C45.7242 5.13606 46.0286 5.58616 46.2521 6.10454C46.4757 6.62292 46.5874 7.1741 46.5874 7.75733C46.5874 8.34055 46.4757 8.88868 46.2521 9.40096C46.0286 9.91324 45.7246 10.3618 45.3393 10.7467C44.9545 11.1316 44.5044 11.436 43.989 11.6595C43.4737 11.883 42.9214 11.9948 42.3313 11.9948C41.7412 11.9948 41.1969 11.883 40.6785 11.6595C40.1601 11.436 39.71 11.1319 39.3282 10.7467C38.9464 10.3618 38.6439 9.91324 38.4204 9.40096C38.1968 8.88868 38.0851 8.34093 38.0851 7.75733Z" fill="white" fill-opacity="0.3"/>
<path d="M57.7048 13.3674C57.646 13.2862 57.5308 13.2721 57.4545 13.3373C57.2905 13.478 57.1185 13.6123 56.9377 13.7401C56.705 13.9045 56.4613 14.0475 56.2065 14.1684C55.9517 14.2894 55.6896 14.3859 55.4195 14.4572C55.1495 14.5285 54.8748 14.5644 54.5952 14.5644C53.9807 14.5644 53.4032 14.4557 52.8631 14.2386C52.323 14.0216 51.8496 13.7126 51.443 13.3121C51.0364 12.9116 50.7167 12.4245 50.4837 11.85C50.251 11.276 50.1343 10.6317 50.1343 9.91766V4.57556C50.1343 4.48097 50.2109 4.4043 50.3055 4.4043H52.4958C52.5904 4.4043 52.6671 4.48097 52.6671 4.57556V9.91728C52.6671 10.2526 52.7182 10.552 52.8208 10.816C52.9234 11.0799 53.0615 11.3019 53.235 11.482C53.4086 11.662 53.6123 11.7985 53.8449 11.8916C54.0776 11.9847 54.3275 12.0312 54.5945 12.0312C54.8615 12.0312 55.1022 11.9706 55.3349 11.8497C55.5675 11.7287 55.7708 11.5689 55.9448 11.3702C56.1183 11.1715 56.2553 10.9464 56.3545 10.695C56.4536 10.4437 56.5036 10.1843 56.5036 9.91728V4.57556C56.5036 4.48097 56.5803 4.4043 56.6749 4.4043H58.8743C58.9689 4.4043 59.0455 4.48097 59.0455 4.57556V14.2066C59.0455 14.3012 58.9689 14.3779 58.8743 14.3779H58.5188C58.4634 14.3779 58.4119 14.3512 58.3795 14.3065L57.7032 13.367L57.7048 13.3674Z" fill="white" fill-opacity="0.3"/>
<path d="M63.7578 1.69475C63.7578 1.93086 63.7128 2.15095 63.6228 2.35579C63.5328 2.56062 63.4099 2.73913 63.2551 2.89133C63.0998 3.04352 62.9183 3.16444 62.7104 3.25446C62.5021 3.34448 62.2805 3.38949 62.0444 3.38949C61.8083 3.38949 61.5866 3.34448 61.3784 3.25446C61.1701 3.16444 60.9904 3.04352 60.8382 2.89133C60.6861 2.73913 60.5651 2.56062 60.4751 2.35579C60.3851 2.15095 60.3401 1.93048 60.3401 1.69475C60.3401 1.45902 60.3851 1.24617 60.4751 1.03828C60.5651 0.830399 60.6861 0.650358 60.8382 0.498163C60.9904 0.345968 61.1705 0.225051 61.3784 0.13503C61.5863 0.0450101 61.8083 0 62.0444 0C62.2805 0 62.5021 0.0450101 62.7104 0.13503C62.9183 0.225051 63.0998 0.346349 63.2551 0.498163C63.4103 0.650358 63.5328 0.830399 63.6228 1.03828C63.7128 1.24655 63.7578 1.46512 63.7578 1.69475ZM63.1486 14.3785H60.9306C60.836 14.3785 60.7593 14.3018 60.7593 14.2072V4.57616C60.7593 4.48156 60.836 4.40489 60.9306 4.40489H63.1486C63.2432 4.40489 63.3199 4.48156 63.3199 4.57616V14.2072C63.3199 14.3018 63.2432 14.3785 63.1486 14.3785Z" fill="white" fill-opacity="0.3"/>
<path d="M72.832 14.3781H64.9812C64.85 14.3781 64.7672 14.2366 64.8321 14.1222L68.7426 7.21157C68.8071 7.09714 68.7247 6.95563 68.5935 6.95563H64.8588C64.7642 6.95563 64.6875 6.87896 64.6875 6.78436V4.59412C64.6875 4.49952 64.7642 4.42285 64.8588 4.42285H72.7096C72.8408 4.42285 72.9236 4.56437 72.8587 4.6788L68.9482 11.5894C68.8837 11.7038 68.9661 11.8453 69.0973 11.8453H72.832C72.9266 11.8453 73.0033 11.922 73.0033 12.0166V14.2068C73.0033 14.3014 72.9266 14.3781 72.832 14.3781Z" fill="white" fill-opacity="0.3"/>
</svg>
